<?xml version="1.0" standalone="no"?>
<!DOCTYPE svg PUBLIC "-//W3C//DTD SVG 1.1//EN" "http://www.w3.org/Graphics/SVG/1.1/DTD/svg11.dtd" >
<svg xmlns="http://www.w3.org/2000/svg" xmlns:xlink="http://www.w3.org/1999/xlink" version="1.1">
<metadata>
Created by FontForge 20170731 at Mon Dec 26 13:14:58 2005
 By Aleksey,,,
(C)1992 The Font Company Inc., ALL Rights Reserved
</metadata>
<defs>
<font id="Arial-Mdm" horiz-adv-x="514" >
  <font-face 
    font-family="Arial"
    font-weight="500"
    font-stretch="normal"
    units-per-em="1000"
    panose-1="0 0 0 0 0 0 0 0 0 0"
    ascent="800"
    descent="-200"
    x-height="482"
    cap-height="666"
    bbox="0 -250 942 877"
    underline-thickness="20"
    underline-position="-150"
    unicode-range="U+0020-FB02"
  />
<missing-glyph horiz-adv-x="0" 
 />
    <glyph glyph-name=".notdef" horiz-adv-x="0" 
 />
    <glyph glyph-name=".null" horiz-adv-x="0" 
 />
    <glyph glyph-name="nonmarkingreturn" horiz-adv-x="333" 
 />
    <glyph glyph-name="space" unicode=" " horiz-adv-x="233" 
 />
    <glyph glyph-name="exclam" unicode="!" horiz-adv-x="281" 
d="M28 168l-28 346v152h118v-151l-28 -347h-62zM4 109h110v-109h-110v109z" />
    <glyph glyph-name="quotedbl" unicode="&#x22;" horiz-adv-x="393" 
d="M156 392l-17 274h81l-16 -274h-48zM17 392l-17 274h82l-17 -274h-48z" />
    <glyph glyph-name="numbersign" unicode="#" horiz-adv-x="566" 
d="M196 402l-20 -125h126l19 125h-125zM461 219h-108l-34 -219h-59l33 219h-125l-35 -219h-58l33 219h-108l1 58h116l19 125h-108l1 58h116l32 206h59l-32 -206h126l32 206h60l-32 -206h99l-1 -58h-107l-19 -125h100z" />
    <glyph glyph-name="dollar" unicode="$" 
d="M252 72q94 15 94 111q0 79 -94 104v-215zM195 599q-83 -20 -83 -97q0 -65 83 -96v193zM195 -13q-67 10 -103 34q-80 51 -92 165l99 13q17 -102 96 -123v227q-179 49 -179 193q0 168 179 186v42h57v-42q150 -21 174 -161l-99 -14q-12 73 -75 91v-208l8 -3q85 -22 124 -54
q59 -49 59 -140q0 -84 -53 -140q-54 -56 -138 -63v-84h-57v81z" />
    <glyph glyph-name="percent" unicode="%" horiz-adv-x="824" 
d="M525 151q0 -112 60 -112q59 0 59 113q0 111 -59 111q-60 0 -60 -112zM85 501q0 -111 59 -111q60 0 60 113q0 111 -60 111q-59 0 -59 -113zM584 -25q-145 0 -143 173q0 179 143 179q146 0 146 -177q0 -175 -146 -175zM144 325q-144 0 -144 175q0 178 143 178
q146 0 146 -177q0 -176 -145 -176zM585 678l-359 -703h-80l360 703h79z" />
    <glyph glyph-name="ampersand" unicode="&#x26;" horiz-adv-x="650" 
d="M285 458q46 33 46 73q0 69 -73 69q-71 0 -71 -61q0 -29 31 -66l34 -39zM109 187q0 -45 32 -78q33 -33 77 -33q76 0 132 67q-31 32 -69 79q-37 46 -72 96q-100 -59 -100 -131zM539 292q-17 -73 -57 -138q45 -50 104 -90l-65 -80q-51 25 -105 85q-76 -80 -195 -80
q-97 0 -159 55t-62 141q0 123 156 199q-72 84 -72 147q0 62 49 105q50 42 124 42q75 0 123 -41q48 -42 48 -106q0 -90 -124 -161l107 -139q18 35 30 85z" />
    <glyph glyph-name="quotesingle" unicode="'" horiz-adv-x="196" 
d="M17 392l-17 274h82l-17 -274h-48z" />
    <glyph glyph-name="parenleft" unicode="(" horiz-adv-x="310" 
d="M152 -195l-3 4q-62 85 -107 204q-42 114 -42 228q0 129 50 253q24 58 54 109q21 36 49 75h72l-5 -10q-65 -126 -89 -212q-30 -107 -29 -216q0 -149 59 -299q28 -71 63 -136h-72z" />
    <glyph glyph-name="parenright" unicode=")" horiz-adv-x="310" 
d="M72 678l4 -4q65 -91 106 -205q42 -115 42 -229q0 -132 -50 -251q-24 -58 -54 -109q-24 -40 -48 -75h-71l4 9q68 137 89 211q29 108 29 217q0 145 -60 299q-28 72 -63 137h72z" />
    <glyph glyph-name="asterisk" unicode="*" horiz-adv-x="358" 
d="M24 609q58 -22 105 -48l-1 10q-8 57 -8 102v5h72v-3q0 -36 -10 -106l-1 -7l7 3q62 27 96 39l8 3l22 -73l-5 -1q-53 -15 -110 -23l6 -5l74 -83l-62 -43q-22 33 -40 63l-22 37l-2 -5q-27 -48 -59 -96l-61 45l4 5q47 54 72 78l4 4l-57 13q-26 5 -36 8l-20 6z" />
    <glyph glyph-name="plus" unicode="+" horiz-adv-x="500" 
d="M208 374v195h65v-195h208v-65h-207v-195h-65v195h-209v65h208z" />
    <glyph glyph-name="comma" unicode="," horiz-adv-x="261" 
d="M8 109h110v-92q0 -117 -94 -156l-24 43q59 25 62 96h-54v109z" />
    <glyph glyph-name="hyphen" unicode="-" horiz-adv-x="310" 
d="M0 293h251v-104h-251v104z" />
    <glyph glyph-name="period" unicode="." horiz-adv-x="261" 
d="M0 109h109v-109h-109v109z" />
    <glyph glyph-name="slash" unicode="/" horiz-adv-x="261" 
d="M0 -195l183 871h78l-183 -871h-78z" />
    <glyph glyph-name="zero" unicode="0" 
d="M217 74q59 0 85 62q25 62 25 206q0 241 -110 241q-109 0 -109 -256q0 -254 109 -253zM217 669q217 0 217 -341q0 -339 -217 -339t-217 340t217 340z" />
    <glyph glyph-name="one" unicode="1" 
d="M165 0v502q-69 -63 -165 -98v97q144 59 191 168h77v-669h-103z" />
    <glyph glyph-name="two" unicode="2" 
d="M444 0h-444q2 68 59 144q36 47 113 114q78 68 110 104q32 35 46 67q11 25 11 52q0 102 -108 102t-111 -120l-105 11q18 195 213 195q98 0 157 -51q58 -51 58 -136q0 -91 -81 -177q-48 -51 -124 -115q-62 -53 -81 -83l-6 -10h293v-97z" />
    <glyph glyph-name="three" unicode="3" 
d="M101 189q20 -117 114 -115q50 0 83 36q33 35 33 89q0 51 -31 85q-31 33 -78 33q-27 0 -60 -9l12 87h12q117 0 117 99q0 90 -93 90q-89 0 -103 -106l-99 18q34 173 202 173q84 0 141 -50q57 -49 57 -122q0 -90 -94 -138q125 -28 125 -161q0 -90 -65 -149q-64 -60 -161 -60
q-87 0 -146 52q-59 51 -67 135z" />
    <glyph glyph-name="four" unicode="4" 
d="M281 506l-182 -266h182v266zM281 147h-281v93l297 427h86v-427h87v-92h-86v-148h-103v147z" />
    <glyph glyph-name="five" unicode="5" 
d="M106 183q16 -111 112 -111q53 0 86 41q34 40 34 104q0 140 -122 140q-69 0 -111 -57l-90 13l66 344h334v-97h-254l-29 -149q54 33 109 33q88 -1 146 -63t58 -156q0 -103 -65 -170q-64 -66 -164 -66q-89 0 -148 50q-59 51 -68 134z" />
    <glyph glyph-name="six" unicode="6" 
d="M151 115q33 -42 82 -42q106 0 106 137q0 140 -110 140q-112 0 -112 -133q0 -60 34 -102zM329 493q-16 91 -95 91q-123 0 -129 -225q53 73 143 73q83 0 139 -62q55 -62 55 -156q0 -99 -59 -162t-151 -63q-128 0 -186 103q-46 81 -46 223q0 354 240 354q167 0 190 -166z
" />
    <glyph glyph-name="seven" unicode="7" 
d="M0 657h434v-77q-101 -104 -173 -279q-61 -150 -67 -301h-102q2 145 68 308q63 152 149 252h-309v97z" />
    <glyph glyph-name="eight" unicode="8" 
d="M137 107q34 -35 84 -35q114 0 114 121q0 54 -32 89q-33 34 -84 34q-50 0 -83 -35q-32 -34 -32 -87q0 -52 33 -87zM219 399q95 0 95 92q0 95 -95 95t-95 -95q0 -92 95 -92zM22 498q0 76 55 123q54 48 141 48t142 -48q55 -49 55 -126q0 -96 -95 -135q119 -42 119 -169
q0 -89 -61 -146q-61 -56 -157 -56q-98 0 -159 56q-62 57 -62 146q0 134 120 169q-98 38 -98 138z" />
    <glyph glyph-name="nine" unicode="9" 
d="M294 543q-32 40 -81 40q-47 0 -79 -39q-31 -39 -31 -99q0 -138 113 -138q110 0 110 132q0 63 -32 104zM112 164q15 -91 94 -91q65 0 94 57q36 69 36 156v12q-52 -73 -142 -73q-84 0 -139 62t-55 157q0 99 59 162t152 63q125 0 184 -106q46 -79 46 -225q0 -349 -241 -349
q-164 0 -188 165z" />
    <glyph glyph-name="colon" unicode=":" horiz-adv-x="281" 
d="M0 482h110v-109h-110v109zM0 109h110v-109h-110v109z" />
    <glyph glyph-name="semicolon" unicode=";" horiz-adv-x="281" 
d="M8 482h109v-109h-109v109zM8 109h109v-92q0 -118 -93 -156l-24 43q60 25 61 96h-53v109z" />
    <glyph glyph-name="less" unicode="&#x3c;" horiz-adv-x="500" 
d="M481 510l-397 -172l397 -169v-70l-481 202v72l481 207v-70z" />
    <glyph glyph-name="equal" unicode="=" horiz-adv-x="500" 
d="M481 299v-65h-481v65h481zM481 448v-65h-481v65h481z" />
    <glyph glyph-name="greater" unicode="&#x3e;" horiz-adv-x="500" 
d="M0 169l397 172l-397 168v71l481 -202v-71l-481 -208v70z" />
    <glyph glyph-name="question" unicode="?" horiz-adv-x="543" 
d="M0 482q7 88 69 141t157 53q97 0 162 -54q65 -53 65 -133q0 -68 -61 -129l-24 -22q-15 -14 -28 -25q-45 -39 -57 -62t-12 -70v-14h-96v29q0 100 99 184q76 62 76 108q0 45 -35 76q-35 30 -87 30q-105 0 -129 -124zM173 109h109v-109h-109v109z" />
    <glyph glyph-name="at" unicode="@" horiz-adv-x="698" 
d="M429 351q0 94 -86 94q-50 0 -84 -40q-34 -41 -34 -100q0 -106 94 -106q110 0 110 152zM631 132q-55 -68 -98 -95q-72 -47 -179 -47q-153 0 -253 97q-101 96 -101 243q0 149 101 248q100 99 251 99q138 0 229 -81t91 -204q0 -182 -162 -244q-33 -14 -59 -14q-49 0 -49 51
v5q-41 -52 -104 -52q-64 0 -103 45q-40 45 -40 117q0 89 52 149t129 60q82 0 115 -70l12 58h58l-48 -263q-5 -27 -5 -32q0 -19 18 -19q31 0 81 48q62 59 62 150q0 109 -78 180q-77 71 -196 71q-126 0 -212 -87q-86 -86 -86 -213q0 -126 87 -212q87 -87 214 -87q70 0 127 31
q38 19 87 68h59z" />
    <glyph glyph-name="A" unicode="A" horiz-adv-x="650" 
d="M420 269l-62 164q-32 89 -43 123q-17 -62 -36 -112l-64 -175h205zM0 0l258 666h117l270 -666h-122l-68 178h-272l-66 -178h-117z" />
    <glyph glyph-name="B" unicode="B" horiz-adv-x="650" 
d="M228 393q92 0 126 19q35 19 35 71q0 54 -34 72t-138 18h-107v-180h118zM256 94q159 0 159 101q0 80 -77 97q-31 7 -95 7h-133v-205h146zM0 666h258q108 0 157 -28q82 -48 82 -141q0 -98 -94 -143q126 -37 126 -162q0 -141 -126 -177q-51 -15 -162 -15h-241v666z" />
    <glyph glyph-name="C" unicode="C" horiz-adv-x="669" 
d="M470 457q-37 126 -162 126q-195 0 -195 -247q0 -254 191 -254q138 0 173 157l108 -32q-60 -218 -277 -218q-143 0 -226 92q-82 93 -82 253q0 158 85 251q84 93 228 93q163 0 236 -123q15 -25 29 -72z" />
    <glyph glyph-name="D" unicode="D" horiz-adv-x="669" 
d="M233 94q89 0 128 24q35 22 54 65q26 56 26 155q0 171 -94 215q-40 19 -134 19h-103v-478h123zM0 666h238q113 0 169 -28q45 -23 79 -67q69 -91 69 -237q0 -219 -136 -298q-62 -36 -172 -36h-247v666z" />
    <glyph glyph-name="E" unicode="E" horiz-adv-x="620" 
d="M0 666h488v-94h-377v-177h352v-94h-352v-206h392v-95h-503v666z" />
    <glyph glyph-name="F" unicode="F" horiz-adv-x="572" 
d="M0 666h454v-94h-343v-184h296v-94h-296v-294h-111v666z" />
    <glyph glyph-name="G" unicode="G" horiz-adv-x="727" 
d="M334 348h286v-255q-122 -104 -284 -104q-152 0 -244 94q-92 93 -92 249q0 158 90 252t241 94q234 0 279 -197l-105 -24q-35 127 -175 127q-101 0 -159 -65q-58 -64 -58 -176q0 -259 219 -259q102 0 178 64v105h-176v95z" />
    <glyph glyph-name="H" unicode="H" horiz-adv-x="669" 
d="M0 666h110v-268h308v268h110v-666h-110v303h-307v-303h-111v666z" />
    <glyph glyph-name="I" unicode="I" horiz-adv-x="261" 
d="M0 666h110v-666h-110v666z" />
    <glyph glyph-name="J" unicode="J" horiz-adv-x="494" 
d="M395 227q0 -135 -58 -189q-50 -49 -144 -49q-193 0 -193 203v5l102 12q6 -125 92 -125q51 0 71 30t20 106v446h110v-439z" />
    <glyph glyph-name="K" unicode="K" horiz-adv-x="640" 
d="M110 666v-319l289 319h139l-261 -274l286 -392h-139l-222 317l-92 -98v-219h-110v666h110z" />
    <glyph glyph-name="L" unicode="L" horiz-adv-x="543" 
d="M0 666h110v-572h332v-94h-442v666z" />
    <glyph glyph-name="M" unicode="M" horiz-adv-x="805" 
d="M671 666v-666h-106v583l-180 -583h-102l-179 583v-583h-104v666h178l159 -522l162 522h172z" />
    <glyph glyph-name="N" unicode="N" horiz-adv-x="669" 
d="M0 666h109l296 -461l24 -41v6q-4 37 -4 74l-2 422h104v-666h-111l-316 486q-2 5 -4 8l4 -49l3 -445h-103v666z" />
    <glyph glyph-name="O" unicode="O" horiz-adv-x="727" 
d="M170 150q55 -68 152 -68q95 0 151 68q56 67 56 181q0 252 -208 252q-97 0 -152 -66t-55 -183t56 -184zM88 585q88 93 234 93q145 0 233 -94q87 -94 87 -251q0 -158 -87 -251t-235 -93q-146 0 -233 94t-87 253q0 155 88 249z" />
    <glyph glyph-name="P" unicode="P" horiz-adv-x="620" 
d="M236 356q78 0 112 20q48 26 48 89q0 67 -49 90q-33 17 -116 17h-121v-216h126zM0 666h235q136 0 186 -28q89 -52 89 -171q0 -156 -138 -193q-48 -13 -130 -13h-131v-261h-111v666z" />
    <glyph glyph-name="Q" unicode="Q" horiz-adv-x="727" 
d="M336 205q72 -23 126 -66q66 66 66 189q0 120 -55 188q-55 67 -152 67t-153 -66q-55 -67 -55 -184t55 -184q55 -68 150 -68q40 0 74 13q-39 28 -85 40zM320 -11q-146 0 -233 93q-87 94 -87 251q0 158 87 251q87 94 234 94q146 0 233 -94q87 -93 87 -251q0 -149 -91 -256
q55 -38 110 -59l-37 -76q-39 14 -57 24q-21 11 -74 47q-3 3 -15 10q-70 -34 -157 -34z" />
    <glyph glyph-name="R" unicode="R" horiz-adv-x="669" 
d="M258 378q88 0 124 19q44 23 44 80q0 97 -154 97h-162v-196h148zM0 666h290q119 0 166 -28q83 -48 83 -156q0 -157 -182 -183q71 -38 137 -142l100 -157h-134l-93 141q-44 68 -67 95q-21 25 -44 37q-25 14 -79 14h-66v-287h-111v666z" />
    <glyph glyph-name="S" unicode="S" horiz-adv-x="620" 
d="M106 225q18 -142 171 -142q150 0 150 104q0 39 -28 59q-28 22 -135 48q-130 33 -178 70q-61 50 -61 129q0 83 65 134t172 51q246 0 254 -201l-108 -6q-14 113 -143 113q-135 0 -135 -84q0 -36 32 -56q33 -21 123 -41q134 -31 185 -71q66 -50 66 -138q0 -95 -70 -150
t-191 -55q-259 0 -275 226z" />
    <glyph glyph-name="T" unicode="T" horiz-adv-x="572" 
d="M209 572h-209v94h529v-94h-209v-572h-111v572z" />
    <glyph glyph-name="U" unicode="U" horiz-adv-x="669" 
d="M110 666v-373q0 -106 21 -146q35 -63 133 -63q100 0 132 60q22 44 22 145v377h110v-368q0 -140 -35 -205q-24 -44 -71 -71q-61 -33 -157 -33q-172 0 -231 104q-34 60 -34 202v371h110z" />
    <glyph glyph-name="V" unicode="V" horiz-adv-x="620" 
d="M614 666l-250 -666h-115l-249 666h119l171 -488q13 -37 18 -58l19 58l173 488h114z" />
    <glyph glyph-name="W" unicode="W" horiz-adv-x="882" 
d="M169 0l-169 666h113l101 -447q6 -24 9 -41l6 -31q5 27 16 66l124 453h132l106 -398q20 -78 27 -125l5 22q1 9 4 18l112 483h111l-173 -666h-112l-149 545l-1 -8l-146 -537h-116z" />
    <glyph glyph-name="X" unicode="X" horiz-adv-x="620" 
d="M0 0l244 347l-218 319h130l141 -213q9 -12 14 -22q9 15 27 41l134 194h124l-222 -318l241 -348h-134l-168 248q-2 2 -2 3q0 2 -1 4l-3 3q-9 -16 -17 -27l-158 -231h-132z" />
    <glyph glyph-name="Y" unicode="Y" horiz-adv-x="620" 
d="M617 666l-256 -385v-281h-110v281l-251 385h131l180 -289l179 289h127z" />
    <glyph glyph-name="Z" unicode="Z" horiz-adv-x="572" 
d="M0 100l346 430q15 20 36 42h-343v94h482v-90l-369 -457l-21 -24h403v-95h-534v100z" />
    <glyph glyph-name="bracketleft" unicode="[" horiz-adv-x="281" 
d="M0 667h202v-83h-101v-687h101v-83h-202v853z" />
    <glyph glyph-name="backslash" unicode="\" horiz-adv-x="261" 
d="M183 -195l-183 871h78l183 -871h-78z" />
    <glyph glyph-name="bracketright" unicode="]" horiz-adv-x="281" 
d="M202 -187h-202v83h101v687h-101v83h202v-853z" />
    <glyph glyph-name="asciicircum" unicode="^" horiz-adv-x="500" 
d="M0 378l192 288h76l192 -288h-73l-158 230l-156 -230h-73z" />
    <glyph glyph-name="underscore" unicode="_" horiz-adv-x="500" 
d="M500 -150h-500v75h500v-75z" />
    <glyph glyph-name="grave" unicode="`" horiz-adv-x="0" 
d="M113 542l-113 132h125l61 -132h-73z" />
    <glyph glyph-name="a" unicode="a" 
d="M319 237q-27 -10 -44 -14q-20 -5 -71 -13q-98 -17 -98 -74q0 -71 86 -71q77 0 111 58q16 27 16 82v32zM14 352q47 141 215 141q134 0 175 -71q18 -31 18 -112l-1 -173q0 -87 28 -137h-104q-13 28 -18 56q-72 -66 -162 -66q-165 0 -165 139q0 92 95 130q33 12 89 22
q98 15 135 29v11q0 91 -94 91q-93 0 -114 -78z" />
    <glyph glyph-name="b" unicode="b" horiz-adv-x="543" 
d="M219 72q118 0 118 166q0 174 -118 174q-120 0 -120 -176q0 -164 120 -164zM0 0v666h103v-238q55 65 136 65q93 0 149 -68q55 -67 55 -180t-57 -184t-147 -71q-92 0 -143 75v-65h-96z" />
    <glyph glyph-name="c" unicode="c" horiz-adv-x="494" 
d="M332 314q-22 95 -103 95q-123 0 -123 -163q0 -173 121 -173q92 0 108 107l102 -15q-30 -175 -212 -175q-105 0 -165 67q-60 66 -60 184q0 119 60 185q61 67 168 67q171 0 205 -163z" />
    <glyph glyph-name="d" unicode="d" horiz-adv-x="543" 
d="M106 246q0 -174 120 -174q119 0 119 162q0 178 -118 178q-121 0 -121 -166zM444 0h-96v65q-51 -75 -144 -75q-89 0 -147 70q-57 70 -57 180q0 116 55 185q55 68 147 68q87 0 139 -66v239h103v-666z" />
    <glyph glyph-name="e" unicode="e" 
d="M343 285q-8 127 -116 127q-103 0 -118 -127h234zM107 213q5 -144 126 -144q77 0 106 85l105 -15q-44 -149 -213 -149q-108 0 -169 66q-62 65 -62 182q0 116 61 186q61 69 162 69q106 0 166 -69q60 -70 60 -192q-1 -3 -1 -8v-11h-341z" />
    <glyph glyph-name="f" unicode="f" horiz-adv-x="281" 
d="M269 482v-80l-95 -1v-401h-103v401h-71v81h71v45q0 66 19 96q34 55 122 55q38 0 91 -12l-15 -80q-30 5 -56 5q-58 0 -58 -69v-40h95z" />
    <glyph glyph-name="g" unicode="g" horiz-adv-x="543" 
d="M106 246q0 -162 119 -162q123 0 123 154q0 174 -123 174q-119 0 -119 -166zM128 -50q9 -64 90 -64q71 0 98 30t27 107v47q-56 -70 -141 -70q-89 0 -145 68q-57 69 -57 176q0 113 57 181q56 68 149 68q88 0 145 -73v62h96v-424q0 -149 -57 -201q-55 -52 -159 -52
q-147 0 -196 80q-19 34 -19 69l1 10z" />
    <glyph glyph-name="h" unicode="h" horiz-adv-x="543" 
d="M0 666h103v-242q59 69 148 69q99 0 138 -64q26 -42 26 -134v-295h-103v282q0 128 -92 128q-66 0 -97 -51q-20 -36 -20 -106v-253h-103v666z" />
    <glyph glyph-name="i" unicode="i" horiz-adv-x="232" 
d="M0 666h103v-105h-103v105zM0 482h103v-482h-103v482z" />
    <glyph glyph-name="j" unicode="j" horiz-adv-x="232" 
d="M104 666h103v-106h-103v106zM19 -96q20 -6 35 -6q48 0 49 62l1 38v485h103v-487q0 -101 -21 -140q-25 -51 -105 -51q-38 0 -81 10z" />
    <glyph glyph-name="k" unicode="k" horiz-adv-x="494" 
d="M0 666h103v-367l173 183h130l-175 -177l191 -305h-118l-142 232l-59 -58v-174h-103v666z" />
    <glyph glyph-name="l" unicode="l" horiz-adv-x="232" 
d="M0 666h104v-666h-104v666z" />
    <glyph glyph-name="m" unicode="m" horiz-adv-x="795" 
d="M0 482h94v-66q55 77 150 77q101 0 135 -80q59 80 152 80q92 0 128 -66q22 -40 22 -107v-320h-103v291q-1 119 -78 119q-107 0 -107 -153v-257h-103v290q-1 120 -77 120q-63 0 -89 -48q-20 -36 -20 -119v-243h-104v482z" />
    <glyph glyph-name="n" unicode="n" horiz-adv-x="543" 
d="M0 482h95v-69q56 80 158 80q100 0 139 -69q16 -30 20 -50q3 -21 3 -93v-281h-103v271q0 139 -92 139q-68 0 -97 -54q-20 -37 -20 -114v-242h-103v482z" />
    <glyph glyph-name="o" unicode="o" horiz-adv-x="543" 
d="M237 73q59 0 95 46q36 45 36 120q0 170 -131 170t-131 -168t131 -168zM65 423q64 70 172 70q106 0 172 -69q65 -69 65 -182t-66 -183q-65 -69 -171 -69q-107 0 -172 67t-65 178q0 118 65 188z" />
    <glyph glyph-name="p" unicode="p" horiz-adv-x="543" 
d="M218 72q120 0 120 172q0 168 -118 168q-122 0 -122 -177q0 -163 120 -163zM0 483h95v-66q54 76 145 76t147 -68t56 -180q0 -114 -57 -184q-57 -71 -148 -71q-80 0 -135 64v-238h-103v667z" />
    <glyph glyph-name="q" unicode="q" horiz-adv-x="543" 
d="M225 412q-119 0 -119 -165q0 -175 119 -175q120 0 120 175q0 165 -120 165zM339 -184v238q-48 -65 -136 -65q-89 1 -146 72q-57 72 -57 184t56 180q55 68 147 68t145 -78v67h94v-666h-103z" />
    <glyph glyph-name="r" unicode="r" horiz-adv-x="329" 
d="M252 376q-32 19 -62 19q-87 0 -87 -191v-204h-103v482h95v-71q44 82 105 82q41 0 86 -25z" />
    <glyph glyph-name="s" unicode="s" horiz-adv-x="494" 
d="M308 345q-12 69 -101 69q-93 0 -93 -51q0 -22 23 -35q22 -13 90 -29q117 -26 155 -57q43 -35 43 -94q0 -72 -57 -115t-150 -43q-188 0 -218 151l103 16q15 -89 113 -89q104 0 104 66q0 38 -67 52q-149 34 -193 68q-44 35 -44 96q0 64 50 103q50 40 131 40q185 0 210 -132
z" />
    <glyph glyph-name="t" unicode="t" horiz-adv-x="281" 
d="M162 483h85v-81h-84v-240q-1 -52 6 -67t31 -15q20 0 46 9l12 -85q-37 -12 -76 -12q-85 0 -107 44q-16 32 -16 119v246h-59v81h59v109l103 61v-169z" />
    <glyph glyph-name="u" unicode="u" horiz-adv-x="543" 
d="M320 0l-1 71q-55 -81 -157 -81q-100 0 -139 67q-23 42 -23 123v302h104v-273q0 -137 91 -137q68 0 97 53q19 35 19 124v233h103v-482h-94z" />
    <glyph glyph-name="v" unicode="v" horiz-adv-x="494" 
d="M471 482l-187 -482h-94l-190 482h109l98 -269l29 -89q15 53 28 86l100 272h107z" />
    <glyph glyph-name="w" unicode="w" horiz-adv-x="698" 
d="M150 0l-150 482h103l98 -351l94 351h102l89 -351q6 25 15 55l87 296h101l-153 -482h-102l-92 344l-11 -47l-77 -297h-104z" />
    <glyph glyph-name="x" unicode="x" horiz-adv-x="494" 
d="M0 0l175 250l-165 232h128l90 -139l4 -9l3 -3l105 151h123l-166 -227l179 -255h-127l-112 172l-114 -172h-123z" />
    <glyph glyph-name="y" unicode="y" horiz-adv-x="494" 
d="M110 482l126 -360l126 360h105l-195 -528q-29 -78 -57 -108q-38 -41 -104 -41q-35 0 -66 8h-2l-11 88q28 -7 52 -7q64 0 97 99l2 6l-183 483h110z" />
    <glyph glyph-name="z" unicode="z" horiz-adv-x="465" 
d="M0 82l248 284l24 28q1 2 3 3l4 3q-39 -3 -77 -3h-184v85h396v-70l-225 -263q-34 -40 -57 -63q43 4 85 4h212v-90h-429v82z" />
    <glyph glyph-name="braceleft" unicode="{" horiz-adv-x="290" 
d="M130 128v-155q0 -62 16 -80t72 -18h8v-58q-13 -1 -26 -1q-143 0 -143 147v163q0 79 -57 93v58q57 15 57 94v173q0 138 145 138h10q6 0 14 -1v-57q-62 -1 -79 -18t-17 -80v-160q0 -84 -61 -118q61 -35 61 -120z" />
    <glyph glyph-name="bar" unicode="|" horiz-adv-x="500" 
d="M63 666v-839h-63v839h63z" />
    <glyph glyph-name="braceright" unicode="}" horiz-adv-x="290" 
d="M97 368v156q0 64 -17 82q-17 17 -80 17v58q14 1 27 1q143 0 143 -147v-163q0 -80 57 -94v-58q-57 -15 -57 -94v-172q0 -138 -145 -138l-25 1v58q63 0 80 17t17 80v160q0 83 61 117q-61 34 -61 119z" />
    <glyph glyph-name="asciitilde" unicode="~" horiz-adv-x="499" 
d="M492 657q-65 -115 -134 -115q-19 0 -39 7q-21 6 -76 30q-59 26 -75 32t-30 6q-48 -1 -99 -90l-39 39q69 114 135 114q35 0 127 -41q47 -21 64 -27q18 -7 29 -7q49 0 98 90z" />
    <glyph glyph-name="uni00A0" unicode="&#xa0;" horiz-adv-x="233" 
 />
    <glyph glyph-name="exclamdown" unicode="&#xa1;" horiz-adv-x="310" 
d="M89 312l29 -344v-152h-118v151l28 345h61zM114 373h-109v109h109v-109z" />
    <glyph glyph-name="cent" unicode="&#xa2;" 
d="M244 411l-8 1h-7q-123 0 -123 -167q0 -99 47 -145zM125 8q-125 52 -125 231q0 254 229 254q22 0 39 -3l51 174l53 -15l-51 -173q87 -35 109 -136l-101 -17q-9 40 -34 65l-92 -312q17 -4 28 -4q88 0 105 108l101 -15q-33 -176 -215 -176q-20 0 -44 4l-53 -177l-53 15z" />
    <glyph glyph-name="sterling" unicode="&#xa3;" 
d="M0 81q101 64 101 167q0 18 -5 44h-91v83h70l-4 12q-18 60 -18 97q0 87 58 141q58 53 152 53q178 0 204 -174l-101 -15q-16 105 -106 105q-43 0 -72 -28q-30 -29 -30 -70q0 -47 21 -110l3 -11h143v-82h-123l2 -25q0 -92 -75 -167q45 8 72 8q35 0 86 -12q49 -12 70 -12
q45 0 95 25l39 -90q-59 -31 -125 -31q-34 0 -76 12l-62 18q-33 9 -65 9q-63 0 -122 -39z" />
    <glyph glyph-name="currency" unicode="&#xa4;" horiz-adv-x="666" 
d="M173 477q-48 -48 -48 -115q0 -68 48 -116q47 -48 114 -48t114 48q48 48 48 115t-47 115q-48 48 -113 48q-68 0 -116 -47zM97 221q-48 64 -48 141q0 74 49 140l-98 98l47 46l97 -97q67 49 143 49q75 0 141 -47l96 95l46 -47l-95 -94q51 -67 51 -144q0 -74 -49 -140l96 -96
l-46 -46l-95 95q-68 -50 -145 -50q-75 0 -144 50l-96 -95l-46 46z" />
    <glyph glyph-name="yen" unicode="&#xa5;" horiz-adv-x="520" 
d="M497 393v-52h-149l-43 -72h192v-52h-192v-217h-86v217h-186v52h184l-41 72h-143v52h116l-149 273h96l166 -325l168 325h94l-150 -273h123z" />
    <glyph glyph-name="section" unicode="&#xa7;" 
d="M94 306q0 -31 21 -55q22 -24 87 -65q67 -42 98 -65q54 33 54 75q0 48 -121 126q-52 34 -84 59q-55 -31 -55 -75zM130 -18q18 -95 101 -95q85 0 85 68q0 25 -26 48q-24 22 -113 78l-27 18q-104 65 -130 115q-20 35 -20 75q0 97 94 136q-53 53 -53 109q0 62 49 103t124 41
q174 0 197 -156l-104 -11q-12 85 -85 85q-78 0 -78 -59q0 -40 92 -98l42 -26q60 -38 80 -52t40 -35q50 -48 50 -112q-1 -84 -93 -135q64 -53 64 -120q0 -68 -52 -111t-136 -43q-182 0 -204 164z" />
    <glyph glyph-name="dieresis" unicode="&#xa8;" horiz-adv-x="0" 
d="M181 674h97v-102h-97v102zM0 674h96v-101h-96v101z" />
    <glyph glyph-name="copyright" unicode="&#xa9;" horiz-adv-x="778" 
d="M538 296q-6 -76 -56 -122q-51 -46 -129 -46q-88 0 -142 58q-54 57 -54 150t55 151t144 58q71 0 122 -40q50 -40 55 -101h-61q-19 89 -117 89q-135 0 -135 -157q0 -156 134 -156q108 0 122 116h62zM137 544q-87 -87 -87 -211t87 -212t210 -88q122 0 209 88t86 212
q0 124 -86 211q-87 88 -209 88q-123 0 -210 -88zM593 578q102 -102 102 -245q0 -144 -102 -245t-246 -101q-143 0 -245 101q-102 102 -102 245t102 245t246 102q143 0 245 -102z" />
    <glyph glyph-name="ordfeminine" unicode="&#xaa;" horiz-adv-x="398" 
d="M207 528q-14 -8 -38 -11l-36 -3q-74 -7 -74 -54q0 -49 59 -49q89 0 89 97v20zM295 280h-294v39h294v-39zM215 379q-5 10 -6 20l-2 18q-46 -46 -101 -46q-106 0 -106 87q0 82 126 92l40 4q41 4 41 32q0 53 -66 53q-64 0 -72 -62h-54q8 103 128 103q121 0 121 -97l-1 -95
q0 -57 2 -74q2 -18 9 -35h-59z" />
    <glyph glyph-name="guillemotleft" unicode="&#xab;" 
d="M405 447l-119 -207l119 -208h-83l-143 208l143 207h83zM228 447l-119 -207l118 -208h-82l-145 208l145 207h83z" />
    <glyph glyph-name="logicalnot" unicode="&#xac;" horiz-adv-x="500" 
d="M421 209h-421v59h481v-268h-60v209z" />
    <glyph glyph-name="macron" unicode="&#xaf;" horiz-adv-x="0" 
 />
    <glyph glyph-name="degree" unicode="&#xb0;" horiz-adv-x="500" 
d="M82 602q-28 -28 -28 -68q0 -41 28 -69q28 -29 68 -29t69 29q28 28 28 69q0 40 -28 68q-29 29 -69 29t-68 -29zM257 637q44 -42 44 -103t-44 -104t-106 -43t-107 43q-44 43 -44 104q0 60 44 103q45 43 107 43t106 -43z" />
    <glyph glyph-name="plusminus" unicode="&#xb1;" horiz-adv-x="500" 
d="M481 128v-65h-481v65h481zM208 417v195h65v-194h208v-66h-207v-182h-65v182h-209v65h208z" />
    <glyph glyph-name="acute" unicode="&#xb4;" horiz-adv-x="0" 
d="M0 542l61 132h124l-112 -132h-73z" />
    <glyph glyph-name="mu" unicode="&#xb5;" horiz-adv-x="500" 
d="M0 483h78v-271q0 -85 40 -125q35 -35 83 -35q58 0 93 47q36 46 36 121v263h79v-483h-78v80q-46 -93 -130 -93q-78 0 -123 73v-228h-78v651z" />
    <glyph glyph-name="paragraph" unicode="&#xb6;" horiz-adv-x="565" 
d="M196 317q-4 -1 -8 -1h-6q-81 0 -131 48q-51 48 -51 125q0 126 108 162q47 16 114 16h231v-41h-48v-722h-53v722h-101v-722h-55v413z" />
    <glyph glyph-name="periodcentered" unicode="&#xb7;" horiz-adv-x="261" 
d="M0 381h109v-110h-109v110z" />
    <glyph glyph-name="cedilla" unicode="&#xb8;" horiz-adv-x="0" 
 />
    <glyph glyph-name="ordmasculine" unicode="&#xba;" horiz-adv-x="410" 
d="M58 526q0 -111 90 -111q89 0 89 110q0 111 -89 111q-90 0 -90 -110zM298 280h-294v39h294v-39zM255 637q40 -42 40 -112q0 -154 -147 -154q-67 0 -107 43q-41 42 -41 111q0 70 41 112q41 43 108 43q66 0 106 -43z" />
    <glyph glyph-name="guillemotright" unicode="&#xbb;" 
d="M0 32l119 207l-119 208h83l144 -208l-144 -207h-83zM178 32l118 206l-118 209h82l145 -208l-145 -207h-82z" />
    <glyph glyph-name="questiondown" unicode="&#xbf;" horiz-adv-x="572" 
d="M453 0q-24 -193 -225 -193q-97 0 -163 54q-65 53 -65 132q0 75 86 152l44 40q52 45 52 117l-1 13h96l1 -32q0 -96 -99 -181q-48 -40 -62 -59q-14 -20 -14 -48q0 -44 35 -75t86 -31q107 0 129 123zM280 373h-109v109h109v-109z" />
    <glyph glyph-name="Agrave" unicode="&#xc0;" horiz-adv-x="650" 
d="M420 269l-62 164q-32 89 -43 123q-17 -62 -36 -112l-64 -175h205zM0 0l258 666h117l270 -666h-122l-68 178h-272l-66 -178h-117zM342 733l-113 132h125l61 -132h-73z" />
    <glyph glyph-name="Aacute" unicode="&#xc1;" horiz-adv-x="650" 
d="M420 269l-62 164q-32 89 -43 123q-17 -62 -36 -112l-64 -175h205zM0 0l258 666h117l270 -666h-122l-68 178h-272l-66 -178h-117zM230 733l61 132h124l-112 -132h-73z" />
    <glyph glyph-name="Acircumflex" unicode="&#xc2;" horiz-adv-x="650" 
d="M420 269l-62 164q-32 89 -43 123q-17 -62 -36 -112l-64 -175h205zM0 0l258 666h117l270 -666h-122l-68 178h-272l-66 -178h-117zM273 733h-98l97 131h101l98 -131h-97l-51 73z" />
    <glyph glyph-name="Atilde" unicode="&#xc3;" horiz-adv-x="650" 
d="M420 269l-62 164q-32 89 -43 123q-17 -62 -36 -112l-64 -175h205zM0 0l258 666h117l270 -666h-122l-68 178h-272l-66 -178h-117zM168 733v9q0 100 88 100q28 0 79 -24q33 -15 46 -15q32 0 36 40h59q-2 -109 -86 -109q-25 0 -68 20q-43 21 -61 21q-33 0 -33 -39v-3h-60z
" />
    <glyph glyph-name="Adieresis" unicode="&#xc4;" horiz-adv-x="650" 
d="M420 269l-62 164q-32 89 -43 123q-17 -62 -36 -112l-64 -175h205zM0 0l258 666h117l270 -666h-122l-68 178h-272l-66 -178h-117zM365 835h97v-102h-97v102zM184 835h96v-101h-96v101z" />
    <glyph glyph-name="Aring" unicode="&#xc5;" horiz-adv-x="650" 
d="M420 269l-62 164q-32 89 -43 123q-17 -62 -36 -112l-64 -175h205zM0 0l258 666h117l270 -666h-122l-68 178h-272l-66 -178h-117zM269 790q0 -45 45 -45t45 45q0 46 -45 46t-45 -46zM374 851q25 -25 25 -61q0 -35 -25 -60t-60 -25t-60 25t-25 60q0 36 25 61t60 25t60 -25z
" />
    <glyph glyph-name="AE" unicode="&#xc6;" horiz-adv-x="931" 
d="M446 271v306h-59l-143 -306h202zM0 0l316 666h573v-94h-332v-178h308v-94h-308v-205h345v-95h-455v175h-246l-81 -175h-120z" />
    <glyph glyph-name="Ccedilla" unicode="&#xc7;" horiz-adv-x="669" 
d="M311 -25q3 0 6 1h5q89 0 89 -75q0 -92 -152 -92q-37 0 -69 7l2 53h5q38 -3 62 -3q71 0 71 38q-2 34 -60 34q-21 0 -33 -4l16 59q-119 19 -186 108q-67 88 -67 228q0 161 84 255t229 94q163 0 236 -123q17 -29 29 -72l-108 -26q-41 126 -162 126q-194 0 -194 -249
q0 -106 34 -165q50 -87 157 -87q137 0 172 157l109 -32q-59 -213 -267 -218h-2z" />
    <glyph glyph-name="Egrave" unicode="&#xc8;" horiz-adv-x="620" 
d="M0 666h488v-94h-377v-177h352v-94h-352v-206h392v-95h-503v666zM271 733l-113 132h125l61 -132h-73z" />
    <glyph glyph-name="Eacute" unicode="&#xc9;" horiz-adv-x="620" 
d="M0 666h488v-94h-377v-177h352v-94h-352v-206h392v-95h-503v666zM159 733l61 132h124l-112 -132h-73z" />
    <glyph glyph-name="Ecircumflex" unicode="&#xca;" horiz-adv-x="620" 
d="M0 666h488v-94h-377v-177h352v-94h-352v-206h392v-95h-503v666zM201 733h-98l97 131h101l98 -131h-97l-51 73z" />
    <glyph glyph-name="Edieresis" unicode="&#xcb;" horiz-adv-x="620" 
d="M0 666h488v-94h-377v-177h352v-94h-352v-206h392v-95h-503v666zM294 835h97v-102h-97v102zM113 835h96v-101h-96v101z" />
    <glyph glyph-name="Igrave" unicode="&#xcc;" horiz-adv-x="261" 
d="M39 666h110v-666h-110v666zM113 733l-113 132h125l61 -132h-73z" />
    <glyph glyph-name="Iacute" unicode="&#xcd;" horiz-adv-x="261" 
d="M38 666h110v-666h-110v666zM0 733l61 132h124l-112 -132h-73z" />
    <glyph glyph-name="Icircumflex" unicode="&#xce;" horiz-adv-x="261" 
d="M93 666h110v-666h-110v666zM98 733h-98l97 131h101l98 -131h-97l-51 73z" />
    <glyph glyph-name="Idieresis" unicode="&#xcf;" horiz-adv-x="261" 
d="M84 666h110v-666h-110v666zM181 835h97v-102h-97v102zM0 835h96v-101h-96v101z" />
    <glyph glyph-name="Ntilde" unicode="&#xd1;" horiz-adv-x="669" 
d="M0 666h109l296 -461l24 -41v6q-4 37 -4 74l-2 422h104v-666h-111l-316 486q-2 5 -4 8l4 -49l3 -445h-103v666zM109 733v9q0 100 88 100q28 0 79 -24q33 -15 46 -15q32 0 36 40h59q-2 -109 -86 -109q-25 0 -68 20q-43 21 -61 21q-33 0 -33 -39v-3h-60z" />
    <glyph glyph-name="Ograve" unicode="&#xd2;" horiz-adv-x="727" 
d="M170 150q55 -68 152 -68q95 0 151 68q56 67 56 181q0 252 -208 252q-97 0 -152 -66t-55 -183t56 -184zM88 585q88 93 234 93q145 0 233 -94q87 -94 87 -251q0 -158 -87 -251t-235 -93q-146 0 -233 94t-87 253q0 155 88 249zM341 745l-113 132h125l61 -132h-73z" />
    <glyph glyph-name="Oacute" unicode="&#xd3;" horiz-adv-x="727" 
d="M170 150q55 -68 152 -68q95 0 151 68q56 67 56 181q0 252 -208 252q-97 0 -152 -66t-55 -183t56 -184zM88 585q88 93 234 93q145 0 233 -94q87 -94 87 -251q0 -158 -87 -251t-235 -93q-146 0 -233 94t-87 253q0 155 88 249zM229 745l61 132h124l-112 -132h-73z" />
    <glyph glyph-name="Ocircumflex" unicode="&#xd4;" horiz-adv-x="727" 
d="M170 150q55 -68 152 -68q95 0 151 68q56 67 56 181q0 252 -208 252q-97 0 -152 -66t-55 -183t56 -184zM88 585q88 93 234 93q145 0 233 -94q87 -94 87 -251q0 -158 -87 -251t-235 -93q-146 0 -233 94t-87 253q0 155 88 249zM271 745h-98l97 131h101l98 -131h-97l-51 73z
" />
    <glyph glyph-name="Otilde" unicode="&#xd5;" horiz-adv-x="727" 
d="M170 150q55 -68 152 -68q95 0 151 68q56 67 56 181q0 252 -208 252q-97 0 -152 -66t-55 -183t56 -184zM88 585q88 93 234 93q145 0 233 -94q87 -94 87 -251q0 -158 -87 -251t-235 -93q-146 0 -233 94t-87 253q0 155 88 249zM167 745v9q0 100 88 100q28 0 79 -24
q33 -15 46 -15q32 0 36 40h59q-2 -109 -86 -109q-25 0 -68 20q-43 21 -61 21q-33 0 -33 -39v-3h-60z" />
    <glyph glyph-name="Odieresis" unicode="&#xd6;" horiz-adv-x="727" 
d="M170 150q55 -68 152 -68q95 0 151 68q56 67 56 181q0 252 -208 252q-97 0 -152 -66t-55 -183t56 -184zM88 585q88 93 234 93q145 0 233 -94q87 -94 87 -251q0 -158 -87 -251t-235 -93q-146 0 -233 94t-87 253q0 155 88 249zM364 847h97v-102h-97v102zM183 847h96v-101
h-96v101z" />
    <glyph glyph-name="Oslash" unicode="&#xd8;" horiz-adv-x="727" 
d="M197 128q60 -48 131 -48q96 0 153 67q56 68 56 184q0 78 -30 145zM464 535q-60 49 -133 49q-209 0 -209 -253q0 -80 31 -145zM79 103q-71 103 -71 228q0 159 87 253q88 94 236 94q116 0 202 -67l74 83l53 -46l-78 -88q68 -98 68 -226q0 -159 -87 -252t-236 -93
q-109 0 -198 63l-75 -83l-54 45z" />
    <glyph glyph-name="Ugrave" unicode="&#xd9;" horiz-adv-x="669" 
d="M110 666v-373q0 -106 21 -146q35 -63 133 -63q100 0 132 60q22 44 22 145v377h110v-368q0 -140 -35 -205q-24 -44 -71 -71q-61 -33 -157 -33q-172 0 -231 104q-34 60 -34 202v371h110zM284 733l-113 132h125l61 -132h-73z" />
    <glyph glyph-name="Uacute" unicode="&#xda;" horiz-adv-x="669" 
d="M110 666v-373q0 -106 21 -146q35 -63 133 -63q100 0 132 60q22 44 22 145v377h110v-368q0 -140 -35 -205q-24 -44 -71 -71q-61 -33 -157 -33q-172 0 -231 104q-34 60 -34 202v371h110zM171 733l61 132h124l-112 -132h-73z" />
    <glyph glyph-name="Ucircumflex" unicode="&#xdb;" horiz-adv-x="669" 
d="M110 666v-373q0 -106 21 -146q35 -63 133 -63q100 0 132 60q22 44 22 145v377h110v-368q0 -140 -35 -205q-24 -44 -71 -71q-61 -33 -157 -33q-172 0 -231 104q-34 60 -34 202v371h110zM214 733h-98l97 131h101l98 -131h-97l-51 73z" />
    <glyph glyph-name="Udieresis" unicode="&#xdc;" horiz-adv-x="669" 
d="M110 666v-373q0 -106 21 -146q35 -63 133 -63q100 0 132 60q22 44 22 145v377h110v-368q0 -140 -35 -205q-24 -44 -71 -71q-61 -33 -157 -33q-172 0 -231 104q-34 60 -34 202v371h110zM306 835h97v-102h-97v102zM125 835h96v-101h-96v101z" />
    <glyph glyph-name="germandbls" unicode="&#xdf;" horiz-adv-x="572" 
d="M0 444q0 102 28 151q46 83 169 83q79 0 127 -37q49 -37 49 -96q0 -45 -43 -119q-21 -36 -21 -57q0 -24 46 -61q85 -68 104 -106q13 -29 13 -60q0 -66 -47 -109t-118 -43q-112 0 -156 97l79 42q31 -57 72 -57q65 0 65 65q0 22 -15 40t-69 61q-82 63 -82 113q0 32 32 90
q36 65 36 92q0 62 -74 62q-52 0 -72 -33q-20 -34 -20 -120v-442h-103v444z" />
    <glyph glyph-name="agrave" unicode="&#xe0;" 
d="M319 237q-27 -10 -44 -14q-20 -5 -71 -13q-98 -17 -98 -74q0 -71 86 -71q77 0 111 58q16 27 16 82v32zM14 352q47 141 215 141q134 0 175 -71q18 -31 18 -112l-1 -173q0 -87 28 -137h-104q-13 28 -18 56q-72 -66 -162 -66q-165 0 -165 139q0 92 95 130q33 12 89 22
q98 15 135 29v11q0 91 -94 91q-93 0 -114 -78zM244 560l-113 132h125l61 -132h-73z" />
    <glyph glyph-name="aacute" unicode="&#xe1;" 
d="M319 237q-27 -10 -44 -14q-20 -5 -71 -13q-98 -17 -98 -74q0 -71 86 -71q77 0 111 58q16 27 16 82v32zM14 352q47 141 215 141q134 0 175 -71q18 -31 18 -112l-1 -173q0 -87 28 -137h-104q-13 28 -18 56q-72 -66 -162 -66q-165 0 -165 139q0 92 95 130q33 12 89 22
q98 15 135 29v11q0 91 -94 91q-93 0 -114 -78zM132 560l61 132h124l-112 -132h-73z" />
    <glyph glyph-name="acircumflex" unicode="&#xe2;" 
d="M319 237q-27 -10 -44 -14q-20 -5 -71 -13q-98 -17 -98 -74q0 -71 86 -71q77 0 111 58q16 27 16 82v32zM14 352q47 141 215 141q134 0 175 -71q18 -31 18 -112l-1 -173q0 -87 28 -137h-104q-13 28 -18 56q-72 -66 -162 -66q-165 0 -165 139q0 92 95 130q33 12 89 22
q98 15 135 29v11q0 91 -94 91q-93 0 -114 -78zM174 560h-98l97 131h101l98 -131h-97l-51 73z" />
    <glyph glyph-name="atilde" unicode="&#xe3;" 
d="M319 237q-27 -10 -44 -14q-20 -5 -71 -13q-98 -17 -98 -74q0 -71 86 -71q77 0 111 58q16 27 16 82v32zM14 352q47 141 215 141q134 0 175 -71q18 -31 18 -112l-1 -173q0 -87 28 -137h-104q-13 28 -18 56q-72 -66 -162 -66q-165 0 -165 139q0 92 95 130q33 12 89 22
q98 15 135 29v11q0 91 -94 91q-93 0 -114 -78zM70 560v9q0 100 88 100q28 0 79 -24q33 -15 46 -15q32 0 36 40h59q-2 -109 -86 -109q-25 0 -68 20q-43 21 -61 21q-33 0 -33 -39v-3h-60z" />
    <glyph glyph-name="adieresis" unicode="&#xe4;" 
d="M319 237q-27 -10 -44 -14q-20 -5 -71 -13q-98 -17 -98 -74q0 -71 86 -71q77 0 111 58q16 27 16 82v32zM14 352q47 141 215 141q134 0 175 -71q18 -31 18 -112l-1 -173q0 -87 28 -137h-104q-13 28 -18 56q-72 -66 -162 -66q-165 0 -165 139q0 92 95 130q33 12 89 22
q98 15 135 29v11q0 91 -94 91q-93 0 -114 -78zM267 662h97v-102h-97v102zM86 662h96v-101h-96v101z" />
    <glyph glyph-name="aring" unicode="&#xe5;" 
d="M319 237q-27 -10 -44 -14q-20 -5 -71 -13q-98 -17 -98 -74q0 -71 86 -71q77 0 111 58q16 27 16 82v32zM14 352q47 141 215 141q134 0 175 -71q18 -31 18 -112l-1 -173q0 -87 28 -137h-104q-13 28 -18 56q-72 -66 -162 -66q-165 0 -165 139q0 92 95 130q33 12 89 22
q98 15 135 29v11q0 91 -94 91q-93 0 -114 -78zM179 645q0 -45 45 -45t45 45q0 46 -45 46t-45 -46zM284 706q25 -25 25 -61q0 -35 -25 -60t-60 -25t-60 25t-25 60q0 36 25 61t60 25t60 -25z" />
    <glyph glyph-name="ae" unicode="&#xe6;" horiz-adv-x="824" 
d="M648 285q-12 127 -116 127q-107 0 -115 -127h231zM314 236q-34 -12 -111 -27q-97 -18 -97 -74q0 -70 83 -70q74 0 107 56q18 32 18 99v16zM416 212q0 -142 120 -142q81 0 108 86l104 -16q-47 -150 -213 -150q-106 0 -176 78q-83 -78 -195 -78q-164 0 -164 139
q0 71 53 108q37 28 120 42l61 10q42 7 79 19v16q0 88 -88 88q-96 0 -115 -78l-97 16q38 143 209 143q116 0 164 -55q58 55 145 55q102 0 162 -71q59 -70 59 -191v-8q0 -5 -1 -11h-335z" />
    <glyph glyph-name="ccedilla" unicode="&#xe7;" horiz-adv-x="494" 
d="M240 -25q3 0 6 1h5q88 0 88 -75q0 -92 -152 -92q-38 0 -68 7l2 53h5q36 -3 62 -3q70 0 70 38q0 34 -60 34q-20 0 -33 -4l17 59q-182 28 -182 246q0 119 61 187q60 67 167 67q169 0 203 -153l-102 -17q-18 88 -100 88q-122 0 -122 -166q0 -172 120 -172q93 0 109 107
l102 -15q-29 -159 -192 -175z" />
    <glyph glyph-name="egrave" unicode="&#xe8;" 
d="M343 285q-8 127 -116 127q-103 0 -118 -127h234zM107 213q5 -144 126 -144q77 0 106 85l105 -15q-44 -149 -213 -149q-108 0 -169 66q-62 65 -62 182q0 116 61 186q61 69 162 69q106 0 166 -69q60 -70 60 -192q-1 -3 -1 -8v-11h-341zM244 560l-113 132h125l61 -132h-73z
" />
    <glyph glyph-name="eacute" unicode="&#xe9;" 
d="M343 285q-8 127 -116 127q-103 0 -118 -127h234zM107 213q5 -144 126 -144q77 0 106 85l105 -15q-44 -149 -213 -149q-108 0 -169 66q-62 65 -62 182q0 116 61 186q61 69 162 69q106 0 166 -69q60 -70 60 -192q-1 -3 -1 -8v-11h-341zM132 560l61 132h124l-112 -132h-73z
" />
    <glyph glyph-name="ecircumflex" unicode="&#xea;" 
d="M343 285q-8 127 -116 127q-103 0 -118 -127h234zM107 213q5 -144 126 -144q77 0 106 85l105 -15q-44 -149 -213 -149q-108 0 -169 66q-62 65 -62 182q0 116 61 186q61 69 162 69q106 0 166 -69q60 -70 60 -192q-1 -3 -1 -8v-11h-341zM174 560h-98l97 131h101l98 -131h-97
l-51 73z" />
    <glyph glyph-name="edieresis" unicode="&#xeb;" 
d="M343 285q-8 127 -116 127q-103 0 -118 -127h234zM107 213q5 -144 126 -144q77 0 106 85l105 -15q-44 -149 -213 -149q-108 0 -169 66q-62 65 -62 182q0 116 61 186q61 69 162 69q106 0 166 -69q60 -70 60 -192q-1 -3 -1 -8v-11h-341zM267 662h97v-102h-97v102zM86 662h96
v-101h-96v101z" />
    <glyph glyph-name="igrave" unicode="&#xec;" horiz-adv-x="261" 
d="M42 482h103v-482h-103v482zM113 549l-113 132h125l61 -132h-73z" />
    <glyph glyph-name="iacute" unicode="&#xed;" horiz-adv-x="261" 
d="M41 482h103v-482h-103v482zM0 549l61 132h124l-112 -132h-73z" />
    <glyph glyph-name="icircumflex" unicode="&#xee;" horiz-adv-x="261" 
d="M97 482h103v-482h-103v482zM98 549h-98l97 131h101l98 -131h-97l-51 73z" />
    <glyph glyph-name="idieresis" unicode="&#xef;" horiz-adv-x="261" 
d="M87 482h103v-482h-103v482zM181 651h97v-102h-97v102zM0 651h96v-101h-96v101z" />
    <glyph glyph-name="ntilde" unicode="&#xf1;" horiz-adv-x="543" 
d="M0 482h95v-69q56 80 158 80q100 0 139 -69q16 -30 20 -50q3 -21 3 -93v-281h-103v271q0 139 -92 139q-68 0 -97 -54q-20 -37 -20 -114v-242h-103v482zM53 560v9q0 100 88 100q28 0 79 -24q33 -15 46 -15q32 0 36 40h59q-2 -109 -86 -109q-25 0 -68 20q-43 21 -61 21
q-33 0 -33 -39v-3h-60z" />
    <glyph glyph-name="ograve" unicode="&#xf2;" horiz-adv-x="543" 
d="M237 73q59 0 95 46q36 45 36 120q0 170 -131 170t-131 -168t131 -168zM65 423q64 70 172 70q106 0 172 -69q65 -69 65 -182t-66 -183q-65 -69 -171 -69q-107 0 -172 67t-65 178q0 118 65 188zM257 560l-113 132h125l61 -132h-73z" />
    <glyph glyph-name="oacute" unicode="&#xf3;" horiz-adv-x="543" 
d="M237 73q59 0 95 46q36 45 36 120q0 170 -131 170t-131 -168t131 -168zM65 423q64 70 172 70q106 0 172 -69q65 -69 65 -182t-66 -183q-65 -69 -171 -69q-107 0 -172 67t-65 178q0 118 65 188zM145 560l61 132h124l-112 -132h-73z" />
    <glyph glyph-name="ocircumflex" unicode="&#xf4;" horiz-adv-x="543" 
d="M237 73q59 0 95 46q36 45 36 120q0 170 -131 170t-131 -168t131 -168zM65 423q64 70 172 70q106 0 172 -69q65 -69 65 -182t-66 -183q-65 -69 -171 -69q-107 0 -172 67t-65 178q0 118 65 188zM187 560h-98l97 131h101l98 -131h-97l-51 73z" />
    <glyph glyph-name="otilde" unicode="&#xf5;" horiz-adv-x="543" 
d="M237 73q59 0 95 46q36 45 36 120q0 170 -131 170t-131 -168t131 -168zM65 423q64 70 172 70q106 0 172 -69q65 -69 65 -182t-66 -183q-65 -69 -171 -69q-107 0 -172 67t-65 178q0 118 65 188zM83 560v9q0 100 88 100q28 0 79 -24q33 -15 46 -15q32 0 36 40h59
q-2 -109 -86 -109q-25 0 -68 20q-43 21 -61 21q-33 0 -33 -39v-3h-60z" />
    <glyph glyph-name="odieresis" unicode="&#xf6;" horiz-adv-x="543" 
d="M237 73q59 0 95 46q36 45 36 120q0 170 -131 170t-131 -168t131 -168zM65 423q64 70 172 70q106 0 172 -69q65 -69 65 -182t-66 -183q-65 -69 -171 -69q-107 0 -172 67t-65 178q0 118 65 188zM279 662h97v-102h-97v102zM98 662h96v-101h-96v101z" />
    <glyph glyph-name="divide" unicode="&#xf7;" horiz-adv-x="500" 
d="M481 374v-65h-481v65h481zM294 153q0 -53 -54 -53q-53 0 -53 53q0 54 53 54q54 0 54 -54zM294 528q0 -53 -54 -53q-53 0 -53 53q0 54 53 54q54 0 54 -54z" />
    <glyph glyph-name="oslash" unicode="&#xf8;" horiz-adv-x="572" 
d="M161 96q32 -25 74 -25q135 0 135 172q0 47 -17 91zM316 383q-38 29 -78 29q-61 0 -97 -46q-37 -46 -37 -123q0 -56 19 -99zM420 511l48 -37l-49 -60q55 -72 55 -174q0 -112 -66 -181t-172 -69q-75 0 -133 36l-50 -60l-46 36l51 63q-58 69 -58 174q0 115 65 184
q65 70 172 70q72 0 137 -39z" />
    <glyph glyph-name="ugrave" unicode="&#xf9;" horiz-adv-x="543" 
d="M320 0l-1 71q-55 -81 -157 -81q-100 0 -139 67q-23 42 -23 123v302h104v-273q0 -137 91 -137q68 0 97 53q19 35 19 124v233h103v-482h-94zM227 549l-113 132h125l61 -132h-73z" />
    <glyph glyph-name="uacute" unicode="&#xfa;" horiz-adv-x="543" 
d="M320 0l-1 71q-55 -81 -157 -81q-100 0 -139 67q-23 42 -23 123v302h104v-273q0 -137 91 -137q68 0 97 53q19 35 19 124v233h103v-482h-94zM115 549l61 132h124l-112 -132h-73z" />
    <glyph glyph-name="ucircumflex" unicode="&#xfb;" horiz-adv-x="543" 
d="M320 0l-1 71q-55 -81 -157 -81q-100 0 -139 67q-23 42 -23 123v302h104v-273q0 -137 91 -137q68 0 97 53q19 35 19 124v233h103v-482h-94zM157 549h-98l97 131h101l98 -131h-97l-51 73z" />
    <glyph glyph-name="udieresis" unicode="&#xfc;" horiz-adv-x="543" 
d="M320 0l-1 71q-55 -81 -157 -81q-100 0 -139 67q-23 42 -23 123v302h104v-273q0 -137 91 -137q68 0 97 53q19 35 19 124v233h103v-482h-94zM249 651h97v-102h-97v102zM68 651h96v-101h-96v101z" />
    <glyph glyph-name="ydieresis" unicode="&#xff;" horiz-adv-x="494" 
d="M110 482l126 -360l126 360h105l-195 -528q-29 -78 -57 -108q-38 -41 -104 -41q-35 0 -66 8h-2l-11 88q28 -7 52 -7q64 0 97 99l2 6l-183 483h110zM276 651h97v-102h-97v102zM95 651h96v-101h-96v101z" />
    <glyph glyph-name="dotlessi" unicode="&#x131;" horiz-adv-x="261" 
d="M0 482h103v-482h-103v482z" />
    <glyph glyph-name="OE" unicode="&#x152;" horiz-adv-x="931" 
d="M276 588q-162 0 -162 -254t161 -252q162 0 162 260q0 246 -161 246zM842 666v-94h-297v-177l273 -1v-94h-273v-206h311v-94h-409v87q-58 -98 -178 -98q-149 0 -217 120q-52 91 -52 223q0 161 70 254q70 92 192 92q123 0 184 -94v82h396z" />
    <glyph glyph-name="oe" unicode="&#x153;" horiz-adv-x="882" 
d="M701 285q-11 128 -116 128q-106 0 -117 -128h233zM106 238q0 -73 36 -119q35 -45 93 -45t93 46t35 121q0 167 -129 167q-128 0 -128 -170zM466 212v-10q0 -132 123 -132q81 0 107 86l102 -16q-49 -150 -207 -150q-112 0 -180 78q-67 -78 -179 -78q-104 0 -168 69t-64 182
q0 114 64 183t170 69q116 0 177 -80q60 80 170 80q104 0 163 -72q60 -72 60 -196v-13h-338z" />
    <glyph glyph-name="Ydieresis" unicode="&#x178;" horiz-adv-x="620" 
d="M617 666l-256 -385v-281h-110v281l-251 385h131l180 -289l179 289h127zM351 835h97v-102h-97v102zM170 835h96v-101h-96v101z" />
    <glyph glyph-name="florin" unicode="&#x192;" horiz-adv-x="520" 
d="M392 373h-104l-63 -337q-17 -97 -50 -137q-37 -46 -121 -46q-30 0 -54 4l11 64q29 -3 36 -3q43 0 63 28q18 28 35 115l57 312h-93l10 52h92l19 102q16 88 47 122q42 46 122 46q28 0 63 -5l-12 -64l-26 3h-19q-72 0 -91 -104l-17 -100h104z" />
    <glyph glyph-name="circumflex" unicode="&#x2c6;" horiz-adv-x="0" 
d="M98 543h-98l97 131h101l98 -131h-97l-51 73z" />
    <glyph glyph-name="caron" unicode="&#x2c7;" horiz-adv-x="0" 
d="M198 674h98l-99 -131h-101l-96 131h98l49 -73z" />
    <glyph glyph-name="breve" unicode="&#x2d8;" horiz-adv-x="0" 
d="M275 671q-13 -125 -137 -125q-125 0 -138 125h59q9 -63 78 -63t79 63h59z" />
    <glyph glyph-name="dotaccent" unicode="&#x2d9;" horiz-adv-x="0" 
 />
    <glyph glyph-name="ring" unicode="&#x2da;" horiz-adv-x="0" 
d="M40 608q0 -45 45 -45t45 45q0 46 -45 46t-45 -46zM145 669q25 -25 25 -61q0 -35 -25 -60t-60 -25t-60 25t-25 60q0 36 25 61t60 25t60 -25z" />
    <glyph glyph-name="ogonek" unicode="&#x2db;" horiz-adv-x="0" 
 />
    <glyph glyph-name="tilde" unicode="&#x2dc;" horiz-adv-x="0" 
d="M0 551v9q0 100 88 100q28 0 79 -24q33 -15 46 -15q32 0 36 40h59q-2 -109 -86 -109q-25 0 -68 20q-43 21 -61 21q-33 0 -33 -39v-3h-60z" />
    <glyph glyph-name="hungarumlaut" unicode="&#x2dd;" horiz-adv-x="0" 
 />
    <glyph glyph-name="uni0394" unicode="&#x394;" horiz-adv-x="666" 
d="M557 60l-231 536l-227 -536h458zM0 0l281 666h90l287 -666h-658z" />
    <glyph glyph-name="uni03A9" unicode="&#x3a9;" horiz-adv-x="666" 
d="M0 72h184q-176 102 -176 290q0 137 91 229t226 92t226 -92t91 -229q0 -187 -176 -290h184v-72h-275v68q83 46 125 104q56 78 56 182q0 109 -66 182q-66 74 -164 74q-101 0 -167 -72q-65 -72 -65 -184q0 -188 181 -286v-68h-275v72z" />
    <glyph glyph-name="pi" unicode="&#x3c0;" horiz-adv-x="595" 
d="M67 442h-67v65h516v-64h-66v-443h-79v442h-225v-442h-79v442z" />
    <glyph glyph-name="endash" unicode="&#x2013;" horiz-adv-x="500" 
d="M481 374v-65h-481v65h481z" />
    <glyph glyph-name="emdash" unicode="&#x2014;" horiz-adv-x="931" 
d="M942 274v-84h-942v84h942z" />
    <glyph glyph-name="quoteleft" unicode="&#x2018;" horiz-adv-x="232" 
d="M106 430h-106v82q0 126 93 163l22 -41q-59 -25 -60 -94h51v-110z" />
    <glyph glyph-name="quoteright" unicode="&#x2019;" horiz-adv-x="232" 
d="M8 675h107v-82q0 -125 -93 -164l-22 42q59 25 60 94h-52v110z" />
    <glyph glyph-name="quotedblleft" unicode="&#x201c;" horiz-adv-x="388" 
d="M282 430h-106v82q-1 125 92 163l23 -41q-58 -24 -61 -94h52v-110zM107 430h-106v103q-1 105 92 142l22 -41q-58 -25 -60 -94h52v-110z" />
    <glyph glyph-name="quotedblright" unicode="&#x201d;" horiz-adv-x="388" 
d="M185 670h106v-82q0 -125 -93 -164l-22 42q59 24 60 93h-51v111zM9 670h107v-82q0 -126 -93 -164l-23 42q58 23 61 93h-52v111z" />
    <glyph glyph-name="quotedblbase" unicode="&#x201e;" horiz-adv-x="388" 
d="M184 110h107v-82q0 -123 -93 -163l-22 42q59 23 60 93h-52v110zM9 110h106v-82q0 -124 -93 -163l-22 42q59 23 60 93h-51v110z" />
    <glyph glyph-name="dagger" unicode="&#x2020;" 
d="M174 386h-174v88h174v180h99v-180h175v-88h-174v-544h-100v544z" />
    <glyph glyph-name="daggerdbl" unicode="&#x2021;" 
d="M175 2h-175v88h175v315h-175v89h175v164h99v-163h175v-89h-174v-315h174v-88h-174v-161h-100v160z" />
    <glyph glyph-name="bullet" unicode="&#x2022;" horiz-adv-x="340" 
d="M143 397q24 -24 24 -59t-24 -59q-25 -25 -60 -25q-34 0 -59 25q-24 24 -24 59t24 59q25 25 59 25q35 0 60 -25z" />
    <glyph glyph-name="ellipsis" unicode="&#x2026;" horiz-adv-x="931" 
d="M621 109h109v-109h-109v109zM310 109h110v-109h-110v109zM0 109h109v-109h-109v109z" />
    <glyph glyph-name="perthousand" unicode="&#x2030;" horiz-adv-x="0" 
 />
    <glyph glyph-name="guilsinglleft" unicode="&#x2039;" horiz-adv-x="339" 
d="M227 447l-119 -207l119 -208h-83l-144 208l144 207h83z" />
    <glyph glyph-name="guilsinglright" unicode="&#x203a;" horiz-adv-x="339" 
d="M0 32l119 207l-119 208h83l143 -208l-143 -207h-83z" />
    <glyph glyph-name="fraction" unicode="&#x2044;" horiz-adv-x="178" 
d="M444 657l-390 -657h-54l391 657h53z" />
    <glyph glyph-name="trademark" unicode="&#x2122;" horiz-adv-x="855" 
d="M325 614h-130v-347h-63v347h-132v52h325v-52zM795 267h-56v340l-138 -341h-36l-134 341v-340h-58v399h91l118 -290l124 290h89v-399z" />
    <glyph glyph-name="partialdiff" unicode="&#x2202;" horiz-adv-x="500" 
d="M115 326q-45 -47 -45 -114q0 -66 44 -113q45 -48 107 -48q64 0 107 47q44 48 44 116q0 69 -42 114t-106 45t-109 -47zM339 457q-35 73 -81 107q-79 58 -185 69l16 43q58 -5 97 -19q91 -33 157 -108q57 -68 84 -162q16 -54 16 -122q0 -127 -61 -201q-60 -75 -163 -75
q-92 0 -155 65q-64 65 -64 159q0 92 64 157q63 66 153 66q76 0 147 -64q-6 46 -25 85z" />
    <glyph glyph-name="product" unicode="&#x220f;" horiz-adv-x="666" 
d="M668 750v-53h-91v-893h90v-54h-252v53h93v893h-349v-892h92v-54h-251v53h91v893h-91v54h668z" />
    <glyph glyph-name="radical" unicode="&#x221a;" horiz-adv-x="666" 
d="M608 735h-142l-287 -749l-108 318h-71v53h114l68 -221l238 652h188v-53z" />
    <glyph glyph-name="infinity" unicode="&#x221e;" horiz-adv-x="666" 
d="M152 429q-90 0 -90 -93t88 -93q69 0 145 93q-75 93 -143 93zM519 243q89 0 89 91q0 95 -91 95q-66 0 -142 -93q74 -93 144 -93zM516 492q69 0 112 -42q43 -43 43 -112q0 -70 -43 -115q-42 -44 -109 -44q-97 0 -184 108q-86 -108 -182 -108q-67 0 -110 44t-43 113
q0 68 43 112q44 44 111 44q96 0 181 -107q81 107 181 107z" />
    <glyph glyph-name="integral" unicode="&#x222b;" horiz-adv-x="500" 
d="M292 606q-1 7 -1 12v8q0 86 -39 86q-26 0 -33 -17q-8 -17 -8 -75v-732q0 -138 -103 -138q-104 0 -108 156h61v-22q0 -96 45 -96q28 0 34 21q7 19 7 98v643q0 106 12 137q22 63 89 63q91 0 101 -130l1 -14h-58z" />
    <glyph glyph-name="approxequal" unicode="&#x2248;" horiz-adv-x="500" 
d="M487 303q-66 -116 -133 -116q-29 0 -113 38q-56 25 -74 31q-16 6 -31 6q-48 0 -98 -90l-38 39q67 115 133 115q33 0 125 -41q46 -21 65 -27q18 -7 29 -7q48 0 96 90zM487 480q-66 -116 -133 -116q-29 0 -113 38q-57 25 -75 32q-15 5 -30 5q-48 0 -98 -89l-38 38
q67 115 133 115q33 0 125 -41q46 -21 65 -27q18 -7 29 -7q47 0 96 90z" />
    <glyph glyph-name="notequal" unicode="&#x2260;" horiz-adv-x="500" 
d="M328 571l59 -24l-49 -98h149v-63h-180l-53 -105h233v-63h-264l-67 -134l-58 24l54 110h-152v63h184l52 104h-235v64h266z" />
    <glyph glyph-name="lessequal" unicode="&#x2264;" horiz-adv-x="500" 
d="M481 30h-481v75h481v-75zM481 540l-397 -172l397 -168v-70l-481 202v71l481 207v-70z" />
    <glyph glyph-name="greaterequal" unicode="&#x2265;" horiz-adv-x="500" 
d="M481 30h-481v75h481v-75zM0 200l397 172l-397 168v70l481 -202v-71l-481 -208v71z" />
    <glyph glyph-name="lozenge" unicode="&#x25ca;" horiz-adv-x="666" 
d="M251 586l-175 -252l175 -251l178 251zM251 681l253 -347l-253 -349l-251 349z" />
    <glyph glyph-name="uniF8FF" unicode="&#xf8ff;" horiz-adv-x="782" 
d="M510 317q0 -107 100 -149q-80 -194 -169 -194q-20 0 -41 9l-41 17q-4 1 -12 1q-9 1 -20 1q-16 0 -32 -1q-15 -1 -20 -3l-43 -17q-19 -9 -38 -9q-57 0 -110 81q-84 124 -84 253q0 97 52 158t135 61q34 0 77 -17q34 -13 47 -13q14 0 44 10q58 22 91 22q93 0 145 -71
q-81 -61 -81 -139zM448 681q0 -66 -44 -114q-45 -49 -105 -49q3 154 149 173v-10z" />
    <glyph glyph-name="uniFB01" unicode="&#xfb01;" 
d="M269 482v-80h-94l-1 -402h-103v402h-71v80h71v43q0 73 24 105q36 48 115 48q48 0 93 -14l-15 -78q-25 5 -54 5q-60 0 -60 -76v-33h95zM331 666h103v-105h-103v105zM331 482h103v-482h-103v482z" />
    <glyph glyph-name="uniFB02" unicode="&#xfb02;" 
d="M269 482v-80h-94v-402h-104v402h-71v80h71v43q0 73 24 105q36 48 115 48q48 0 93 -14l-15 -78q-25 5 -53 5q-61 0 -61 -76v-33h95zM330 666h104v-666h-104v666z" />
    <glyph glyph-name="glyph180" horiz-adv-x="500" 
d="M153 577h44q50 0 50 29q0 30 -46 30h-48v-59zM208 666q76 0 76 -57q0 -22 -21 -42v-9l9 -11q7 -9 10 -42l2 -22q1 -5 5 -17h-37q-5 10 -7 33q-2 48 -48 48h-43v-81h-39v200h93zM84 677q-47 -46 -47 -113q0 -66 47 -113t114 -47q66 0 113 47t47 113q0 67 -47 113
q-47 47 -113 47q-67 0 -114 -47zM337 702q58 -57 58 -138q0 -80 -58 -138q-58 -57 -139 -57q-82 0 -140 57q-58 58 -58 138q0 81 58 139q58 57 140 57q82 -1 139 -58z" />
    <glyph glyph-name="glyph190" horiz-adv-x="666" 
d="M579 524h-57l-8 172h-430l255 -425l-258 -467h444l5 173h58v-227h-588v58l260 465l-260 420v57h579v-226z" />
    <glyph glyph-name="glyph207" horiz-adv-x="261" 
d="M8 109h110v-92q0 -117 -94 -156l-24 43q59 25 62 96h-54v109z" />
    </font>
</defs>
</svg>
