<?xml version="1.0" standalone="no"?>
<!DOCTYPE svg PUBLIC "-//W3C//DTD SVG 1.1//EN" "http://www.w3.org/Graphics/SVG/1.1/DTD/svg11.dtd" >
<svg xmlns="http://www.w3.org/2000/svg" xmlns:xlink="http://www.w3.org/1999/xlink" version="1.1">
<metadata>
Created by FontForge 20170731 at Mon Dec 26 13:13:29 2005
 By Aleksey,,,
Copyright (C) 1993 Monotype Corporation. \All Rights Reserved. Arial is a registered trademark of the \Monotype Corporation.  This product is licensed, not sold, \and may only be used in accordance with the terms specified in the\License Agreement.
</metadata>
<defs>
<font id="ArialCE-Italic" horiz-adv-x="556" >
  <font-face 
    font-family="Arial CE"
    font-weight="500"
    font-style="italic"
    font-stretch="normal"
    units-per-em="1000"
    panose-1="0 0 0 0 0 0 0 0 0 0"
    ascent="800"
    descent="-200"
    x-height="518"
    cap-height="716"
    bbox="-261 -223 1059 916"
    underline-thickness="50"
    underline-position="-175"
    slope="-12"
    unicode-range="U+0020-00FF"
  />
<missing-glyph horiz-adv-x="278" 
 />
    <glyph glyph-name=".notdef" horiz-adv-x="278" 
 />
    <glyph glyph-name=".notdef" horiz-adv-x="278" 
 />
    <glyph glyph-name=".null" horiz-adv-x="0" 
 />
    <glyph glyph-name="nonmarkingreturn" horiz-adv-x="333" 
 />
    <glyph glyph-name="space" unicode=" " horiz-adv-x="278" 
 />
    <glyph glyph-name="exclam" unicode="!" horiz-adv-x="278" 
d="M55 0l21 100h100l-21 -100h-100zM111 181l54 388l30 147h108l-33 -159l-104 -376h-55z" />
    <glyph glyph-name="quotedbl" unicode="&#x22;" horiz-adv-x="355" 
d="M131 462l5 137l24 117h101l-25 -117l-51 -137h-54zM293 462l5 137l25 117h100l-25 -117l-53 -137h-52z" />
    <glyph glyph-name="numbersign" unicode="#" 
d="M94 -12l42 209h-82v71h97l36 179h-133v71h148l43 210h73l-43 -210h154l43 210h73l-42 -210h84v-71h-99l-36 -179h135v-71h-150l-42 -209h-74l42 209h-153l-43 -209h-73zM224 268h154l36 179h-153z" />
    <glyph glyph-name="dollar" unicode="$" 
d="M223 -6q-160 32 -170 213l89 6q9 -115 97 -146l56 270q-48 21 -66 33q-93 61 -93 160q0 79 64 137q66 59 160 59h16l8 38h49l-9 -45q134 -32 150 -176l-84 -4q-13 83 -82 108l-51 -246q87 -36 127 -78q46 -49 46 -117q0 -92 -68 -155q-75 -70 -191 -63l-18 -84h-48z
M362 655q-60 1 -98 -33q-39 -34 -39 -87q0 -43 25 -71q19 -23 63 -44zM294 58q61 0 104 42q43 41 43 97q0 47 -31 78q-22 22 -70 43l-54 -260h8z" />
    <glyph glyph-name="percent" unicode="%" horiz-adv-x="889" 
d="M224 -26h-81l590 754h80zM544 186q10 40 25 71q49 96 147 96q138 0 138 -138q0 -111 -56 -180q-48 -61 -131 -61q-131 0 -131 151q0 25 8 61zM668 35q52 0 83 67q26 56 26 123t-60 67q-48 0 -79 -62q-27 -54 -27 -119q0 -76 57 -76zM133 634q48 94 146 94q139 0 139 -136
q0 -110 -57 -180q-50 -63 -130 -63q-132 0 -132 153q0 64 34 132zM231 410q52 0 84 68q26 56 26 122q0 67 -61 67q-48 0 -79 -63q-27 -54 -27 -119q0 -75 57 -75z" />
    <glyph glyph-name="ampersand" unicode="&#x26;" horiz-adv-x="667" 
d="M577 -17q-48 41 -81 87q-26 -21 -43 -33q-24 -17 -46 -27q-51 -25 -112 -25q-96 0 -156 56t-60 147q0 81 49 138q44 53 138 95l-28 65q-11 33 -11 68q0 69 51 120q53 54 131 54q68 0 111 -41q42 -40 42 -97q0 -58 -47 -107q-42 -44 -132 -89q31 -57 66 -110
q30 -45 57 -80q23 28 42 57q7 11 14 24l12 21l77 -39q-32 -68 -89 -133q49 -61 82 -98zM302 352q-66 -31 -96 -61q-38 -40 -38 -95q0 -56 39 -94q37 -38 92 -38q71 0 145 74q-98 129 -142 214zM473 589q0 68 -67 68q-35 0 -60 -28t-25 -66q0 -49 29 -103q123 62 123 129z
" />
    <glyph glyph-name="quotesingle" unicode="'" horiz-adv-x="191" 
d="M129 462l6 134l26 120h100l-26 -120l-51 -134h-55z" />
    <glyph glyph-name="parenleft" unicode="(" horiz-adv-x="333" 
d="M161 -210q-78 171 -78 345q0 98 22 185q19 80 58 155q32 65 83 133q21 29 48 61q21 26 50 59h68q-112 -121 -184 -302q-56 -139 -56 -303q0 -77 13 -158q14 -88 42 -175h-66z" />
    <glyph glyph-name="parenright" unicode=")" horiz-adv-x="333" 
d="M198 728q76 -166 76 -346q0 -98 -21 -185q-20 -80 -57 -155q-33 -64 -83 -132q-22 -29 -48 -61q-21 -26 -50 -59h-69q139 150 204 357q38 124 38 248q0 77 -13 159q-15 87 -43 174h66z" />
    <glyph glyph-name="asterisk" unicode="*" horiz-adv-x="389" 
d="M154 464q27 34 52 62q21 24 29 31l-53 10q-36 8 -67 16l22 70q70 -23 113 -47q-5 39 -7 61q-3 34 -3 61h71q-1 -33 -4 -66l-7 -55q44 23 115 47l23 -69q-63 -21 -122 -28q13 -12 34 -34q25 -27 51 -58l-59 -42q-19 26 -39 57l-28 48l-13 -24q-7 -15 -14 -25
q-17 -32 -36 -56z" />
    <glyph glyph-name="plus" unicode="+" horiz-adv-x="584" 
d="M292 116v197h-195v81h195v195h83v-195h195v-81h-195v-197h-83z" />
    <glyph glyph-name="comma" unicode="," horiz-adv-x="278" 
d="M52 0l21 100h101l-18 -87q-30 -144 -134 -158l8 39q57 16 77 106h-55z" />
    <glyph glyph-name="hyphen" unicode="-" horiz-adv-x="333" 
d="M46 215l18 88h270l-18 -88h-270z" />
    <glyph glyph-name="period" unicode="." horiz-adv-x="278" 
d="M56 0l21 100h100l-21 -100h-100z" />
    <glyph glyph-name="slash" unicode="/" horiz-adv-x="278" 
d="M41 -12l207 740h71l-207 -740h-71z" />
    <glyph glyph-name="zero" unicode="0" 
d="M104 432q85 287 272 287q84 0 136 -60q56 -64 56 -179q0 -190 -80 -334q-42 -73 -96 -113q-60 -44 -129 -44q-82 0 -134 63q-56 67 -56 183q0 93 31 197zM269 57q138 0 196 292q20 98 20 153q0 146 -109 146q-140 0 -202 -311q-15 -79 -15 -125q0 -155 110 -155z" />
    <glyph glyph-name="one" unicode="1" 
d="M243 0l113 541q-73 -58 -206 -93l17 80q81 32 155 85q76 55 108 106h52l-151 -719h-88z" />
    <glyph glyph-name="two" unicode="2" 
d="M60 0q18 87 64 147q22 28 55 58q26 24 72 61l93 75q45 37 70 64q61 64 61 125q0 50 -35 84t-86 34q-109 0 -140 -147l-87 12q12 93 71 148q62 58 155 58q95 0 154 -56q57 -54 57 -136q0 -67 -47 -130q-20 -27 -50 -55q-24 -23 -60 -52l-32 -25q-3 -3 -8 -6l-24 -19
q-39 -30 -62 -50q-33 -28 -56 -52q-26 -29 -42 -57h321l-17 -81h-427z" />
    <glyph glyph-name="three" unicode="3" 
d="M453 59q-72 -70 -174 -70q-92 0 -152 51q-63 54 -70 147l86 11q19 -141 132 -141q66 0 114 48q47 47 47 108q0 53 -36 87q-38 35 -97 35l-28 -3l15 74l25 -3q73 0 116 38q40 36 40 91q0 48 -33 82q-34 34 -82 34q-111 0 -134 -132l-87 18q45 185 229 185q86 0 142 -54
q54 -53 54 -132q0 -111 -119 -167q84 -50 84 -141q0 -97 -72 -166z" />
    <glyph glyph-name="four" unicode="4" 
d="M301 0l38 181h-292l18 89l401 446h73l-95 -454h100l-16 -81h-101l-38 -181h-88zM355 262l63 297l-267 -297h204z" />
    <glyph glyph-name="five" unicode="5" 
d="M231 443q61 45 129 45q81 0 133 -53q55 -56 55 -152q0 -126 -79 -210q-78 -84 -193 -84q-94 0 -151 60q-54 57 -54 141l1 15l89 8l-1 -22q0 -53 34 -92q36 -42 88 -42q69 0 123 68t54 151q0 133 -128 133q-78 0 -137 -75l-77 6l107 366h350l-17 -81h-272z" />
    <glyph glyph-name="six" unicode="6" 
d="M488 535q-13 110 -97 110q-63 0 -117 -71q-49 -65 -71 -159q72 60 148 60q82 0 133 -54q54 -56 54 -150q0 -116 -71 -198q-71 -84 -174 -84q-91 0 -148 64q-61 68 -61 186q0 199 96 347q86 134 218 134q159 0 172 -178zM208 101q36 -44 86 -44q61 0 111 64t50 141
q0 62 -35 103q-36 42 -89 42q-63 0 -110 -59q-48 -61 -48 -147q0 -57 35 -100z" />
    <glyph glyph-name="seven" unicode="7" 
d="M147 0q24 144 113 317q45 88 99 165q58 83 121 143h-357l17 81h457l-17 -81q-116 -103 -211 -277q-92 -171 -130 -348h-92z" />
    <glyph glyph-name="eight" unicode="8" 
d="M460 61q-71 -72 -177 -72q-94 0 -151 56q-56 53 -56 137q0 74 36 129q40 62 115 83q-81 44 -81 130q0 75 57 132q63 63 162 63q94 0 149 -53q51 -49 51 -120q0 -114 -120 -163q42 -26 62 -59q23 -36 23 -90q0 -102 -70 -173zM198 92q35 -35 93 -35q63 0 107 57
q43 55 43 125q0 115 -119 115q-67 0 -112 -52q-45 -51 -45 -127q0 -50 33 -83zM346 418q60 0 99 38q37 37 37 89q0 103 -112 103q-61 0 -99 -40q-36 -36 -36 -88q0 -102 111 -102z" />
    <glyph glyph-name="nine" unicode="9" 
d="M152 172q17 -112 96 -112q59 0 111 63q51 62 77 168q-39 -29 -67 -43q-40 -19 -81 -19q-77 0 -129 54q-56 58 -56 155q0 114 69 196q71 85 177 85q90 0 146 -66q57 -69 57 -187q0 -185 -81 -324q-41 -71 -97 -110q-61 -43 -132 -43q-160 0 -173 175zM261 310
q75 -34 142 33q66 66 66 158q0 64 -36 106q-36 41 -88 41q-63 0 -112 -64q-47 -62 -47 -137q0 -102 75 -137z" />
    <glyph glyph-name="colon" unicode=":" horiz-adv-x="278" 
d="M56 0l21 100h100l-21 -100h-100zM144 418l20 100h100l-21 -100h-99z" />
    <glyph glyph-name="semicolon" unicode=";" horiz-adv-x="278" 
d="M53 0l21 100h101l-18 -87q-30 -144 -134 -158l8 39q57 16 77 106h-55zM141 418l21 100h99l-20 -100h-100z" />
    <glyph glyph-name="less" unicode="&#x3c;" horiz-adv-x="584" 
d="M96 313v82l474 200v-87l-376 -154l376 -156v-87z" />
    <glyph glyph-name="equal" unicode="=" horiz-adv-x="584" 
d="M570 204h-473v81h473v-81zM570 422h-473v81h473v-81z" />
    <glyph glyph-name="greater" unicode="&#x3e;" horiz-adv-x="584" 
d="M570 313l-474 -202v87l376 156l-376 154v87l474 -200v-82z" />
    <glyph glyph-name="question" unicode="?" 
d="M168 0l21 100h100l-21 -100h-100zM212 179q12 109 98 180l34 28q19 15 31 26q34 28 53 48q47 51 47 99q0 39 -32 67q-34 30 -84 30q-119 0 -142 -152l-88 15q41 208 229 208q88 0 147 -51q59 -50 59 -124q0 -90 -103 -171l-78 -63q-31 -27 -48 -46q-31 -37 -40 -94h-83z
" />
    <glyph glyph-name="at" unicode="@" horiz-adv-x="1015" 
d="M982 9q-29 -60 -107 -121q-128 -97 -324 -97q-234 0 -365 120q-129 116 -129 318q0 135 61 253q59 116 158 178q110 69 264 69q187 0 305 -113q113 -108 113 -268q0 -136 -92 -244q-90 -106 -202 -106q-54 0 -75 26q-15 17 -19 56q-71 -82 -150 -82q-74 0 -124 62
q-52 63 -52 158q0 117 76 213q78 98 177 98q92 0 147 -90l16 76h88l-76 -353q-3 -13 -4 -21q-5 -21 -5 -29q0 -24 25 -31q47 -12 117 64q36 39 57 87q24 57 24 118q0 133 -100 220q-99 88 -250 88q-177 0 -293 -121q-114 -119 -114 -300q0 -177 111 -275q112 -100 312 -100
q240 0 342 147h88zM398 81q66 -33 138 36q80 77 80 196q0 145 -115 145q-69 0 -120 -82q-48 -76 -48 -164q0 -99 65 -131z" />
    <glyph glyph-name="A" unicode="A" horiz-adv-x="667" 
d="M-20 0l406 716h113l118 -716h-93l-35 206h-289l-115 -206h-105zM241 280h237l-28 180q-3 20 -6 35q-3 21 -5 41q-6 51 -9 102q-27 -66 -72 -146z" />
    <glyph glyph-name="B" unicode="B" horiz-adv-x="667" 
d="M43 0l150 716h258l34 -2q38 -4 67 -15q103 -41 103 -154q0 -125 -133 -172q117 -39 117 -145q0 -93 -72 -160q-72 -68 -177 -68h-347zM156 81h203q23 1 39 3q42 5 74 24q69 41 69 118q0 59 -41 83q-35 20 -111 20h-181zM224 410h146q43 0 71 3q125 15 125 126
q0 46 -34 74q-19 15 -48 20l-28 2h-185z" />
    <glyph glyph-name="C" unicode="C" horiz-adv-x="722" 
d="M642 495q-29 154 -172 154q-123 0 -204 -103q-79 -102 -79 -251q0 -109 54 -169q52 -59 142 -59q78 0 138 52q58 49 83 133l95 -13q-91 -251 -324 -251q-133 0 -207 81q-75 81 -75 227q0 185 105 308q107 124 270 124q107 0 178 -58q74 -60 86 -167z" />
    <glyph glyph-name="D" unicode="D" horiz-adv-x="722" 
d="M46 0l150 716h238l23 -1q119 -2 188 -80t69 -211q0 -142 -73 -253q-70 -108 -182 -149q-38 -14 -81 -18q-30 -4 -74 -4h-258zM159 81h113q102 0 154 19q83 29 135 116q55 91 55 211q0 90 -34 140q-28 43 -75 57q-21 7 -49 9q-22 2 -57 2h-127z" />
    <glyph glyph-name="E" unicode="E" horiz-adv-x="667" 
d="M44 0l150 716h517l-18 -81h-421l-46 -224h410l-17 -81h-410l-52 -249h450l-17 -81h-546z" />
    <glyph glyph-name="F" unicode="F" horiz-adv-x="611" 
d="M43 0l150 716h465l-17 -81h-370l-47 -229h376l-17 -81h-376l-68 -325h-96z" />
    <glyph glyph-name="G" unicode="G" horiz-adv-x="778" 
d="M407 283l17 81h314l-61 -292q-132 -84 -285 -84q-141 0 -220 82q-77 79 -77 215q0 187 107 313q111 130 286 130q123 0 198 -68q35 -32 54 -72q15 -32 24 -82l-94 -10q-31 153 -185 153q-127 0 -208 -99q-84 -102 -84 -267q0 -216 201 -216q91 0 199 61l32 155h-218z" />
    <glyph glyph-name="H" unicode="H" horiz-adv-x="722" 
d="M44 0l150 716h95l-62 -297h371l62 297h96l-149 -716h-96l70 338h-371l-70 -338h-96z" />
    <glyph glyph-name="I" unicode="I" horiz-adv-x="278" 
d="M55 0l150 716h95l-149 -716h-96z" />
    <glyph glyph-name="J" unicode="J" horiz-adv-x="500" 
d="M427 193q-43 -205 -215 -205q-179 0 -179 156q0 30 8 64l88 7l-5 -28q-2 -18 -2 -32q0 -60 51 -80q45 -18 90 3q32 15 49 51q6 15 12 37q3 8 5 20l111 530h96z" />
    <glyph glyph-name="K" unicode="K" horiz-adv-x="667" 
d="M44 0l150 716h95l-72 -345l389 345h135l-333 -291l244 -425h-107l-207 363l-150 -130l-48 -233h-96z" />
    <glyph glyph-name="L" unicode="L" 
d="M42 0l150 716h95l-132 -635h371l-17 -81h-467z" />
    <glyph glyph-name="M" unicode="M" horiz-adv-x="833" 
d="M44 0l150 716h117l82 -529q6 -51 9 -110q30 72 100 195l251 444h119l-149 -716h-94l74 348q10 46 21 90q10 38 21 75q8 29 18 60l15 46q-19 -44 -43 -88l-30 -55l-270 -476h-93l-72 459q-6 37 -9 76q-3 34 -5 71q-6 -50 -11 -80q-6 -41 -12 -70l-96 -456h-93z" />
    <glyph glyph-name="N" unicode="N" horiz-adv-x="722" 
d="M50 0l150 716h93l149 -333q18 -41 32 -76q19 -45 35 -90q19 -53 35 -108q6 42 13 79l10 57q3 18 7 35l91 436h93l-150 -716h-94l-197 460q-11 25 -19 47q-21 53 -36 99q-7 -73 -28 -171l-91 -435h-93z" />
    <glyph glyph-name="O" unicode="O" horiz-adv-x="778" 
d="M119 476q27 74 77 130q95 106 235 121q137 15 234 -65q50 -42 77 -104q29 -67 29 -151q0 -175 -111 -296q-111 -122 -269 -123q-134 0 -218 90q-83 88 -83 222q0 96 29 176zM246 130q61 -63 151 -63q115 0 198 104q82 102 82 242q0 106 -61 172q-58 64 -148 64
q-116 0 -197 -94q-87 -101 -87 -260q0 -100 62 -165z" />
    <glyph glyph-name="P" unicode="P" horiz-adv-x="667" 
d="M43 0l150 716h299q54 0 83 -7q40 -9 68 -35q55 -50 55 -134q0 -68 -40 -134q-71 -115 -280 -115h-178l-61 -291h-96zM217 372h157q79 0 117 13q113 38 113 153q0 65 -45 87q-19 8 -48 12q-20 2 -55 2h-184z" />
    <glyph glyph-name="Q" unicode="Q" horiz-adv-x="778" 
d="M658 -82q-42 28 -75 60q-12 11 -24 24l-15 17q-2 1 -2 2q-71 -33 -135 -33q-146 0 -231 87q-85 88 -85 237q0 173 106 293q109 123 273 123q136 0 219 -88q83 -89 83 -233q0 -224 -169 -350q36 -43 98 -82zM425 208q40 -16 73 -44q13 -10 26 -23l21 -22q133 102 133 294
q0 106 -61 172q-58 64 -146 64q-119 0 -201 -98q-85 -99 -85 -246q0 -110 65 -177q58 -61 135 -61q56 0 97 16q-19 18 -37 32q-25 18 -55 33z" />
    <glyph glyph-name="R" unicode="R" horiz-adv-x="722" 
d="M49 0l150 716h300q33 0 51 -1q26 -1 46 -4q46 -8 78 -32q57 -43 57 -139q0 -185 -240 -218q79 -58 131 -187l54 -135h-107l-51 133q-48 126 -96 162q-21 15 -48 20q-16 3 -52 3h-111l-66 -318h-96zM227 395h180q26 0 44 1q45 2 73 9q118 31 118 138q0 59 -41 79
q-17 8 -42 11q-17 2 -47 2h-234z" />
    <glyph glyph-name="S" unicode="S" horiz-adv-x="667" 
d="M578 520q0 54 -44 90q-47 39 -128 39q-154 0 -154 -107q0 -49 58 -85q22 -14 59 -31l50 -21q10 -4 18 -8q41 -17 67 -32q36 -19 59 -41q58 -51 58 -126q0 -90 -74 -149q-78 -61 -201 -61q-274 0 -276 244l94 8l-1 -23q0 -150 187 -150q81 0 130 37q47 35 47 87
q0 50 -56 86q-24 15 -71 36q-16 8 -46 21l-53 23q-143 64 -143 180q0 92 80 146q72 48 177 46q104 -2 176 -52q80 -57 80 -151v-13l-93 -7v14z" />
    <glyph glyph-name="T" unicode="T" horiz-adv-x="611" 
d="M224 0l133 635h-235l17 81h564l-17 -81h-233l-133 -635h-96z" />
    <glyph glyph-name="U" unicode="U" horiz-adv-x="722" 
d="M200 716h96l-94 -452q-2 -6 -2 -11q-3 -12 -4 -21q-4 -23 -4 -36q0 -96 110 -123q109 -27 188 45q35 32 56 85q9 23 17 55q7 25 15 64l82 394h96l-88 -420q-24 -116 -66 -180q-84 -129 -247 -129q-121 0 -190 59q-67 57 -67 150q0 28 7 66z" />
    <glyph glyph-name="V" unicode="V" horiz-adv-x="667" 
d="M262 0l-138 716h92l92 -475q5 -26 8 -47q9 -53 13 -93l74 146l255 469h99l-393 -716h-102z" />
    <glyph glyph-name="W" unicode="W" horiz-adv-x="944" 
d="M167 0l-44 716h97l17 -354q3 -60 4 -114l1 -116q32 65 49 101l255 483h99l23 -418q2 -29 3 -58l3 -115q12 32 32 77q24 56 52 110l204 404h97l-364 -716h-102l-30 570q-31 -69 -50 -105l-247 -465h-99z" />
    <glyph glyph-name="X" unicode="X" horiz-adv-x="667" 
d="M-32 0l342 362l-203 354h106l120 -211q22 -40 42 -83q20 27 51 62l218 232h125l-346 -370l196 -346h-104l-137 248l-19 41q-13 -17 -29 -36q-18 -23 -35 -40l-200 -213h-127z" />
    <glyph glyph-name="Y" unicode="Y" horiz-adv-x="667" 
d="M280 0l57 277l-220 439h102l133 -263q10 -21 19 -42l21 -50q35 64 99 144l168 211h114l-341 -447l-57 -269h-95z" />
    <glyph glyph-name="Z" unicode="Z" horiz-adv-x="611" 
d="M22 0l9 72l413 495q35 42 63 73q-33 -5 -69 -5h-314l17 81h493l-8 -75l-384 -457q-61 -72 -90 -105q12 2 28 2h390l-17 -81h-531z" />
    <glyph glyph-name="bracketleft" unicode="[" horiz-adv-x="278" 
d="M5 -196l188 912h197l-14 -68h-108l-162 -776h108l-14 -68h-195z" />
    <glyph glyph-name="backslash" unicode="\" horiz-adv-x="278" 
d="M248 -12l-207 740h71l207 -740h-71z" />
    <glyph glyph-name="bracketright" unicode="]" horiz-adv-x="278" 
d="M135 -196h-195l14 68h108l162 776h-107l14 68h197z" />
    <glyph glyph-name="asciicircum" unicode="^" horiz-adv-x="469" 
d="M158 337h-90l173 391h70l174 -391h-89l-121 292z" />
    <glyph glyph-name="underscore" unicode="_" 
d="M562 -125h-568v50h568v-50z" />
    <glyph glyph-name="grave" unicode="`" horiz-adv-x="333" 
d="M241 581l-95 135h107l57 -135h-69z" />
    <glyph glyph-name="a" unicode="a" 
d="M165 290q36 11 91 15q10 0 24 1l69 4q52 3 82 15q10 35 10 60q0 63 -91 72q-125 12 -164 -94l-89 8q56 159 236 159q88 0 142 -37q55 -37 55 -101q0 -17 -4 -44q-3 -17 -10 -49l-28 -128q-14 -64 -14 -99q0 -30 10 -72h-89q-8 25 -10 65q-43 -37 -82 -55q-46 -21 -97 -21
q-70 0 -115 41q-45 42 -45 108q0 63 42 106q30 31 77 46zM332 246l-35 -4q-7 -1 -12 -1q-28 -3 -46 -6q-49 -9 -74 -27q-30 -23 -30 -67q0 -84 99 -84q63 0 112 44q30 27 48 70q14 35 24 92q-29 -11 -86 -17z" />
    <glyph glyph-name="b" unicode="b" 
d="M113 0h-78l150 716h88l-53 -256q75 70 148 70t120 -53q50 -57 50 -159q0 -139 -80 -236q-76 -93 -175 -93q-106 0 -150 109zM212 368q-46 -79 -46 -167q0 -141 112 -141q76 0 126 87q45 78 45 174q0 60 -29 98q-30 40 -80 40q-76 0 -128 -91z" />
    <glyph glyph-name="c" unicode="c" horiz-adv-x="500" 
d="M424 353q-1 106 -103 106q-81 0 -130 -84q-45 -77 -45 -189q0 -129 101 -129q100 0 144 132l88 -9q-66 -191 -233 -191q-86 0 -137 54q-52 56 -52 152q0 142 73 237q76 98 199 98q80 0 130 -44q52 -47 51 -128z" />
    <glyph glyph-name="d" unicode="d" 
d="M384 75q-76 -87 -158 -87q-75 0 -122 54q-50 58 -50 159q0 136 76 234q76 95 178 95q96 0 145 -93l58 279h89l-150 -716h-82zM251 59q70 0 123 81q52 80 52 184q0 135 -115 135q-38 0 -71 -25q-30 -23 -53 -63q-44 -76 -44 -154q0 -158 108 -158z" />
    <glyph glyph-name="e" unicode="e" 
d="M145 237q-2 -16 -2 -28q0 -69 33 -109q30 -36 78 -39q110 -6 162 115l86 -9q-21 -71 -87 -123q-72 -56 -157 -56q-92 0 -147 59q-57 61 -57 161q0 129 75 223q80 99 203 99q94 0 149 -60q53 -59 53 -153q0 -33 -7 -80h-382zM450 305q0 2 1 9v9q0 139 -119 139
q-127 0 -173 -157h291z" />
    <glyph glyph-name="f" unicode="f" horiz-adv-x="278" 
d="M44 0l94 450h-79l14 68h79l16 74q7 35 13 53q9 27 23 44q32 39 106 39q34 0 97 -14l-17 -77q-22 6 -37 8q-21 4 -41 4q-30 0 -44 -23q-8 -14 -16 -52l-11 -56h98l-14 -68h-99l-94 -450h-88z" />
    <glyph glyph-name="g" unicode="g" 
d="M486 518h81l-105 -500q-24 -113 -75 -165q-57 -60 -163 -60q-195 0 -195 134q0 7 1 14q0 7 1 12l89 -8l-2 -13q0 -68 99 -68q81 0 116 46q14 20 24 52q7 21 16 66l9 42q-68 -70 -147 -70q-80 0 -130 58q-53 61 -53 163q0 122 77 215q78 94 182 94q102 0 157 -97zM186 97
q39 -36 99 -20q69 18 112 95q39 69 39 147q0 62 -35 101q-34 39 -89 39q-71 0 -124 -80q-47 -72 -47 -150q0 -92 45 -132z" />
    <glyph glyph-name="h" unicode="h" 
d="M35 0l150 716h88l-57 -275q91 89 179 89q137 0 137 -124q0 -17 -5 -45l-76 -361h-88l66 314q14 68 14 86q0 59 -70 59q-88 0 -144 -75q-23 -31 -37 -75q-6 -18 -12 -42l-57 -267h-88z" />
    <glyph glyph-name="i" unicode="i" horiz-adv-x="222" 
d="M31 0l108 518h89l-109 -518h-88zM160 616l21 100h88l-21 -100h-88z" />
    <glyph glyph-name="j" unicode="j" horiz-adv-x="222" 
d="M114 -21q-10 -47 -20 -76q-12 -37 -27 -59q-35 -52 -104 -52q-31 0 -83 13l15 75q32 -9 52 -9q37 0 54 31q14 24 28 93l110 523h88zM247 616h-87l21 100h87z" />
    <glyph glyph-name="k" unicode="k" horiz-adv-x="500" 
d="M34 0l150 716h88l-93 -444l258 246h117l-222 -193l134 -325h-97l-103 266l-107 -93l-37 -173h-88z" />
    <glyph glyph-name="l" unicode="l" horiz-adv-x="222" 
d="M28 0l150 716h88l-150 -716h-88z" />
    <glyph glyph-name="m" unicode="m" horiz-adv-x="833" 
d="M211 433q43 49 77 70q43 27 96 27q101 0 123 -97q88 109 198 98q107 -11 107 -118q0 -17 -4 -40l-77 -373h-89l78 373q3 18 3 32q0 53 -62 53q-71 0 -125 -62q-24 -28 -38 -67q-6 -16 -11 -37q-4 -15 -9 -40l-53 -252h-89l79 375q2 16 2 27q0 57 -57 57q-93 0 -150 -99
q-14 -25 -24 -57q-6 -21 -14 -58l-52 -245h-88l108 518h89z" />
    <glyph glyph-name="n" unicode="n" 
d="M205 428q50 51 91 75q49 27 105 27q55 0 92 -33q38 -35 38 -92q0 -16 -4 -42l-76 -363h-88l69 329q5 23 7 37q3 21 3 36q0 57 -71 57q-97 0 -153 -92q-26 -42 -44 -126l-51 -241h-88l108 518h80z" />
    <glyph glyph-name="o" unicode="o" 
d="M129 435q79 95 205 95q95 0 152 -59t57 -159q0 -139 -80 -232q-80 -92 -200 -92q-95 0 -154 59q-58 58 -58 150q0 145 78 238zM212 67q67 -31 137 17q47 32 77 98q28 64 28 131q0 149 -124 149q-82 0 -137 -78q-53 -75 -53 -178q0 -105 72 -139z" />
    <glyph glyph-name="p" unicode="p" 
d="M208 446q81 84 162 84q72 0 119 -53q50 -58 50 -156q0 -138 -79 -237q-77 -95 -177 -95q-95 0 -144 94l-59 -282h-88l150 717h81zM167 185q0 -14 2 -27q18 -98 111 -98q74 0 125 89q45 79 45 171q0 139 -107 139q-42 0 -78 -27q-31 -23 -55 -65q-43 -76 -43 -155v-27z
" />
    <glyph glyph-name="q" unicode="q" 
d="M370 59q-75 -70 -145 -70q-75 0 -122 54q-51 57 -51 157q0 112 50 198q46 77 118 112q70 34 135 13q69 -22 103 -100l20 95h76l-150 -717h-88zM251 60q71 0 124 85q50 80 50 176q0 137 -114 137q-74 0 -125 -86q-45 -76 -45 -161q0 -151 110 -151z" />
    <glyph glyph-name="r" unicode="r" horiz-adv-x="333" 
d="M197 413q78 117 157 117q16 0 34 -6q12 -4 31 -13l-36 -82q-23 17 -49 17q-56 0 -100 -56q-48 -62 -73 -182l-44 -208h-84l108 518h78z" />
    <glyph glyph-name="s" unicode="s" horiz-adv-x="500" 
d="M38 177l89 6v-13q0 -113 129 -113q116 0 116 78q0 36 -41 62q-18 12 -51 26l-70 31q-99 43 -99 127q0 63 48 105q51 44 137 44q197 0 202 -164l-87 -5q-5 101 -121 101q-96 0 -96 -67q0 -32 42 -56q15 -9 42 -21q7 -2 25 -10l25 -10q29 -13 49 -24q25 -15 42 -31
q42 -40 42 -98q0 -64 -54 -108q-60 -48 -157 -48q-212 0 -212 178v10z" />
    <glyph glyph-name="t" unicode="t" horiz-adv-x="278" 
d="M150 122q-3 -19 -3 -27q0 -32 39 -32q28 0 52 6l-15 -73q-30 -8 -63 -8q-106 0 -106 80q0 6 3 26q4 24 10 52l63 304h-70l14 68h70l27 128l101 61l-40 -189h87l-14 -68h-87z" />
    <glyph glyph-name="u" unicode="u" 
d="M389 94q-56 -63 -117 -89q-55 -23 -105 -14q-103 19 -103 117q0 23 5 54q3 19 11 57l63 299h88l-75 -364q-3 -19 -3 -31q0 -62 71 -62q85 0 144 81q24 33 38 77q5 16 10 38l55 261h88l-108 -518h-82z" />
    <glyph glyph-name="v" unicode="v" horiz-adv-x="500" 
d="M164 0l-85 518h86l44 -285q6 -37 11 -78l8 -75q29 63 65 127l173 311h93l-297 -518h-98z" />
    <glyph glyph-name="w" unicode="w" horiz-adv-x="722" 
d="M133 0l-54 518h85l26 -270q3 -25 4 -47q5 -59 6 -105q18 60 36 105l145 317h96l17 -259q2 -28 3 -71q1 -19 1 -42q1 -17 1 -45q19 52 43 105l148 312h88l-253 -518h-92l-20 304q-1 16 -1 49l-1 62q-11 -29 -25 -62l-160 -353h-93z" />
    <glyph glyph-name="x" unicode="x" horiz-adv-x="500" 
d="M-2 0l226 263l-130 255h98l44 -91q10 -20 22 -47l22 -53l149 191h108l-217 -262l130 -256h-98l-51 105l-38 84l-154 -189h-111z" />
    <glyph glyph-name="y" unicode="y" horiz-adv-x="500" 
d="M231 -69q-19 -34 -33 -54q-19 -27 -37 -45q-43 -41 -102 -41q-35 0 -59 9l5 83q32 -8 50 -8q33 0 56 21q16 14 38 52l28 50l-86 520h87l39 -261q13 -78 20 -156l232 417h92z" />
    <glyph glyph-name="z" unicode="z" horiz-adv-x="500" 
d="M20 0l14 68l279 314q39 44 66 69q-36 -4 -90 -4h-193l16 71h401l-12 -55l-281 -316q-19 -22 -42 -44l-33 -32l51 2q31 1 53 1h205l-17 -74h-417z" />
    <glyph glyph-name="braceleft" unicode="{" horiz-adv-x="334" 
d="M52 219l17 80q73 2 106 70q14 29 27 79q5 19 11 48l12 54q22 104 73 144q41 33 120 33h27l-16 -74h-16q-63 0 -83 -35q-10 -17 -19 -53q-4 -14 -9 -39l-10 -47q-22 -100 -53 -146q-32 -46 -97 -74q70 -32 70 -113q0 -29 -6 -65q-4 -25 -13 -64l-8 -29l-6 -28
q-6 -30 -6 -47q0 -48 70 -48h15l-16 -74h-28q-61 0 -89 18q-35 24 -35 84q0 26 6 61l27 129q6 34 6 58q0 77 -77 78z" />
    <glyph glyph-name="bar" unicode="|" horiz-adv-x="260" 
d="M133 -210v938h77v-938h-77z" />
    <glyph glyph-name="braceright" unicode="}" horiz-adv-x="334" 
d="M309 299l-17 -80q-73 -2 -106 -70q-14 -29 -27 -79q-5 -19 -11 -49l-12 -54q-22 -103 -73 -143q-42 -33 -120 -33h-27l17 74h15q51 0 71 19q21 20 35 83l6 27q4 18 5 26l12 48q12 50 27 83q35 77 115 108q-34 18 -49 40q-20 28 -20 73q0 27 6 63q4 25 13 65l13 58
q6 31 6 48q0 47 -70 47h-15l17 74h27q63 0 90 -19q34 -24 34 -88q0 -22 -6 -56q-2 -14 -6 -31l-14 -65q-4 -18 -6 -32q-6 -35 -6 -59q0 -77 76 -78z" />
    <glyph glyph-name="asciitilde" unicode="~" horiz-adv-x="584" 
d="M141 319q-23 -14 -57 -47v100q53 59 136 59q33 0 69 -10q24 -7 61 -23l28 -12q16 -7 28 -11q30 -10 52 -10q64 0 126 67v-103q-59 -56 -133 -56q-34 0 -69 10q-23 7 -59 23q-2 0 -7 3q-4 1 -7 3l-13 5q-16 7 -28 11q-30 10 -57 10q-37 0 -70 -19z" />
    <glyph glyph-name="uni0082" horiz-adv-x="222" 
d="M24 0l21 100h101l-18 -87q-30 -144 -134 -158l8 39q57 16 77 106h-55z" />
    <glyph glyph-name="uni0084" horiz-adv-x="333" 
d="M10 0l21 100h101l-18 -87q-30 -144 -134 -158l8 39q57 16 77 106h-55zM169 0l21 100h101l-18 -87q-30 -144 -134 -158l8 39q57 16 77 106h-55z" />
    <glyph glyph-name="uni0085" unicode="&#x85;" horiz-adv-x="1000" 
d="M144 0l21 100h100l-21 -100h-100zM478 0l21 100h100l-21 -100h-100zM812 0l21 100h100l-21 -100h-100z" />
    <glyph glyph-name="uni0086" 
d="M164 -170l124 594h-195l15 74h196l43 208h89l-44 -208h194l-16 -74h-193l-125 -594h-88z" />
    <glyph glyph-name="uni0087" 
d="M164 -170l38 183h-195l16 74h195l75 359h-195l16 77h195l38 183h89l-39 -183h193l-16 -77h-193l-74 -359h192l-16 -74h-192l-38 -183h-89z" />
    <glyph glyph-name="uni0089" horiz-adv-x="1000" 
d="M170 -26h-72l464 754h74zM103 381q-37 37 -37 106q0 63 27 129q46 112 150 112q122 0 122 -128q0 -64 -24 -126q-25 -67 -66 -96t-89 -29q-51 0 -83 32zM190 410q47 0 77 69q26 60 26 126q0 62 -51 62q-49 0 -79 -69q-25 -56 -25 -112q0 -76 52 -76zM405 5
q-37 36 -37 105q0 90 41 160q50 83 137 83q58 0 91 -38q31 -35 31 -93q0 -63 -24 -125q-26 -66 -67 -96q-36 -27 -89 -27q-51 0 -83 31zM492 35q47 0 78 68q26 59 26 125q0 64 -53 64q-48 0 -78 -71q-25 -56 -25 -113q0 -73 52 -73zM741 5q-37 36 -37 105q0 90 41 159
q49 84 136 84q58 0 91 -38q31 -35 31 -93q0 -63 -24 -124q-25 -67 -66 -97q-36 -27 -89 -27q-51 0 -83 31zM827 35q47 0 78 68q26 59 26 125q0 64 -53 64q-48 0 -78 -71q-24 -56 -24 -113q0 -73 51 -73z" />
    <glyph glyph-name="uni008A" horiz-adv-x="667" 
d="M578 520q0 54 -44 90q-47 39 -128 39q-154 0 -154 -107q0 -49 58 -85q22 -14 59 -31l50 -21q10 -4 18 -8q41 -17 67 -32q36 -19 59 -41q58 -51 58 -126q0 -90 -74 -149q-78 -61 -201 -61q-274 0 -276 244l94 8l-1 -23q0 -150 187 -150q81 0 130 37q47 35 47 87
q0 50 -56 86q-24 15 -71 36q-16 8 -46 21l-53 23q-143 64 -143 180q0 92 80 146q72 48 177 46q104 -2 176 -52q80 -57 80 -151v-13l-93 -7v14zM528 899h92l-129 -135h-98l-60 135h77l37 -88z" />
    <glyph glyph-name="uni008B" horiz-adv-x="333" 
d="M136 257l79 -222h-67l-101 233l194 210h73z" />
    <glyph glyph-name="uni008C" horiz-adv-x="667" 
d="M578 520q0 54 -44 90q-47 39 -128 39q-154 0 -154 -107q0 -49 58 -85q22 -14 59 -31l50 -21q10 -4 18 -8q41 -17 67 -32q36 -19 59 -41q58 -51 58 -126q0 -90 -74 -149q-78 -61 -201 -61q-274 0 -276 244l94 8l-1 -23q0 -150 187 -150q81 0 130 37q47 35 47 87
q0 50 -56 86q-24 15 -71 36q-16 8 -46 21l-53 23q-143 64 -143 180q0 92 80 146q72 48 177 46q104 -2 176 -52q80 -57 80 -151v-13l-93 -7v14zM446 764h-73l92 134h111z" />
    <glyph glyph-name="uni008D" horiz-adv-x="611" 
d="M320 0h-96l133 635h-235l17 81h564l-17 -81h-233zM513 899h92l-130 -135h-97l-60 135h77l37 -88z" />
    <glyph glyph-name="uni008E" horiz-adv-x="611" 
d="M553 0h-531l9 72l413 495q35 42 63 73q-33 -5 -69 -5h-314l17 81h493l-8 -75l-384 -457q-61 -72 -90 -105q12 2 28 2h390zM486 899h91l-129 -135h-98l-60 135h77l38 -88z" />
    <glyph glyph-name="uni008F" horiz-adv-x="611" 
d="M553 0h-531l9 72l413 495q35 42 63 73q-33 -5 -69 -5h-314l17 81h493l-8 -75l-384 -457q-61 -72 -90 -105q12 2 28 2h390zM404 764h-74l92 134h111z" />
    <glyph glyph-name="uni0091" horiz-adv-x="222" 
d="M253 583l-21 -100h-101l18 88q30 145 134 157l-8 -38q-58 -16 -77 -107h55z" />
    <glyph glyph-name="uni0092" horiz-adv-x="222" 
d="M135 510q57 16 77 106h-55l21 100h101l-18 -88q-30 -144 -134 -157z" />
    <glyph glyph-name="uni0093" horiz-adv-x="333" 
d="M227 583l-21 -100h-101l18 88q30 145 134 157l-8 -38q-58 -16 -77 -107h55zM383 583l-21 -100h-101l18 88q30 145 134 157l-8 -38q-58 -16 -77 -107h55z" />
    <glyph glyph-name="uni0094" horiz-adv-x="333" 
d="M112 510q57 16 77 106h-55l21 100h101l-18 -88q-30 -144 -134 -157zM273 510q57 16 77 106h-55l21 100h101l-18 -88q-30 -144 -134 -157z" />
    <glyph glyph-name="uni0095" horiz-adv-x="350" 
d="M130 438q36 36 87 36t87 -36t36 -87t-36 -87q-36 -37 -87 -37t-87 37q-37 36 -37 87t37 87z" />
    <glyph glyph-name="uni0096" 
d="M-6 224v71h568v-71h-568z" />
    <glyph glyph-name="uni0097" horiz-adv-x="1000" 
d="M-6 224v71h1012v-71h-1012z" />
    <glyph glyph-name="uni0099" horiz-adv-x="1000" 
d="M239 318v339h-129v59h325v-59h-130v-339h-66zM480 318v398h98l100 -318l97 318h96v-398h-61v334l-102 -334h-60l-108 339v-339h-60z" />
    <glyph glyph-name="uni009A" horiz-adv-x="500" 
d="M38 177l89 6v-13q0 -113 129 -113q116 0 116 78q0 36 -41 62q-18 12 -51 26l-70 31q-99 43 -99 127q0 63 48 105q51 44 137 44q197 0 202 -164l-87 -5q-5 101 -121 101q-96 0 -96 -67q0 -32 42 -56q15 -9 42 -21q7 -2 25 -10l25 -10q29 -13 49 -24q25 -15 42 -31
q42 -40 42 -98q0 -64 -54 -108q-60 -48 -157 -48q-212 0 -212 178v10zM517 716l-129 -135h-98l-60 135h77l38 -87l81 87h91z" />
    <glyph glyph-name="uni009B" horiz-adv-x="333" 
d="M199 257l-79 221h67l101 -232l-194 -211h-73z" />
    <glyph glyph-name="uni009C" horiz-adv-x="500" 
d="M38 177l89 6v-13q0 -113 129 -113q116 0 116 78q0 36 -41 62q-18 12 -51 26l-70 31q-99 43 -99 127q0 63 48 105q51 44 137 44q197 0 202 -164l-87 -5q-5 101 -121 101q-96 0 -96 -67q0 -32 42 -56q15 -9 42 -21q7 -2 25 -10l25 -10q29 -13 49 -24q25 -15 42 -31
q42 -40 42 -98q0 -64 -54 -108q-60 -48 -157 -48q-212 0 -212 178v10zM270 581l92 135h111l-130 -135h-73z" />
    <glyph glyph-name="uni009D" horiz-adv-x="354" 
d="M161 125q-3 -19 -3 -27q0 -32 39 -32q28 0 52 6l-15 -73q-30 -8 -63 -8q-106 0 -106 80q0 6 3 26q4 24 10 52l63 301h-70l14 68h70l27 128l101 61l-40 -189h87l-14 -68h-87zM322 648l15 68h79l-13 -58q-8 -37 -37 -66q-32 -32 -75 -37l8 34q23 6 39 24q6 7 12 17l9 18
h-37z" />
    <glyph glyph-name="uni009E" horiz-adv-x="500" 
d="M20 0l14 68l279 314q39 44 66 69q-36 -4 -90 -4h-193l16 71h401l-12 -55l-281 -316q-19 -22 -42 -44l-33 -32l51 2q31 1 53 1h205l-17 -74h-417zM516 716l-130 -135h-97l-60 135h77l37 -87l81 87h92z" />
    <glyph glyph-name="uni009F" horiz-adv-x="500" 
d="M20 0l14 68l279 314q39 44 66 69q-36 -4 -90 -4h-193l16 71h401l-12 -55l-281 -316q-19 -22 -42 -44l-33 -32l51 2q31 1 53 1h205l-17 -74h-417zM269 581l91 135h112l-130 -135h-73z" />
    <glyph glyph-name="exclamdown" unicode="&#xa1;" horiz-adv-x="333" 
d="M416 716l-129 -135h-98l-60 135h77l38 -87l80 87h92z" />
    <glyph glyph-name="cent" unicode="&#xa2;" horiz-adv-x="333" 
d="M399 695q-37 -129 -162 -129q-123 0 -130 129h58q11 -68 76 -68q72 0 100 68h58z" />
    <glyph glyph-name="sterling" unicode="&#xa3;" 
d="M105 294l-91 -51l17 83l91 50l71 340h96l-58 -279l190 106l-17 -82l-190 -107l-58 -273h370l-17 -81h-465z" />
    <glyph glyph-name="currency" unicode="&#xa4;" 
d="M147 240q-35 53 -35 115q0 61 35 114l-68 67l56 58l68 -68q50 35 116 35t116 -35l68 68l56 -58l-68 -67q36 -55 36 -115q0 -59 -36 -114l68 -67l-56 -58l-68 68q-50 -34 -116 -34t-116 34l-68 -68l-56 58zM228 265q37 -37 90 -37t89 37q37 37 37 89q0 53 -37 90
q-37 38 -89 38t-89 -38q-37 -37 -37 -90q0 -52 36 -89z" />
    <glyph glyph-name="yen" unicode="&#xa5;" horiz-adv-x="667" 
d="M617 0h-38q-23 -56 -23 -85q0 -58 56 -58q34 0 86 21l-12 -58q-56 -27 -102 -27q-90 0 -90 88q0 49 30 119l-35 206h-289l-115 -206h-105l406 716h113zM450 460q-3 20 -6 35q-3 21 -5 41q-6 51 -9 102q-27 -66 -72 -146l-117 -212h237z" />
    <glyph glyph-name="brokenbar" unicode="&#xa6;" horiz-adv-x="260" 
d="M210 728v-386h-77v386h77zM210 176v-386h-77v386h77z" />
    <glyph glyph-name="section" unicode="&#xa7;" 
d="M469 553q-1 106 -107 106q-43 0 -73 -27q-28 -26 -28 -62q0 -40 42 -85q17 -17 43 -39l50 -40q32 -25 50 -41q26 -23 43 -43q42 -49 42 -96q0 -101 -137 -166q49 -54 49 -111q0 -66 -53 -111q-55 -47 -142 -47q-180 0 -216 165l81 20q24 -121 136 -121q47 0 80 29
q31 28 31 64q0 34 -34 69q-15 15 -42 38l-119 96q-30 25 -47 44q-41 47 -41 101q0 59 38 102q31 36 101 71q-38 48 -38 98q0 70 50 114q52 46 139 46q165 0 190 -164zM350 106q98 46 98 110q0 39 -61 89l-63 51q-42 35 -73 70q-95 -55 -95 -119q0 -32 29 -63q12 -13 33 -31z
" />
    <glyph glyph-name="dieresis" unicode="&#xa8;" horiz-adv-x="333" 
d="M116 599l21 100h92l-21 -100h-92zM296 599l21 100h92l-21 -100h-92z" />
    <glyph glyph-name="copyright" unicode="&#xa9;" horiz-adv-x="737" 
d="M522 437q-30 76 -114 76q-55 0 -89 -42q-36 -43 -36 -115q0 -150 127 -150q39 0 71 23q36 25 47 71l60 -18q-32 -134 -177 -134q-89 0 -141 56q-53 58 -53 161q0 89 52 144q53 57 145 57q131 0 166 -115zM671 620q108 -108 108 -260t-108 -261q-108 -108 -261 -108
q-152 0 -261 108q-108 108 -108 261t108 261q108 107 261 107t261 -108zM193 577q-90 -90 -90 -217t90 -218q90 -90 217 -90t217 90q90 91 90 218t-90 217t-217 90t-217 -90z" />
    <glyph glyph-name="ordfeminine" unicode="&#xaa;" horiz-adv-x="667" 
d="M578 520q0 54 -44 90q-47 39 -128 39q-154 0 -154 -107q0 -49 58 -85q22 -14 59 -31l50 -21q10 -4 18 -8q41 -17 67 -32q36 -19 59 -41q58 -51 58 -126q0 -90 -74 -149q-78 -61 -201 -61q-274 0 -276 244l94 8l-1 -23q0 -150 187 -150q81 0 130 37q47 35 47 87
q0 50 -56 86q-24 15 -71 36q-16 8 -46 21l-53 23q-143 64 -143 180q0 92 80 146q72 48 177 46q104 -2 176 -52q80 -57 80 -151v-13l-93 -7v14zM260 -188q23 7 38 23q11 12 22 35h-37l15 71h79l-13 -59q-8 -38 -37 -67q-32 -33 -75 -38z" />
    <glyph glyph-name="guillemotleft" unicode="&#xab;" 
d="M170 257l79 -222h-67l-101 233l194 210h73zM364 257l78 -222h-66l-102 233l194 210h73z" />
    <glyph glyph-name="logicalnot" unicode="&#xac;" horiz-adv-x="584" 
d="M570 207h-83v215h-390v81h473v-296z" />
    <glyph glyph-name="registered" unicode="&#xae;" horiz-adv-x="737" 
d="M312 156h-64v396h136q40 0 59 -2q30 -2 49 -11q62 -28 62 -91q0 -105 -113 -115q39 -16 92 -100l48 -77h-78l-35 62q-37 64 -56 83q-24 23 -62 23h-38v-168zM312 498v-119h78q96 0 96 60q0 36 -32 50q-22 9 -69 9h-73zM671 620q108 -108 108 -260t-108 -261
q-108 -108 -261 -108q-152 0 -261 108q-108 108 -108 261t108 261q108 107 261 107t261 -108zM193 577q-90 -90 -90 -217t90 -218q90 -90 217 -90t217 90q90 91 90 218t-90 217t-217 90t-217 -90z" />
    <glyph glyph-name="macron" unicode="&#xaf;" horiz-adv-x="611" 
d="M553 0h-531l9 72l413 495q35 42 63 73q-33 -5 -69 -5h-314l17 81h493l-8 -75l-384 -457q-61 -72 -90 -105q12 2 28 2h390zM464 773h-108l23 109h108z" />
    <glyph glyph-name="degree" unicode="&#xb0;" horiz-adv-x="400" 
d="M175 688q39 40 96 40q56 0 96 -39q39 -40 39 -96t-40 -96q-39 -40 -95 -40t-96 40t-40 96t40 95zM213 535q24 -25 58 -25t58 24q24 25 24 59q0 82 -82 82q-34 0 -59 -24q-24 -24 -24 -58t25 -58z" />
    <glyph glyph-name="plusminus" unicode="&#xb1;" horiz-adv-x="584" 
d="M292 127v197h-195v81h195v195h83v-195h195v-81h-195v-197h-83zM570 0h-473v81h473v-81z" />
    <glyph glyph-name="uni00B2" unicode="&#xb2;" horiz-adv-x="333" 
d="M253 -180q-56 -27 -103 -27q-89 0 -89 88q0 57 36 132h54q-28 -64 -28 -98q0 -58 56 -58q35 0 86 21z" />
    <glyph glyph-name="uni00B3" unicode="&#xb3;" horiz-adv-x="222" 
d="M94 304l-74 -39l16 76l74 39l70 336h89l-59 -283l77 41l-16 -76l-77 -41l-75 -357h-88z" />
    <glyph glyph-name="acute" unicode="&#xb4;" horiz-adv-x="333" 
d="M169 581l92 135h111l-130 -135h-73z" />
    <glyph glyph-name="mu" unicode="&#xb5;" 
d="M382 41q-66 -53 -132 -53t-115 61l-52 -249h-87l152 718h87l-52 -243q-9 -41 -13 -66q-6 -34 -6 -58q0 -88 97 -88q82 0 124 74q10 18 18 47q6 19 13 55l59 279h87l-110 -518h-79z" />
    <glyph glyph-name="paragraph" unicode="&#xb6;" horiz-adv-x="537" 
d="M265 -199v511q-92 4 -145 59q-53 54 -53 142q0 91 58 145q61 58 173 58h309v-84h-70v-831h-83v831h-109v-831h-80z" />
    <glyph glyph-name="periodcentered" unicode="&#xb7;" horiz-adv-x="278" 
d="M114 302l21 100h100l-21 -100h-100z" />
    <glyph glyph-name="cedilla" unicode="&#xb8;" horiz-adv-x="333" 
d="M49 -147q16 -1 39 0h32q84 0 84 33q0 40 -80 41l20 79h68l-12 -44q87 -12 87 -83q0 -87 -168 -87q-46 0 -81 6z" />
    <glyph glyph-name="uni00B9" unicode="&#xb9;" 
d="M165 290q36 11 91 15q10 0 24 1l69 4q52 3 82 15q10 35 10 60q0 63 -91 72q-125 12 -164 -94l-89 8q56 159 236 159q88 0 142 -37q55 -37 55 -101q0 -17 -4 -44q-3 -17 -10 -49l-28 -128q-14 -64 -14 -99q0 -30 10 -72h-34q-22 -54 -22 -85q0 -58 55 -58q36 0 87 21
l-13 -58q-56 -27 -102 -27q-89 0 -89 88q0 54 29 119q-8 25 -10 65q-43 -37 -82 -55q-46 -21 -97 -21q-70 0 -115 41q-45 42 -45 108q0 63 42 106q30 31 77 46zM332 246l-35 -4q-7 -1 -12 -1q-28 -3 -46 -6q-49 -9 -74 -27q-30 -23 -30 -67q0 -84 99 -84q63 0 112 44
q30 27 48 70q14 35 24 92q-29 -11 -86 -17z" />
    <glyph glyph-name="ordmasculine" unicode="&#xba;" horiz-adv-x="500" 
d="M38 177l89 6v-13q0 -113 129 -113q116 0 116 78q0 36 -41 62q-18 12 -51 26l-70 31q-99 43 -99 127q0 63 48 105q51 44 137 44q197 0 202 -164l-87 -5q-5 101 -121 101q-96 0 -96 -67q0 -32 42 -56q15 -9 42 -21q7 -2 25 -10l25 -10q29 -13 49 -24q25 -15 42 -31
q42 -40 42 -98q0 -64 -54 -108q-60 -48 -157 -48q-212 0 -212 178v10zM181 -130l15 71h79l-13 -59q-8 -38 -36 -67q-32 -33 -75 -38l7 35q24 7 39 24q11 12 21 34h-37z" />
    <glyph glyph-name="guillemotright" unicode="&#xbb;" 
d="M225 257l-79 221h67l101 -232l-194 -211h-73zM418 257l-78 221h66l101 -232l-194 -211h-73z" />
    <glyph glyph-name="onequarter" unicode="&#xbc;" 
d="M42 0l150 716h95l-132 -635h371l-17 -81h-467zM358 616l21 100h101l-18 -88q-30 -144 -134 -157l8 39q57 16 77 106h-55z" />
    <glyph glyph-name="onehalf" unicode="&#xbd;" horiz-adv-x="333" 
d="M86 581l91 135h113l-131 -135h-73zM251 581l89 135h114l-134 -135h-69z" />
    <glyph glyph-name="threequarters" unicode="&#xbe;" horiz-adv-x="281" 
d="M27 0l150 716h88l-150 -716h-88zM290 626l18 90h91l-16 -79q-28 -132 -121 -142l8 35q51 14 69 96h-49z" />
    <glyph glyph-name="questiondown" unicode="&#xbf;" horiz-adv-x="500" 
d="M20 0l14 68l279 314q39 44 66 69q-36 -4 -90 -4h-193l16 71h401l-12 -55l-281 -316q-19 -22 -42 -44l-33 -32l51 2q31 1 53 1h205l-17 -74h-417zM294 590l23 109h109l-23 -109h-109z" />
    <glyph glyph-name="Agrave" unicode="&#xc0;" horiz-adv-x="722" 
d="M49 0l150 716h300q33 0 51 -1q26 -1 46 -4q46 -8 78 -32q57 -43 57 -139q0 -185 -240 -218q79 -58 131 -187l54 -135h-107l-51 133q-48 126 -96 162q-21 15 -48 20q-16 3 -52 3h-111l-66 -318h-96zM227 395h180q26 0 44 1q45 2 73 9q118 31 118 138q0 59 -41 79
q-17 8 -42 11q-17 2 -47 2h-234zM393 764l92 134h111l-130 -134h-73z" />
    <glyph glyph-name="Aacute" unicode="&#xc1;" horiz-adv-x="667" 
d="M85 0h-105l406 716h113l118 -716h-93l-35 206h-289zM450 460q-3 20 -6 35q-3 21 -5 41q-6 51 -9 102q-27 -66 -72 -146l-117 -212h237zM444 764h-73l92 134h111z" />
    <glyph glyph-name="Acircumflex" unicode="&#xc2;" horiz-adv-x="667" 
d="M85 0h-105l406 716h113l118 -716h-93l-35 206h-289zM450 460q-3 20 -6 35q-3 21 -5 41q-6 51 -9 102q-27 -66 -72 -146l-117 -212h237zM393 764h-90l129 135h98l60 -135h-77l-39 87z" />
    <glyph glyph-name="Atilde" unicode="&#xc3;" horiz-adv-x="667" 
d="M85 0h-105l406 716h113l118 -716h-93l-35 206h-289zM450 460q-3 20 -6 35q-3 21 -5 41q-6 51 -9 102q-27 -66 -72 -146l-117 -212h237zM618 877q-36 -128 -163 -128q-122 0 -129 128h57q10 -67 76 -67q73 0 101 67h58z" />
    <glyph glyph-name="Adieresis" unicode="&#xc4;" horiz-adv-x="667" 
d="M85 0h-105l406 716h113l118 -716h-93l-35 206h-289zM450 460q-3 20 -6 35q-3 21 -5 41q-6 51 -9 102q-27 -66 -72 -146l-117 -212h237zM411 782h-93l21 100h93zM591 782h-92l20 100h93z" />
    <glyph glyph-name="Aring" unicode="&#xc5;" 
d="M42 0l150 716h95l-132 -635h371l-17 -81h-467zM287 764l91 134h111l-129 -134h-73z" />
    <glyph glyph-name="AE" unicode="&#xc6;" horiz-adv-x="722" 
d="M642 495q-29 154 -172 154q-123 0 -204 -103q-79 -102 -79 -251q0 -109 54 -169q52 -59 142 -59q78 0 138 52q58 49 83 133l95 -13q-91 -251 -324 -251q-133 0 -207 81q-75 81 -75 227q0 185 105 308q107 124 270 124q107 0 178 -58q74 -60 86 -167zM414 764l92 134h111
l-130 -134h-73z" />
    <glyph glyph-name="Ccedilla" unicode="&#xc7;" horiz-adv-x="722" 
d="M700 239q-86 -238 -304 -251l-13 -29q71 -10 71 -68q0 -101 -187 -101q-44 0 -81 5l23 55q24 -2 45 -2q118 0 118 40q0 35 -73 36l31 67q-236 34 -236 305q0 186 105 308q107 124 270 124q107 0 178 -58q74 -60 86 -167l-90 -8q-29 154 -172 154q-123 0 -204 -103
q-79 -102 -79 -251q0 -109 54 -169q52 -59 142 -59q78 0 138 52q58 49 83 133z" />
    <glyph glyph-name="Egrave" unicode="&#xc8;" horiz-adv-x="722" 
d="M642 495q-29 154 -172 154q-123 0 -204 -103q-79 -102 -79 -251q0 -109 54 -169q52 -59 142 -59q78 0 138 52q58 49 83 133l95 -13q-91 -251 -324 -251q-133 0 -207 81q-75 81 -75 227q0 185 105 308q107 124 270 124q107 0 178 -58q74 -60 86 -167zM661 899l-129 -135
h-98l-60 135h77l38 -88l81 88h91z" />
    <glyph glyph-name="Eacute" unicode="&#xc9;" horiz-adv-x="667" 
d="M590 0h-546l150 716h517l-18 -81h-421l-46 -224h410l-17 -81h-410l-52 -249h450zM453 764h-73l91 134h112z" />
    <glyph glyph-name="Ecircumflex" unicode="&#xca;" horiz-adv-x="667" 
d="M590 0h-126q-23 -56 -23 -85q0 -58 56 -58q34 0 86 21l-12 -58q-56 -27 -103 -27q-89 0 -89 88q0 53 30 119h-365l150 716h517l-18 -81h-421l-46 -224h410l-17 -81h-410l-52 -249h450z" />
    <glyph glyph-name="Edieresis" unicode="&#xcb;" horiz-adv-x="667" 
d="M590 0h-546l150 716h517l-18 -81h-421l-46 -224h410l-17 -81h-410l-52 -249h450zM419 782h-92l21 100h92zM599 782h-92l21 100h92z" />
    <glyph glyph-name="Igrave" unicode="&#xcc;" horiz-adv-x="667" 
d="M590 0h-546l150 716h517l-18 -81h-421l-46 -224h410l-17 -81h-410l-52 -249h450zM535 899h92l-130 -135h-97l-60 135h76l38 -88z" />
    <glyph glyph-name="Iacute" unicode="&#xcd;" horiz-adv-x="278" 
d="M151 0h-96l150 716h95zM253 764h-73l92 134h111z" />
    <glyph glyph-name="Icircumflex" unicode="&#xce;" horiz-adv-x="278" 
d="M151 0h-96l150 716h95zM202 764h-91l130 135h97l61 -135h-78l-39 87z" />
    <glyph glyph-name="Idieresis" unicode="&#xcf;" horiz-adv-x="722" 
d="M46 0l150 716h238l23 -1q119 -2 188 -80t69 -211q0 -142 -73 -253q-70 -108 -182 -149q-38 -14 -81 -18q-30 -4 -74 -4h-258zM159 81h113q102 0 154 19q83 29 135 116q55 91 55 211q0 90 -34 140q-28 43 -75 57q-21 7 -49 9q-22 2 -57 2h-127zM629 899l-129 -135h-98
l-60 135h77l38 -88l81 88h91z" />
    <glyph glyph-name="Eth" unicode="&#xd0;" horiz-adv-x="722" 
d="M46 0l69 324h-77l14 68h77l69 324h245q17 0 31 -1q36 -3 65 -12q175 -54 175 -279q0 -142 -72 -253q-71 -109 -183 -149q-39 -14 -81 -18q-30 -4 -74 -4h-258zM159 81h113q102 0 154 19q82 29 135 117q55 91 55 210q0 89 -34 140q-28 43 -75 57q-21 7 -49 9q-22 2 -57 2
h-124l-52 -243h197l-14 -68h-197z" />
    <glyph glyph-name="Ntilde" unicode="&#xd1;" horiz-adv-x="722" 
d="M50 0l150 716h93l149 -333q18 -41 32 -76q19 -45 35 -90q19 -53 35 -108q6 42 13 79l10 57q3 18 7 35l91 436h93l-150 -716h-94l-197 460q-11 25 -19 47q-21 53 -36 99q-7 -73 -28 -171l-91 -435h-93zM406 764l92 134h111l-130 -134h-73z" />
    <glyph glyph-name="Ograve" unicode="&#xd2;" horiz-adv-x="722" 
d="M50 0l150 716h93l149 -333q18 -41 32 -76q19 -45 35 -90q19 -53 35 -108q6 42 13 79l10 57q3 18 7 35l91 436h93l-150 -716h-94l-197 460q-11 25 -19 47q-21 53 -36 99q-7 -73 -28 -171l-91 -435h-93zM653 899l-129 -135h-98l-60 135h77l38 -88l81 88h91z" />
    <glyph glyph-name="Oacute" unicode="&#xd3;" horiz-adv-x="778" 
d="M119 476q27 74 77 130q95 106 235 121q137 15 234 -65q50 -42 77 -104q29 -67 29 -151q0 -175 -111 -296q-111 -122 -269 -123q-134 0 -218 90q-83 88 -83 222q0 96 29 176zM246 130q61 -63 151 -63q115 0 198 104q82 102 82 242q0 106 -61 172q-58 64 -148 64
q-116 0 -197 -94q-87 -101 -87 -260q0 -100 62 -165zM433 764l92 134h111l-130 -134h-73z" />
    <glyph glyph-name="Ocircumflex" unicode="&#xd4;" horiz-adv-x="778" 
d="M119 476q27 74 77 130q95 106 235 121q137 15 234 -65q50 -42 77 -104q29 -67 29 -151q0 -175 -111 -296q-111 -122 -269 -123q-134 0 -218 90q-83 88 -83 222q0 96 29 176zM246 130q61 -63 151 -63q115 0 198 104q82 102 82 242q0 106 -61 172q-58 64 -148 64
q-116 0 -197 -94q-87 -101 -87 -260q0 -100 62 -165zM364 764l130 135h97l61 -135h-78l-38 87l-81 -87h-91z" />
    <glyph glyph-name="Otilde" unicode="&#xd5;" horiz-adv-x="778" 
d="M119 476q27 74 77 130q95 106 235 121q137 15 234 -65q50 -42 77 -104q29 -67 29 -151q0 -175 -111 -296q-111 -122 -269 -123q-134 0 -218 90q-83 88 -83 222q0 96 29 176zM246 130q61 -63 151 -63q115 0 198 104q82 102 82 242q0 106 -61 172q-58 64 -148 64
q-116 0 -197 -94q-87 -101 -87 -260q0 -100 62 -165zM350 764l91 135h113l-131 -135h-73zM515 764l89 135h114l-133 -135h-70z" />
    <glyph glyph-name="Odieresis" unicode="&#xd6;" horiz-adv-x="778" 
d="M119 476q27 74 77 130q95 106 235 121q137 15 234 -65q50 -42 77 -104q29 -67 29 -151q0 -175 -111 -296q-111 -122 -269 -123q-134 0 -218 90q-83 88 -83 222q0 96 29 176zM246 130q61 -63 151 -63q115 0 198 104q82 102 82 242q0 106 -61 172q-58 64 -148 64
q-116 0 -197 -94q-87 -101 -87 -260q0 -100 62 -165zM380 782l21 100h92l-21 -100h-92zM560 782l21 100h92l-21 -100h-92z" />
    <glyph glyph-name="multiply" unicode="&#xd7;" horiz-adv-x="584" 
d="M120 200l154 154l-153 153l59 60l154 -154l152 153l59 -59l-153 -153l154 -153l-60 -60l-153 154l-154 -154z" />
    <glyph glyph-name="Oslash" unicode="&#xd8;" horiz-adv-x="722" 
d="M49 0l150 716h300q33 0 51 -1q26 -1 46 -4q46 -8 78 -32q57 -43 57 -139q0 -185 -240 -218q79 -58 131 -187l54 -135h-107l-51 133q-48 126 -96 162q-21 15 -48 20q-16 3 -52 3h-111l-66 -318h-96zM227 395h180q26 0 44 1q45 2 73 9q118 31 118 138q0 59 -41 79
q-17 8 -42 11q-17 2 -47 2h-234zM640 899l-129 -135h-98l-60 135h77l37 -88l81 88h92z" />
    <glyph glyph-name="Ugrave" unicode="&#xd9;" horiz-adv-x="722" 
d="M200 716h96l-94 -452q-2 -6 -2 -11q-3 -12 -4 -21q-4 -23 -4 -36q0 -96 110 -123q109 -27 188 45q35 32 56 85q9 23 17 55q7 25 15 64l82 394h96l-88 -420q-24 -116 -66 -180q-84 -129 -247 -129q-121 0 -190 59q-67 57 -67 150q0 28 7 66zM447 890q25 26 62 26t63 -26
q27 -26 27 -63t-27 -62q-26 -26 -63 -26t-62 26q-26 25 -26 62t26 63zM509 775q53 0 53 52q0 53 -53 53q-51 0 -51 -53q0 -52 51 -52z" />
    <glyph glyph-name="Uacute" unicode="&#xda;" horiz-adv-x="722" 
d="M200 716h96l-94 -452q-2 -6 -2 -11q-3 -12 -4 -21q-4 -23 -4 -36q0 -96 110 -123q109 -27 188 45q35 32 56 85q9 23 17 55q7 25 15 64l82 394h96l-88 -420q-24 -116 -66 -180q-84 -129 -247 -129q-121 0 -190 59q-67 57 -67 150q0 28 7 66zM429 764l92 134h111l-130 -134
h-73z" />
    <glyph glyph-name="Ucircumflex" unicode="&#xdb;" horiz-adv-x="722" 
d="M200 716h96l-94 -452q-2 -6 -2 -11q-3 -12 -4 -21q-4 -23 -4 -36q0 -96 110 -123q109 -27 188 45q35 32 56 85q9 23 17 55q7 25 15 64l82 394h96l-88 -420q-24 -116 -66 -180q-84 -129 -247 -129q-121 0 -190 59q-67 57 -67 150q0 28 7 66zM346 764l91 135h113l-131 -135
h-73zM511 764l89 135h114l-133 -135h-70z" />
    <glyph glyph-name="Udieresis" unicode="&#xdc;" horiz-adv-x="722" 
d="M200 716h96l-94 -452q-2 -6 -2 -11q-3 -12 -4 -21q-4 -23 -4 -36q0 -96 110 -123q109 -27 188 45q35 32 56 85q9 23 17 55q7 25 15 64l82 394h96l-88 -420q-24 -116 -66 -180q-84 -129 -247 -129q-121 0 -190 59q-67 57 -67 150q0 28 7 66zM376 782l21 100h92l-20 -100
h-93zM556 782l21 100h93l-21 -100h-93z" />
    <glyph glyph-name="Yacute" unicode="&#xdd;" horiz-adv-x="667" 
d="M375 0h-95l57 277l-220 439h102l133 -263q10 -21 19 -42l21 -50q35 64 99 144l168 211h114l-341 -447zM485 764h-74l92 134h111z" />
    <glyph glyph-name="Thorn" unicode="&#xde;" horiz-adv-x="611" 
d="M320 0h-96l133 635h-235l17 81h564l-17 -81h-233zM183 -188q24 7 40 24q11 12 21 34h-38l16 71h79l-13 -59q-8 -38 -37 -67q-32 -33 -75 -38z" />
    <glyph glyph-name="germandbls" unicode="&#xdf;" horiz-adv-x="611" 
d="M383 660q-59 0 -106 -45q-24 -24 -36 -57q-5 -13 -8 -31l-111 -527h-88l106 505q10 47 20 74q13 38 35 65q69 84 191 84q71 0 119 -37q43 -34 43 -77q0 -34 -24 -75q-11 -18 -29 -43l-39 -50q-31 -40 -31 -66q0 -21 22 -47q8 -10 22 -24l26 -25q33 -33 48 -57
q22 -34 22 -68q0 -68 -57 -119q-58 -51 -135 -51q-106 0 -174 114l74 40q43 -83 98 -83q40 0 73 33q32 31 32 68q0 22 -22 49q-8 11 -22 24l-26 25q-34 32 -48 52q-22 30 -22 59q0 45 45 102l31 40q16 20 25 34q22 34 22 59q0 55 -76 55z" />
    <glyph glyph-name="agrave" unicode="&#xe0;" horiz-adv-x="333" 
d="M197 413q78 117 157 117q16 0 34 -6q12 -4 31 -13l-36 -82q-23 17 -49 17q-56 0 -100 -56q-48 -62 -73 -182l-44 -208h-84l108 518h78zM302 581h-73l91 135h111z" />
    <glyph glyph-name="aacute" unicode="&#xe1;" 
d="M165 290q36 11 91 15q10 0 24 1l69 4q52 3 82 15q10 35 10 60q0 63 -91 72q-125 12 -164 -94l-89 8q56 159 236 159q88 0 142 -37q55 -37 55 -101q0 -17 -4 -44q-3 -17 -10 -49l-28 -128q-14 -64 -14 -99q0 -30 10 -72h-89q-8 25 -10 65q-43 -37 -82 -55q-46 -21 -97 -21
q-70 0 -115 41q-45 42 -45 108q0 63 42 106q30 31 77 46zM332 246l-35 -4q-7 -1 -12 -1q-28 -3 -46 -6q-49 -9 -74 -27q-30 -23 -30 -67q0 -84 99 -84q63 0 112 44q30 27 48 70q14 35 24 92q-29 -11 -86 -17zM290 581l91 135h112l-130 -135h-73z" />
    <glyph glyph-name="acircumflex" unicode="&#xe2;" 
d="M165 290q36 11 91 15q10 0 24 1l69 4q52 3 82 15q10 35 10 60q0 63 -91 72q-125 12 -164 -94l-89 8q56 159 236 159q88 0 142 -37q55 -37 55 -101q0 -17 -4 -44q-3 -17 -10 -49l-28 -128q-14 -64 -14 -99q0 -30 10 -72h-89q-8 25 -10 65q-43 -37 -82 -55q-46 -21 -97 -21
q-70 0 -115 41q-45 42 -45 108q0 63 42 106q30 31 77 46zM332 246l-35 -4q-7 -1 -12 -1q-28 -3 -46 -6q-49 -9 -74 -27q-30 -23 -30 -67q0 -84 99 -84q63 0 112 44q30 27 48 70q14 35 24 92q-29 -11 -86 -17zM221 581l129 135h98l60 -135h-77l-39 87l-81 -87h-90z" />
    <glyph glyph-name="atilde" unicode="&#xe3;" 
d="M165 290q36 11 91 15q10 0 24 1l69 4q52 3 82 15q10 35 10 60q0 63 -91 72q-125 12 -164 -94l-89 8q56 159 236 159q88 0 142 -37q55 -37 55 -101q0 -17 -4 -44q-3 -17 -10 -49l-28 -128q-14 -64 -14 -99q0 -30 10 -72h-89q-8 25 -10 65q-43 -37 -82 -55q-46 -21 -97 -21
q-70 0 -115 41q-45 42 -45 108q0 63 42 106q30 31 77 46zM332 246l-35 -4q-7 -1 -12 -1q-28 -3 -46 -6q-49 -9 -74 -27q-30 -23 -30 -67q0 -84 99 -84q63 0 112 44q30 27 48 70q14 35 24 92q-29 -11 -86 -17zM520 695q-37 -129 -163 -129q-122 0 -129 129h57q11 -68 76 -68
q71 0 100 68h59z" />
    <glyph glyph-name="adieresis" unicode="&#xe4;" 
d="M165 290q36 11 91 15q10 0 24 1l69 4q52 3 82 15q10 35 10 60q0 63 -91 72q-125 12 -164 -94l-89 8q56 159 236 159q88 0 142 -37q55 -37 55 -101q0 -17 -4 -44q-3 -17 -10 -49l-28 -128q-14 -64 -14 -99q0 -30 10 -72h-89q-8 25 -10 65q-43 -37 -82 -55q-46 -21 -97 -21
q-70 0 -115 41q-45 42 -45 108q0 63 42 106q30 31 77 46zM332 246l-35 -4q-7 -1 -12 -1q-28 -3 -46 -6q-49 -9 -74 -27q-30 -23 -30 -67q0 -84 99 -84q63 0 112 44q30 27 48 70q14 35 24 92q-29 -11 -86 -17zM237 599l21 100h92l-21 -100h-92zM417 599l21 100h92l-21 -100
h-92z" />
    <glyph glyph-name="aring" unicode="&#xe5;" horiz-adv-x="222" 
d="M28 0l150 716h88l-150 -716h-88zM149 752l92 135h111l-130 -135h-73z" />
    <glyph glyph-name="ae" unicode="&#xe6;" horiz-adv-x="500" 
d="M424 353q-1 106 -103 106q-81 0 -130 -84q-45 -77 -45 -189q0 -129 101 -129q100 0 144 132l88 -9q-66 -191 -233 -191q-86 0 -137 54q-52 56 -52 152q0 142 73 237q76 98 199 98q80 0 130 -44q52 -47 51 -128zM286 581l91 135h111l-129 -135h-73z" />
    <glyph glyph-name="ccedilla" unicode="&#xe7;" horiz-adv-x="500" 
d="M479 180q-61 -179 -216 -191l-11 -28q77 0 77 -63q0 -97 -161 -97q-25 0 -55 2l18 53q121 -3 121 40q0 21 -23 28q-15 4 -47 3l26 64q-151 34 -151 204q0 143 72 237q76 98 200 98q80 0 129 -44q53 -46 52 -128l-87 -5q-1 106 -102 106q-81 0 -130 -82q-46 -77 -46 -195
q0 -125 103 -125q99 0 143 132z" />
    <glyph glyph-name="egrave" unicode="&#xe8;" horiz-adv-x="500" 
d="M424 353q-1 106 -103 106q-81 0 -130 -84q-45 -77 -45 -189q0 -129 101 -129q100 0 144 132l88 -9q-66 -191 -233 -191q-86 0 -137 54q-52 56 -52 152q0 142 73 237q76 98 199 98q80 0 130 -44q52 -47 51 -128zM533 716l-130 -135h-97l-61 135h77l38 -87l81 87h92z" />
    <glyph glyph-name="eacute" unicode="&#xe9;" 
d="M145 237q-2 -16 -2 -28q0 -69 33 -109q30 -36 78 -39q110 -6 162 115l86 -9q-21 -71 -87 -123q-72 -56 -157 -56q-92 0 -147 59q-57 61 -57 161q0 129 75 223q80 99 203 99q94 0 149 -60q53 -59 53 -153q0 -33 -7 -80h-382zM450 305q0 2 1 9v9q0 139 -119 139
q-127 0 -173 -157h291zM296 581l92 135h111l-130 -135h-73z" />
    <glyph glyph-name="ecircumflex" unicode="&#xea;" 
d="M502 167q-19 -66 -80 -117q-66 -54 -146 -61q-18 -46 -18 -74q0 -58 56 -58q35 0 86 21l-12 -58q-56 -27 -102 -27q-90 0 -90 88q0 47 26 110q-168 26 -168 217q0 129 75 223q80 99 203 99q94 0 149 -60q53 -59 53 -153q0 -33 -7 -80h-382q-2 -16 -2 -28q0 -69 33 -109
q30 -36 78 -39q110 -6 162 115zM450 305q0 2 1 9v9q0 139 -119 139q-127 0 -173 -157h291z" />
    <glyph glyph-name="edieresis" unicode="&#xeb;" 
d="M145 237q-2 -16 -2 -28q0 -69 33 -109q30 -36 78 -39q110 -6 162 115l86 -9q-21 -71 -87 -123q-72 -56 -157 -56q-92 0 -147 59q-57 61 -57 161q0 129 75 223q80 99 203 99q94 0 149 -60q53 -59 53 -153q0 -33 -7 -80h-382zM450 305q0 2 1 9v9q0 139 -119 139
q-127 0 -173 -157h291zM243 599l21 100h92l-20 -100h-93zM423 599l21 100h93l-21 -100h-93z" />
    <glyph glyph-name="igrave" unicode="&#xec;" 
d="M145 237q-2 -16 -2 -28q0 -69 33 -109q30 -36 78 -39q110 -6 162 115l86 -9q-21 -71 -87 -123q-72 -56 -157 -56q-92 0 -147 59q-57 61 -57 161q0 129 75 223q80 99 203 99q94 0 149 -60q53 -59 53 -153q0 -33 -7 -80h-382zM450 305q0 2 1 9v9q0 139 -119 139
q-127 0 -173 -157h291zM543 716l-129 -135h-98l-60 135h77l38 -87l81 87h91z" />
    <glyph glyph-name="iacute" unicode="&#xed;" horiz-adv-x="278" 
d="M59 0l108 518h89l-109 -518h-88zM160 581l91 135h112l-130 -135h-73z" />
    <glyph glyph-name="icircumflex" unicode="&#xee;" horiz-adv-x="278" 
d="M59 0l108 518h89l-109 -518h-88zM91 581l129 135h98l61 -135h-78l-39 87l-80 -87h-91z" />
    <glyph glyph-name="idieresis" unicode="&#xef;" horiz-adv-x="625" 
d="M385 75q-75 -87 -154 -87q-176 0 -176 213q0 136 75 232q76 97 183 97q92 0 141 -93l58 279h89l-150 -716h-82zM252 59q70 0 123 81q52 80 52 184q0 135 -115 135q-38 0 -71 -25q-30 -23 -53 -63q-44 -76 -44 -154q0 -158 108 -158zM634 626l19 90h90l-16 -79
q-28 -132 -120 -142l7 35q51 14 69 96h-49z" />
    <glyph glyph-name="eth" unicode="&#xf0;" 
d="M384 75q-75 -87 -154 -87q-176 0 -176 213q0 136 75 232q76 97 183 97q92 0 141 -93l33 157h-159l14 68h159l11 54h89l-12 -54h66l-14 -68h-65l-125 -594h-82zM251 59q70 0 123 81q52 80 52 184q0 135 -115 135q-38 0 -71 -25q-30 -23 -53 -63q-44 -76 -44 -154
q0 -158 108 -158z" />
    <glyph glyph-name="ntilde" unicode="&#xf1;" 
d="M205 428q50 51 91 75q49 27 105 27q55 0 92 -33q38 -35 38 -92q0 -16 -4 -42l-76 -363h-88l69 329q5 23 7 37q3 21 3 36q0 57 -71 57q-97 0 -153 -92q-26 -42 -44 -126l-51 -241h-88l108 518h80zM285 581l91 135h112l-130 -135h-73z" />
    <glyph glyph-name="ograve" unicode="&#xf2;" 
d="M205 428q50 51 91 75q49 27 105 27q55 0 92 -33q38 -35 38 -92q0 -16 -4 -42l-76 -363h-88l69 329q5 23 7 37q3 21 3 36q0 57 -71 57q-97 0 -153 -92q-26 -42 -44 -126l-51 -241h-88l108 518h80zM532 716l-130 -135h-97l-60 135h77l37 -87l81 87h92z" />
    <glyph glyph-name="oacute" unicode="&#xf3;" 
d="M129 435q79 95 205 95q95 0 152 -59t57 -159q0 -139 -80 -232q-80 -92 -200 -92q-95 0 -154 59q-58 58 -58 150q0 145 78 238zM212 67q67 -31 137 17q47 32 77 98q28 64 28 131q0 149 -124 149q-82 0 -137 -78q-53 -75 -53 -178q0 -105 72 -139zM299 581l91 135h112
l-130 -135h-73z" />
    <glyph glyph-name="ocircumflex" unicode="&#xf4;" 
d="M129 435q79 95 205 95q95 0 152 -59t57 -159q0 -139 -80 -232q-80 -92 -200 -92q-95 0 -154 59q-58 58 -58 150q0 145 78 238zM212 67q67 -31 137 17q47 32 77 98q28 64 28 131q0 149 -124 149q-82 0 -137 -78q-53 -75 -53 -178q0 -105 72 -139zM230 581l130 135h97
l61 -135h-78l-39 87l-80 -87h-91z" />
    <glyph glyph-name="otilde" unicode="&#xf5;" 
d="M129 435q79 95 205 95q95 0 152 -59t57 -159q0 -139 -80 -232q-80 -92 -200 -92q-95 0 -154 59q-58 58 -58 150q0 145 78 238zM212 67q67 -31 137 17q47 32 77 98q28 64 28 131q0 149 -124 149q-82 0 -137 -78q-53 -75 -53 -178q0 -105 72 -139zM216 581l91 135h113
l-131 -135h-73zM381 581l89 135h114l-134 -135h-69z" />
    <glyph glyph-name="odieresis" unicode="&#xf6;" 
d="M129 435q79 95 205 95q95 0 152 -59t57 -159q0 -139 -80 -232q-80 -92 -200 -92q-95 0 -154 59q-58 58 -58 150q0 145 78 238zM212 67q67 -31 137 17q47 32 77 98q28 64 28 131q0 149 -124 149q-82 0 -137 -78q-53 -75 -53 -178q0 -105 72 -139zM246 599l21 100h92
l-21 -100h-92zM426 599l21 100h92l-21 -100h-92z" />
    <glyph glyph-name="divide" unicode="&#xf7;" horiz-adv-x="584" 
d="M570 313h-473v81h473v-81zM283 451v100h100v-100h-100zM283 156v100h100v-100h-100z" />
    <glyph glyph-name="oslash" unicode="&#xf8;" horiz-adv-x="333" 
d="M197 413q78 117 157 117q16 0 34 -6q12 -4 31 -13l-36 -82q-23 17 -49 17q-56 0 -100 -56q-48 -62 -73 -182l-44 -208h-84l108 518h78zM384 716h91l-129 -135h-98l-60 135h77l38 -87z" />
    <glyph glyph-name="ugrave" unicode="&#xf9;" 
d="M389 94q-56 -63 -117 -89q-55 -23 -105 -14q-103 19 -103 117q0 23 5 54q3 19 11 57l63 299h88l-75 -364q-3 -19 -3 -31q0 -62 71 -62q85 0 144 81q24 33 38 77q5 16 10 38l55 261h88l-108 -518h-82zM331 707q26 26 63 26t63 -26t26 -63t-26 -62q-26 -26 -63 -26t-63 26
q-26 25 -26 62t26 63zM394 592q52 0 52 52q0 53 -52 53t-52 -53q0 -52 52 -52z" />
    <glyph glyph-name="uacute" unicode="&#xfa;" 
d="M389 94q-56 -63 -117 -89q-55 -23 -105 -14q-103 19 -103 117q0 23 5 54q3 19 11 57l63 299h88l-75 -364q-3 -19 -3 -31q0 -62 71 -62q85 0 144 81q24 33 38 77q5 16 10 38l55 261h88l-108 -518h-82zM314 581l91 135h112l-130 -135h-73z" />
    <glyph glyph-name="ucircumflex" unicode="&#xfb;" 
d="M389 94q-56 -63 -117 -89q-55 -23 -105 -14q-103 19 -103 117q0 23 5 54q3 19 11 57l63 299h88l-75 -364q-3 -19 -3 -31q0 -62 71 -62q85 0 144 81q24 33 38 77q5 16 10 38l55 261h88l-108 -518h-82zM231 581l91 135h113l-131 -135h-73zM396 581l89 135h114l-134 -135
h-69z" />
    <glyph glyph-name="udieresis" unicode="&#xfc;" 
d="M389 94q-56 -63 -117 -89q-55 -23 -105 -14q-103 19 -103 117q0 23 5 54q3 19 11 57l63 299h88l-75 -364q-3 -19 -3 -31q0 -62 71 -62q85 0 144 81q24 33 38 77q5 16 10 38l55 261h88l-108 -518h-82zM261 599l21 100h92l-21 -100h-92zM441 599l21 100h92l-21 -100h-92z
" />
    <glyph glyph-name="yacute" unicode="&#xfd;" horiz-adv-x="500" 
d="M231 -69q-19 -34 -33 -54q-19 -27 -37 -45q-43 -41 -102 -41q-35 0 -59 9l5 83q32 -8 50 -8q33 0 56 21q16 14 38 52l28 50l-86 520h87l39 -261q13 -78 20 -156l232 417h92zM356 581h-73l91 135h112z" />
    <glyph glyph-name="thorn" unicode="&#xfe;" horiz-adv-x="278" 
d="M156 154q-2 -7 -2 -10q-3 -12 -4 -19q-4 -19 -4 -27q0 -32 39 -32q29 0 53 6l-16 -73q-32 -8 -62 -8q-106 0 -106 80q0 6 3 26q4 24 10 52l62 301h-70l15 68h70l26 128l101 61l-39 -189h87l-15 -68h-86zM34 -188q23 7 39 23q11 13 22 35h-38l16 71h79l-13 -59
q-8 -37 -36 -66q-32 -33 -76 -39z" />
    <glyph glyph-name="ydieresis" unicode="&#xff;" horiz-adv-x="333" 
d="M194 590l23 109h109l-23 -109h-109z" />
    <glyph glyph-name="glyph216" horiz-adv-x="1000" 
d="M-40 0l441 716h643l-17 -81h-369l-47 -223h374l-17 -81h-374l-52 -250h413l-18 -81h-513l43 204h-276l-122 -204h-109zM240 285h244l73 350h-103z" />
    <glyph glyph-name="glyph217" horiz-adv-x="667" 
d="M85 0h-105l406 716h113l118 -716h-93l-35 206h-289zM450 460q-3 20 -6 35q-3 21 -5 41q-6 51 -9 102q-27 -66 -72 -146l-117 -212h237zM512 764h-68l-96 135h107z" />
    <glyph glyph-name="glyph218" horiz-adv-x="667" 
d="M85 0h-105l406 716h113l118 -716h-93l-35 206h-289zM450 460q-3 20 -6 35q-3 21 -5 41q-6 51 -9 102q-27 -66 -72 -146l-117 -212h237zM602 783h-303l14 68h303z" />
    <glyph glyph-name="glyph219" horiz-adv-x="667" 
d="M85 0h-105l406 716h113l118 -716h-93l-35 206h-289zM450 460q-3 20 -6 35q-3 21 -5 41q-6 51 -9 102q-27 -66 -72 -146l-117 -212h237zM389 890q26 26 63 26t63 -26t26 -63t-26 -62q-26 -26 -63 -26t-63 26q-26 25 -26 62t26 63zM452 775q52 0 52 52q0 53 -52 53t-52 -53
q0 -52 52 -52z" />
    <glyph glyph-name="glyph220" horiz-adv-x="612" 
d="M599 0h-586l307 677zM484 40l-195 472l-215 -472h410z" />
    <glyph glyph-name="glyph221" horiz-adv-x="667" 
d="M590 0h-546l150 716h517l-18 -81h-421l-46 -224h410l-17 -81h-410l-52 -249h450zM401 764h-90l129 135h98l60 -135h-77l-39 87z" />
    <glyph glyph-name="glyph222" horiz-adv-x="667" 
d="M590 0h-546l150 716h517l-18 -81h-421l-46 -224h410l-17 -81h-410l-52 -249h450zM514 773h-109l23 109h109z" />
    <glyph glyph-name="glyph223" horiz-adv-x="667" 
d="M590 0h-546l150 716h517l-18 -81h-421l-46 -224h410l-17 -81h-410l-52 -249h450zM521 764h-69l-96 135h108z" />
    <glyph glyph-name="glyph224" horiz-adv-x="667" 
d="M590 0h-546l150 716h517l-18 -81h-421l-46 -224h410l-17 -81h-410l-52 -249h450zM612 783h-303l14 68h303z" />
    <glyph glyph-name="glyph225" horiz-adv-x="722" 
d="M46 0l69 324h-77l14 68h77l69 324h245q17 0 31 -1q36 -3 65 -12q175 -54 175 -279q0 -142 -72 -253q-71 -109 -183 -149q-39 -14 -81 -18q-30 -4 -74 -4h-258zM159 81h113q102 0 154 19q82 29 135 117q55 91 55 210q0 89 -34 140q-28 43 -75 57q-21 7 -49 9q-22 2 -57 2
h-124l-52 -243h197l-14 -68h-197z" />
    <glyph glyph-name="glyph226" horiz-adv-x="778" 
d="M407 283l17 81h314l-61 -292q-132 -84 -285 -84q-141 0 -220 82q-77 79 -77 215q0 187 107 313q111 130 286 130q123 0 198 -68q35 -32 54 -72q15 -32 24 -82l-94 -10q-31 153 -185 153q-127 0 -208 -99q-84 -102 -84 -267q0 -216 201 -216q91 0 199 61l32 155h-218z
M662 877q-37 -128 -162 -128q-123 0 -130 128h58q10 -67 76 -67q72 0 100 67h58z" />
    <glyph glyph-name="glyph227" horiz-adv-x="778" 
d="M407 283l17 81h314l-61 -292q-132 -84 -285 -84q-141 0 -220 82q-77 79 -77 215q0 187 107 313q111 130 286 130q123 0 198 -68q35 -32 54 -72q15 -32 24 -82l-94 -10q-31 153 -185 153q-127 0 -208 -99q-84 -102 -84 -267q0 -216 201 -216q91 0 199 61l32 155h-218z
M337 -130l15 71h79l-13 -59q-8 -38 -36 -67q-32 -33 -75 -38l7 35q24 7 40 24q11 12 21 34h-38z" />
    <glyph glyph-name="glyph228" horiz-adv-x="278" 
d="M151 0h-96l150 716h95zM219 782h-92l21 100h92zM399 782h-92l21 100h92z" />
    <glyph glyph-name="glyph229" horiz-adv-x="278" 
d="M151 0h-96l150 716h95zM314 773h-109l23 109h109z" />
    <glyph glyph-name="glyph230" horiz-adv-x="278" 
d="M151 0h-96l150 716h95zM321 764h-69l-95 135h107z" />
    <glyph glyph-name="glyph231" horiz-adv-x="278" 
d="M151 0h-96l150 716h95zM412 783h-303l15 68h303z" />
    <glyph glyph-name="glyph232" horiz-adv-x="278" 
d="M217 -180q-56 -27 -103 -27q-89 0 -89 88q0 32 10 66q4 13 10 28l10 25l149 716h96l-150 -716h-40q-23 -56 -23 -85q0 -58 56 -58q35 0 86 21z" />
    <glyph glyph-name="glyph233" horiz-adv-x="667" 
d="M140 0h-96l150 716h95l-72 -345l389 345h135l-333 -291l244 -425h-107l-207 363l-150 -130zM229 -188q24 7 40 24q11 12 21 34h-38l15 71h79l-13 -59q-8 -38 -36 -67q-32 -33 -75 -38z" />
    <glyph glyph-name="glyph234" 
d="M42 0l150 716h95l-132 -635h371l-17 -81h-467zM197 -130l16 71h79l-13 -59q-8 -37 -36 -66q-32 -33 -76 -39l7 35q23 7 39 23q11 13 22 35h-38z" />
    <glyph glyph-name="glyph235" horiz-adv-x="722" 
d="M50 0l150 716h93l149 -333q18 -41 32 -76q19 -45 35 -90q19 -53 35 -108q6 42 13 79l10 57q3 18 7 35l91 436h93l-150 -716h-94l-197 460q-11 25 -19 47q-21 53 -36 99q-7 -73 -28 -171l-91 -435h-93zM283 -130l15 71h79l-13 -59q-8 -38 -36 -67q-32 -33 -75 -38l7 35
q24 7 39 24q11 12 21 34h-37z" />
    <glyph glyph-name="glyph236" horiz-adv-x="722" 
d="M50 0l150 716h93l149 -333q18 -41 32 -76q19 -45 35 -90q19 -53 35 -108q6 42 13 79l10 57q3 18 7 35l91 436h93l-150 -716h-94l-197 460q-11 25 -19 47q-21 53 -36 99q-7 -73 -28 -171l-91 -435h-93zM392 779h-61q28 110 99 110q18 0 39 -7q15 -4 37 -14l33 -14
q17 -7 28 -7q25 0 35 39h59q-10 -107 -93 -107q-15 0 -36 7q-13 4 -36 14l-9 4q-6 2 -9 4q-10 4 -17 6q-17 7 -28 7q-33 0 -41 -42z" />
    <glyph glyph-name="glyph237" horiz-adv-x="1000" 
d="M638 716h406l-17 -81h-310l-47 -227h313l-17 -81h-313l-52 -246h347l-17 -81h-443l12 53q-33 -32 -69 -47q-41 -18 -94 -18q-119 0 -188 79q-69 80 -69 222q0 189 105 315q103 124 252 124q113 0 183 -97zM208 134q46 -67 134 -67q136 0 192 164q51 147 51 262
q0 65 -45 110q-45 46 -111 46q-103 0 -179 -108t-76 -253q0 -105 34 -154z" />
    <glyph glyph-name="glyph238" horiz-adv-x="778" 
d="M119 476q27 74 77 130q95 106 235 121q137 15 234 -65q50 -42 77 -104q29 -67 29 -151q0 -175 -111 -296q-111 -122 -269 -123q-134 0 -218 90q-83 88 -83 222q0 96 29 176zM246 130q61 -63 151 -63q115 0 198 104q82 102 82 242q0 106 -61 172q-58 64 -148 64
q-116 0 -197 -94q-87 -101 -87 -260q0 -100 62 -165zM505 764l-95 135h107l57 -135h-69z" />
    <glyph glyph-name="glyph239" horiz-adv-x="778" 
d="M119 476q27 74 77 130q95 106 235 121q137 15 234 -65q50 -42 77 -104q29 -67 29 -151q0 -175 -111 -296q-111 -122 -269 -123q-134 0 -218 90q-83 88 -83 222q0 96 29 176zM246 130q61 -63 151 -63q115 0 198 104q82 102 82 242q0 106 -61 172q-58 64 -148 64
q-116 0 -197 -94q-87 -101 -87 -260q0 -100 62 -165zM362 783l15 68h303l-14 -68h-304z" />
    <glyph glyph-name="glyph240" horiz-adv-x="778" 
d="M164 86q-75 89 -75 226q0 173 107 294q108 122 270 122q112 0 187 -57l78 93l44 -38l-80 -95q75 -87 75 -226q0 -173 -111 -295t-270 -122q-104 0 -181 57l-79 -95l-46 38zM596 603q-55 46 -127 46q-118 0 -201 -98q-85 -100 -85 -245q0 -90 40 -150zM265 113
q60 -46 132 -46q115 0 197 104q82 102 82 244q0 83 -40 144z" />
    <glyph glyph-name="glyph241" horiz-adv-x="778" 
d="M119 476q27 74 77 130q95 106 235 121q137 15 234 -65q50 -42 77 -104q29 -67 29 -151q0 -175 -111 -296q-111 -122 -269 -123q-134 0 -218 90q-83 88 -83 222q0 96 29 176zM246 130q61 -63 151 -63q115 0 198 104q82 102 82 242q0 106 -61 172q-58 64 -148 64
q-116 0 -197 -94q-87 -101 -87 -260q0 -100 62 -165zM419 779h-61q27 110 99 110q18 0 39 -7q15 -4 37 -14l33 -14q17 -7 28 -7q25 0 35 39h59q-10 -107 -93 -107q-15 0 -36 7q-14 4 -37 14l-18 8q-10 4 -17 6q-17 7 -28 7q-32 0 -40 -42z" />
    <glyph glyph-name="glyph242" horiz-adv-x="722" 
d="M49 0l150 716h300q33 0 51 -1q26 -1 46 -4q46 -8 78 -32q57 -43 57 -139q0 -185 -240 -218q79 -58 131 -187l54 -135h-107l-51 133q-48 126 -96 162q-21 15 -48 20q-16 3 -52 3h-111l-66 -318h-96zM227 395h180q26 0 44 1q45 2 73 9q118 31 118 138q0 59 -41 79
q-17 8 -42 11q-17 2 -47 2h-234zM274 -130l16 71h79l-13 -59q-8 -38 -37 -67q-32 -33 -75 -38l8 35q23 7 38 23q11 12 22 35h-38z" />
    <glyph glyph-name="glyph243" horiz-adv-x="667" 
d="M578 520q0 54 -44 90q-47 39 -128 39q-154 0 -154 -107q0 -49 58 -85q22 -14 59 -31l50 -21q10 -4 18 -8q41 -17 67 -32q36 -19 59 -41q58 -51 58 -126q0 -85 -66 -143q-70 -60 -186 -67l-14 -29q71 -10 71 -68q0 -101 -187 -101q-43 0 -80 5l22 55q24 -2 46 -2
q117 0 117 40q0 35 -73 36l32 66q-232 24 -233 242l94 8l-1 -23q0 -150 187 -150q81 0 130 37q47 35 47 87q0 50 -56 86q-24 15 -71 36q-16 8 -46 21l-53 23q-143 64 -143 180q0 92 80 146q72 48 177 46q104 -2 176 -52q80 -57 80 -151v-13l-93 -7v14z" />
    <glyph glyph-name="glyph244" horiz-adv-x="667" 
d="M43 0l152 716h96l-31 -145h201q53 0 83 -7q39 -9 68 -35q55 -50 55 -134q0 -69 -39 -133q-72 -116 -280 -116h-178l-31 -146h-96zM187 227h156q79 0 117 13q113 38 113 153q0 65 -45 87q-19 8 -48 12q-20 2 -55 2h-181z" />
    <glyph glyph-name="glyph245" horiz-adv-x="722" 
d="M200 716h96l-94 -452q-2 -6 -2 -11q-3 -12 -4 -21q-4 -23 -4 -36q0 -96 110 -123q109 -27 188 45q35 32 56 85q9 23 17 55q7 25 15 64l82 394h96l-88 -420q-24 -116 -66 -180q-84 -129 -247 -129q-121 0 -190 59q-67 57 -67 150q0 28 7 66zM360 764l130 135h98l60 -135
h-77l-39 87l-81 -87h-91z" />
    <glyph glyph-name="glyph246" horiz-adv-x="722" 
d="M200 716h96l-94 -452q-2 -6 -2 -11q-3 -12 -4 -21q-4 -23 -4 -36q0 -96 110 -123q109 -27 188 45q35 32 56 85q9 23 17 55q7 25 15 64l82 394h96l-88 -420q-24 -116 -66 -180q-84 -129 -247 -129q-121 0 -190 59q-67 57 -67 150q0 28 7 66zM501 764l-95 135h107l57 -135
h-69z" />
    <glyph glyph-name="glyph247" horiz-adv-x="722" 
d="M200 716h96l-94 -452q-2 -6 -2 -11q-3 -12 -4 -21q-4 -23 -4 -36q0 -96 110 -123q109 -27 188 45q35 32 56 85q9 23 17 55q7 25 15 64l82 394h96l-88 -420q-24 -116 -66 -180q-84 -129 -247 -129q-121 0 -190 59q-67 57 -67 150q0 28 7 66zM359 783l14 68h303l-14 -68
h-303z" />
    <glyph glyph-name="glyph248" horiz-adv-x="722" 
d="M668 296q-20 -91 -43 -141q-80 -168 -267 -168q-17 -42 -17 -72q0 -58 55 -58q35 0 86 21l-12 -58q-56 -27 -102 -27q-89 0 -89 88q0 49 25 110q-206 25 -206 205q0 28 7 66l95 454h96l-94 -452q-2 -6 -2 -11q-3 -12 -4 -21q-4 -23 -4 -36q0 -96 110 -123q109 -27 188 45
q35 32 56 85q9 23 17 55q7 25 15 64l82 394h96z" />
    <glyph glyph-name="glyph249" horiz-adv-x="667" 
d="M375 0h-95l57 277l-220 439h102l133 -263q10 -21 19 -42l21 -50q35 64 99 144l168 211h114l-341 -447zM437 782h-92l21 100h92zM617 782h-92l21 100h92z" />
    <glyph glyph-name="glyph250" horiz-adv-x="889" 
d="M812 469q55 -60 55 -156q0 -16 -2 -37q-2 -16 -6 -39h-377q-2 -20 -2 -30q0 -138 104 -147q103 -9 165 116l89 -9q-86 -179 -245 -179q-126 0 -187 115q-75 -114 -198 -114q-163 0 -163 150q0 118 116 149q26 7 62 11l32 4l33 2q42 3 64 6q34 5 58 12q11 33 11 59
q0 81 -94 81q-107 0 -145 -99l-87 8q53 159 237 159q105 0 160 -72q69 71 169 71q94 0 151 -61zM331 244l-104 -11q-23 -3 -35 -8q-58 -22 -58 -80q0 -88 96 -88q135 0 167 199q-31 -7 -66 -12zM784 325q0 137 -117 137q-52 0 -99 -41q-49 -44 -69 -116h285v20z" />
    <glyph glyph-name="glyph251" 
d="M165 290q36 11 91 15q10 0 24 1l69 4q52 3 82 15q10 35 10 60q0 63 -91 72q-125 12 -164 -94l-89 8q56 159 236 159q88 0 142 -37q55 -37 55 -101q0 -17 -4 -44q-3 -17 -10 -49l-28 -128q-14 -64 -14 -99q0 -30 10 -72h-89q-8 25 -10 65q-43 -37 -82 -55q-46 -21 -97 -21
q-70 0 -115 41q-45 42 -45 108q0 63 42 106q30 31 77 46zM332 246l-35 -4q-7 -1 -12 -1q-28 -3 -46 -6q-49 -9 -74 -27q-30 -23 -30 -67q0 -84 99 -84q63 0 112 44q30 27 48 70q14 35 24 92q-29 -11 -86 -17zM362 581l-96 135h108l57 -135h-69z" />
    <glyph glyph-name="glyph252" 
d="M165 290q36 11 91 15q10 0 24 1l69 4q52 3 82 15q10 35 10 60q0 63 -91 72q-125 12 -164 -94l-89 8q56 159 236 159q88 0 142 -37q55 -37 55 -101q0 -17 -4 -44q-3 -17 -10 -49l-28 -128q-14 -64 -14 -99q0 -30 10 -72h-89q-8 25 -10 65q-43 -37 -82 -55q-46 -21 -97 -21
q-70 0 -115 41q-45 42 -45 108q0 63 42 106q30 31 77 46zM332 246l-35 -4q-7 -1 -12 -1q-28 -3 -46 -6q-49 -9 -74 -27q-30 -23 -30 -67q0 -84 99 -84q63 0 112 44q30 27 48 70q14 35 24 92q-29 -11 -86 -17zM219 600l14 68h303l-14 -68h-303z" />
    <glyph glyph-name="glyph253" 
d="M165 290q36 11 91 15q10 0 24 1l69 4q52 3 82 15q10 35 10 60q0 63 -91 72q-125 12 -164 -94l-89 8q56 159 236 159q88 0 142 -37q55 -37 55 -101q0 -17 -4 -44q-3 -17 -10 -49l-28 -128q-14 -64 -14 -99q0 -30 10 -72h-89q-8 25 -10 65q-43 -37 -82 -55q-46 -21 -97 -21
q-70 0 -115 41q-45 42 -45 108q0 63 42 106q30 31 77 46zM332 246l-35 -4q-7 -1 -12 -1q-28 -3 -46 -6q-49 -9 -74 -27q-30 -23 -30 -67q0 -84 99 -84q63 0 112 44q30 27 48 70q14 35 24 92q-29 -11 -86 -17zM307 707q26 26 63 26t63 -26t26 -63t-26 -62q-26 -26 -63 -26
t-63 26q-26 25 -26 62t26 63zM370 592q52 0 52 52q0 53 -52 53t-52 -53q0 -52 52 -52z" />
    <glyph glyph-name="glyph254" 
d="M165 290q36 11 91 15q10 0 24 1l69 4q52 3 82 15q10 35 10 60q0 63 -91 72q-125 12 -164 -94l-89 8q56 159 236 159q88 0 142 -37q55 -37 55 -101q0 -17 -4 -44q-3 -17 -10 -49l-28 -128q-14 -64 -14 -99q0 -30 10 -72h-89q-8 25 -10 65q-43 -37 -82 -55q-46 -21 -97 -21
q-70 0 -115 41q-45 42 -45 108q0 63 42 106q30 31 77 46zM332 246l-35 -4q-7 -1 -12 -1q-28 -3 -46 -6q-49 -9 -74 -27q-30 -23 -30 -67q0 -84 99 -84q63 0 112 44q30 27 48 70q14 35 24 92q-29 -11 -86 -17zM276 597h-61q27 109 98 109q18 0 39 -6q15 -5 37 -14l34 -15
q17 -6 28 -6q24 0 35 38h59q-10 -106 -94 -106q-15 0 -36 6l-41 16q-1 1 -3 1q-1 1 -2 1q-5 3 -9 4l-16 7q-18 6 -28 6q-32 0 -40 -41z" />
    <glyph glyph-name="glyph255" 
d="M167 13q-90 53 -90 182q0 142 73 236q77 99 202 99q14 0 28 -2l82 198l52 -22l-79 -190q96 -42 96 -156l-86 -5q0 57 -40 86l-157 -380q10 -2 21 -2q99 0 143 132l88 -9q-66 -191 -235 -191q-28 0 -45 4l-79 -192l-53 23zM351 457l-4 1l-4 1q-77 0 -122 -68
q-55 -83 -55 -202q0 -65 32 -101z" />
    <glyph glyph-name="glyph256" horiz-adv-x="333" 
d="M100 581l130 135h97l61 -135h-78l-39 87l-80 -87h-91z" />
    <glyph glyph-name="glyph257" horiz-adv-x="333" 
d="M107 -188q23 7 39 23q11 13 22 35h-38l16 71h79l-13 -59q-8 -37 -36 -66q-32 -33 -76 -39z" />
    <glyph glyph-name="glyph258" horiz-adv-x="278" 
d="M59 0l108 518h89l-109 -518h-88z" />
    <glyph glyph-name="glyph259" 
d="M145 237q-2 -16 -2 -28q0 -69 33 -109q30 -36 78 -39q110 -6 162 115l86 -9q-21 -71 -87 -123q-72 -56 -157 -56q-92 0 -147 59q-57 61 -57 161q0 129 75 223q80 99 203 99q94 0 149 -60q53 -59 53 -153q0 -33 -7 -80h-382zM450 305q0 2 1 9v9q0 139 -119 139
q-127 0 -173 -157h291zM227 581l130 135h98l60 -135h-77l-39 87l-81 -87h-91z" />
    <glyph glyph-name="glyph260" 
d="M145 237q-2 -16 -2 -28q0 -69 33 -109q30 -36 78 -39q110 -6 162 115l86 -9q-21 -71 -87 -123q-72 -56 -157 -56q-92 0 -147 59q-57 61 -57 161q0 129 75 223q80 99 203 99q94 0 149 -60q53 -59 53 -153q0 -33 -7 -80h-382zM450 305q0 2 1 9v9q0 139 -119 139
q-127 0 -173 -157h291zM322 590l22 109h109l-23 -109h-108z" />
    <glyph glyph-name="glyph261" 
d="M145 237q-2 -16 -2 -28q0 -69 33 -109q30 -36 78 -39q110 -6 162 115l86 -9q-21 -71 -87 -123q-72 -56 -157 -56q-92 0 -147 59q-57 61 -57 161q0 129 75 223q80 99 203 99q94 0 149 -60q53 -59 53 -153q0 -33 -7 -80h-382zM450 305q0 2 1 9v9q0 139 -119 139
q-127 0 -173 -157h291zM368 581l-95 135h107l57 -135h-69z" />
    <glyph glyph-name="glyph262" 
d="M145 237q-2 -16 -2 -28q0 -69 33 -109q30 -36 78 -39q110 -6 162 115l86 -9q-21 -71 -87 -123q-72 -56 -157 -56q-92 0 -147 59q-57 61 -57 161q0 129 75 223q80 99 203 99q94 0 149 -60q53 -59 53 -153q0 -33 -7 -80h-382zM450 305q0 2 1 9v9q0 139 -119 139
q-127 0 -173 -157h291zM226 600l14 68h303l-14 -68h-303z" />
    <glyph glyph-name="glyph263" 
d="M368 648q-1 1 -2 3l-9 11q-6 9 -13 16q-16 20 -36 38h92q14 -12 36 -37l86 37l23 -48l-76 -34q40 -65 59 -130q20 -71 20 -158q0 -151 -73 -251q-79 -107 -213 -107q-96 0 -154 59q-56 58 -56 152q0 144 87 238t201 79q38 -5 68 -22q17 -10 43 -33q-14 73 -51 140
l-112 -49l-23 49zM328 448q-81 0 -135 -75q-52 -72 -52 -168q0 -146 125 -146q82 0 137 82q51 75 51 168q0 139 -126 139z" />
    <glyph glyph-name="glyph264" horiz-adv-x="333" 
d="M278 518l-21 -100h-100l21 100h100zM222 338l-54 -389l-31 -146h-107l33 158l104 377h55z" />
    <glyph glyph-name="glyph265" horiz-adv-x="500" 
d="M54 0l94 450h-80l15 68h79l28 126q9 26 22 43q31 41 109 41q44 0 95 -14l-16 -77q-2 0 -4 1l-33 10q-23 5 -43 5q-30 0 -44 -27q-5 -11 -8 -27l-17 -81h99l-14 -68h-99l-95 -450h-88zM307 0l108 518h89l-109 -518h-88zM435 613l22 103h88l-22 -103h-88z" />
    <glyph glyph-name="glyph266" horiz-adv-x="500" 
d="M54 0l94 450h-79l14 68h79l28 126q9 26 22 43q31 41 109 41q44 0 95 -14l-16 -77q-2 0 -4 1l-33 10q-23 5 -43 5q-30 0 -44 -27q-5 -11 -8 -27l-17 -81h98l-14 -68h-98l-95 -450h-88zM307 0l150 716h88l-150 -716h-88z" />
    <glyph glyph-name="glyph267" 
d="M261 -83q-22 -128 -127 -128q-42 0 -109 13l17 76q43 -10 76 -10q32 0 46 23q9 15 15 51l86 508h-98l12 68h98l12 66q6 36 14 58q9 29 23 47q33 41 106 41q24 0 53 -7q11 -2 25 -6l23 -7l-18 -75l-18 4q-10 2 -19 3q-22 4 -41 4q-31 0 -44 -21q-10 -15 -17 -56l-9 -51h99
l-12 -68h-100z" />
    <glyph glyph-name="glyph268" horiz-adv-x="167" 
d="M-261 -30l682 758h85l-688 -758h-79z" />
    <glyph glyph-name="glyph269" 
d="M486 518h81l-105 -500q-24 -113 -75 -165q-57 -60 -163 -60q-195 0 -195 134q0 7 1 14q0 7 1 12l89 -8l-2 -13q0 -68 99 -68q81 0 116 46q14 20 24 52q7 21 16 66l9 42q-68 -70 -147 -70q-80 0 -130 58q-53 61 -53 163q0 122 77 215q78 94 182 94q102 0 157 -97zM186 97
q39 -36 99 -20q69 18 112 95q39 69 39 147q0 62 -35 101q-34 39 -89 39q-71 0 -124 -80q-47 -72 -47 -150q0 -92 45 -132zM530 695q-37 -129 -163 -129q-122 0 -129 129h57q11 -68 76 -68q72 0 100 68h59z" />
    <glyph glyph-name="glyph270" 
d="M486 518h81l-105 -500q-24 -113 -75 -165q-57 -60 -163 -60q-195 0 -195 134q0 7 1 14q0 7 1 12l89 -8l-2 -13q0 -68 99 -68q81 0 116 46q14 20 24 52q7 21 16 66l9 42q-68 -70 -147 -70q-80 0 -130 58q-53 61 -53 163q0 122 77 215q78 94 182 94q102 0 157 -97zM186 97
q39 -36 99 -20q69 18 112 95q39 69 39 147q0 62 -35 101q-34 39 -89 39q-71 0 -124 -80q-47 -72 -47 -150q0 -92 45 -132zM391 652l-16 -71h-78l12 60q8 38 37 67q32 32 75 37l-7 -35q-24 -6 -39 -23q-12 -13 -22 -35h38z" />
    <glyph glyph-name="glyph271" horiz-adv-x="584" 
d="M548 372l-473 -202v87l376 156l-376 154v87l473 -200v-82zM548 53h-473v81h473v-81z" />
    <glyph glyph-name="glyph272" horiz-adv-x="278" 
d="M59 0l108 518h89l-109 -518h-88zM107 599l21 100h92l-21 -100h-92zM287 599l21 100h92l-21 -100h-92z" />
    <glyph glyph-name="glyph273" horiz-adv-x="278" 
d="M59 0l108 518h89l-109 -518h-88zM232 581l-95 135h107l57 -135h-69z" />
    <glyph glyph-name="glyph274" horiz-adv-x="278" 
d="M59 0l108 518h89l-109 -518h-88zM89 600l14 68h303l-14 -68h-303z" />
    <glyph glyph-name="glyph275" horiz-adv-x="222" 
d="M193 -180q-56 -27 -103 -27q-89 0 -89 90q0 50 29 117l109 518h89l-109 -518h-33q-23 -56 -23 -85q0 -58 56 -58q35 0 86 21zM160 616l21 100h88l-21 -100h-88z" />
    <glyph glyph-name="glyph276" horiz-adv-x="500" 
d="M34 0l150 716h88l-93 -444l258 246h117l-222 -193l134 -325h-97l-103 266l-107 -93l-37 -173h-88zM167 -130l16 71h79l-13 -59q-8 -38 -37 -67q-32 -33 -75 -38l7 35q24 7 40 24q11 12 21 34h-38z" />
    <glyph glyph-name="glyph277" horiz-adv-x="222" 
d="M28 0l149 716h89l-150 -716h-88zM6 -130l16 71h79l-13 -59q-8 -37 -36 -66q-32 -33 -76 -39l7 35q23 7 39 23q11 13 22 35h-38z" />
    <glyph glyph-name="glyph278" horiz-adv-x="584" 
d="M76 372v82l473 200v-87l-375 -154l375 -156v-87zM549 53h-473v81h473v-81z" />
    <glyph glyph-name="glyph279" horiz-adv-x="494" 
d="M268 695l204 -349l-204 -346h-54l-191 346l191 349h54zM242 647l-166 -301l166 -300l175 300z" />
    <glyph glyph-name="glyph280" horiz-adv-x="333" 
d="M98 600l14 68h303l-14 -68h-303z" />
    <glyph glyph-name="glyph281" horiz-adv-x="584" 
d="M570 313h-473v81h473v-81z" />
    <glyph glyph-name="glyph282" 
d="M35 0l108 518h80l-18 -90l21 21q12 11 23 20q27 23 54 37q83 43 155 13q73 -30 73 -114q0 -17 -4 -42l-5 -24q-1 -8 -5 -25l-66 -314h-88l69 329q5 23 7 37q3 21 3 36q0 56 -71 56q-97 0 -153 -91q-26 -42 -44 -126l-51 -241h-88zM187 -130l15 71h79l-13 -59
q-8 -37 -36 -66q-32 -33 -76 -39l8 35q24 7 39 24q11 12 21 34h-37z" />
    <glyph glyph-name="glyph283" horiz-adv-x="584" 
d="M279 204l-95 -218h-66l95 218h-138v81h174l59 137h-233v81h269l96 217h65l-95 -217h138v-81h-174l-59 -137h233v-81h-269z" />
    <glyph glyph-name="glyph284" 
d="M205 428q50 51 91 75q49 27 105 27q55 0 92 -33q38 -35 38 -92q0 -16 -4 -42l-76 -363h-88l69 329q5 23 7 37q3 21 3 36q0 57 -71 57q-97 0 -153 -92q-26 -42 -44 -126l-51 -241h-88l108 518h80zM271 597h-61q27 109 99 109q18 0 39 -6l70 -29q17 -6 28 -6q24 0 35 38h59
q-10 -106 -94 -106q-15 0 -36 6l-71 29q-17 6 -28 6q-32 0 -40 -41z" />
    <glyph glyph-name="glyph285" horiz-adv-x="944" 
d="M860 471q56 -59 56 -155q0 -45 -8 -79h-375q-2 -20 -2 -35q0 -59 30 -98q32 -44 87 -44q94 0 147 116l92 -9q-77 -178 -244 -178q-121 0 -174 100q-86 -100 -205 -100q-93 0 -147 56q-56 58 -56 159q0 137 75 230q77 96 201 96t179 -97q21 22 36 35q21 19 42 32
q53 30 122 30q89 0 144 -59zM266 57q82 0 137 85q52 79 52 181q0 60 -31 99q-33 40 -88 40q-122 0 -169 -145q-20 -63 -20 -108q0 -152 119 -152zM831 305q0 2 1 10l1 11q0 67 -35 103q-31 33 -83 33q-115 0 -168 -157h284z" />
    <glyph glyph-name="glyph286" 
d="M129 435q79 95 205 95q95 0 152 -59t57 -159q0 -139 -80 -232q-80 -92 -200 -92q-95 0 -154 59q-58 58 -58 150q0 145 78 238zM212 67q67 -31 137 17q47 32 77 98q28 64 28 131q0 149 -124 149q-82 0 -137 -78q-53 -75 -53 -178q0 -105 72 -139zM371 581l-95 135h107
l57 -135h-69z" />
    <glyph glyph-name="glyph287" 
d="M129 435q79 95 205 95q95 0 152 -59t57 -159q0 -139 -80 -232q-80 -92 -200 -92q-95 0 -154 59q-58 58 -58 150q0 145 78 238zM212 67q67 -31 137 17q47 32 77 98q28 64 28 131q0 149 -124 149q-82 0 -137 -78q-53 -75 -53 -178q0 -105 72 -139zM228 600l15 68h303
l-15 -68h-303z" />
    <glyph glyph-name="glyph288" horiz-adv-x="834" 
d="M205 358l54 260q-50 -35 -123 -50l13 62q39 12 80 36q46 27 71 59h54l-76 -367h-73zM60 -30l682 758h85l-688 -758h-79zM498 -17q30 101 175 184l28 16q16 9 25 17q26 20 26 45q0 45 -63 45t-81 -55l-75 7q31 109 156 109q135 0 135 -104q0 -37 -25 -67q-20 -24 -60 -49
l-69 -42q-39 -25 -56 -47h185l-12 -59h-289z" />
    <glyph glyph-name="glyph289" horiz-adv-x="834" 
d="M205 358l54 260q-50 -35 -122 -50l13 62q40 12 79 36q46 27 71 59h55l-77 -367h-73zM84 -30l682 758h85l-688 -758h-79zM665 -17l16 74h-189l12 59l250 234h57l-48 -237h48l-12 -56h-49l-15 -74h-70zM693 113l31 130l-139 -130h108z" />
    <glyph glyph-name="glyph290" horiz-adv-x="333" 
d="M204 358l55 260q-50 -35 -123 -50l13 62q39 12 80 36q46 27 71 59h54l-76 -367h-74z" />
    <glyph glyph-name="glyph291" horiz-adv-x="370" 
d="M309 370q-3 9 -5 18l-2 14q-48 -44 -113 -44q-51 0 -82 30q-29 29 -29 72q0 69 65 97q19 8 43 12q17 3 45 6l48 3q29 3 52 8q1 2 2 7q2 5 2 8q3 10 3 17q0 50 -67 50q-65 0 -90 -58l-69 12q48 107 161 107q134 0 134 -99q0 -23 -6 -54q-4 -20 -14 -56q-1 -1 -1 -3l-1 -4
q-2 -4 -2 -7l-11 -40q-6 -29 -6 -49v-11l2 -11q2 -14 8 -25h-67zM261 521l-28 -3q-16 -2 -26 -4q-57 -10 -57 -49q0 -46 52 -46q40 0 70 25q33 29 45 87q-20 -6 -56 -10z" />
    <glyph glyph-name="glyph292" horiz-adv-x="365" 
d="M120 660q55 68 139 68q69 0 111 -43t42 -110q0 -81 -49 -144q-54 -70 -135 -70q-158 0 -158 161q0 76 50 138zM195 429q52 -18 98 29q47 46 47 118q0 88 -81 88q-50 0 -85 -50q-32 -45 -32 -90q0 -76 53 -95z" />
    <glyph glyph-name="glyph293" horiz-adv-x="611" 
d="M126 54q-49 57 -49 150q0 136 76 229q79 97 206 97q69 0 121 -33l55 69l44 -35l-57 -72q47 -59 47 -149q0 -137 -80 -230q-81 -92 -200 -92q-67 0 -120 31l-55 -69l-44 34zM432 437q-32 25 -76 25q-83 0 -138 -79q-52 -74 -52 -177q0 -52 15 -83zM217 79q83 -59 172 18
q91 78 91 217q0 42 -14 75z" />
    <glyph glyph-name="glyph294" 
d="M129 435q79 95 205 95q95 0 152 -59t57 -159q0 -139 -80 -232q-80 -92 -200 -92q-95 0 -154 59q-58 58 -58 150q0 145 78 238zM212 67q67 -31 137 17q47 32 77 98q28 64 28 131q0 149 -124 149q-82 0 -137 -78q-53 -75 -53 -178q0 -105 72 -139zM285 597h-61
q27 109 99 109q18 0 39 -6l70 -29q17 -6 28 -6q24 0 35 38h59q-10 -106 -94 -106q-15 0 -36 6l-41 16q-1 1 -3 1q-1 1 -2 1q-5 3 -9 4l-16 7q-18 6 -28 6q-32 0 -40 -41z" />
    <glyph glyph-name="glyph295" horiz-adv-x="494" 
d="M122 547q35 72 74 107q47 41 110 41q81 0 129 -61q51 -65 51 -186q0 -187 -81 -323q-84 -140 -207 -140q-75 0 -119 42q-47 44 -47 123q0 115 80 203q81 90 189 90q106 0 153 -93q3 21 4 41q2 25 2 49q0 186 -169 186q-51 0 -88 -22q-32 -18 -59 -57h-22zM306 417
q-115 0 -166 -149q-25 -71 -25 -136q0 -119 95 -119q67 0 133 75q72 82 103 219q-38 110 -140 110z" />
    <glyph glyph-name="glyph296" horiz-adv-x="611" 
d="M448 518l-21 -100h-100l22 100h99zM405 339q-12 -109 -98 -180l-65 -53q-33 -28 -52 -49q-47 -50 -47 -99q0 -38 32 -67q33 -30 82 -30q119 0 142 152l89 -14q-41 -209 -230 -209q-88 0 -147 52q-57 50 -57 124q0 91 102 171l78 63q31 27 47 46q31 36 40 93h84z" />
    <glyph glyph-name="glyph297" horiz-adv-x="552" 
d="M515 913h36l-152 -951l-243 499l-97 -45l-16 31l147 74l198 -402z" />
    <glyph glyph-name="glyph298" horiz-adv-x="333" 
d="M197 413q78 117 157 117q16 0 34 -6q12 -4 31 -13l-36 -82q-23 17 -49 17q-56 0 -100 -56q-48 -62 -73 -182l-44 -208h-84l108 518h78zM80 -188q39 11 61 58h-38l15 71h79l-13 -59q-8 -38 -36 -67q-32 -33 -75 -38z" />
    <glyph glyph-name="glyph299" horiz-adv-x="333" 
d="M186 707q26 26 63 26t63 -26t26 -63t-26 -62q-26 -26 -63 -26t-63 26q-26 25 -26 62t26 63zM249 592q52 0 52 52q0 53 -52 53t-52 -53q0 -52 52 -52z" />
    <glyph glyph-name="glyph300" horiz-adv-x="500" 
d="M332 197q-18 11 -51 26l-71 31q-99 43 -99 127q0 63 48 105q51 44 137 44q197 0 202 -164l-87 -5q-5 101 -121 101q-97 0 -97 -67q0 -32 42 -56q15 -9 43 -21l49 -20q29 -13 49 -24q26 -15 43 -31q42 -40 42 -98q0 -60 -47 -103q-53 -48 -150 -54l-12 -27q78 0 78 -63
q0 -43 -45 -70t-117 -27q-25 0 -55 2l18 53q121 -3 121 40q0 21 -23 28q-15 4 -47 3l26 64q-170 24 -170 176v10l89 6v-13q0 -113 129 -113q117 0 117 78q0 36 -41 62z" />
    <glyph glyph-name="glyph301" 
d="M407 392l-15 -74h-124v-20q0 -118 -102 -195q41 6 78 3q27 -3 58 -11l47 -15q26 -7 46 -7q56 0 108 30l26 -79q-72 -36 -130 -36q-25 0 -51 8q-13 4 -44 17q-29 11 -48 16q-29 8 -60 8q-45 0 -83 -13q-30 -11 -70 -36l-10 86q152 98 152 222l-2 22h-109l16 74h84l-5 45
q-3 32 -3 67q0 95 68 159q68 65 170 65q83 0 138 -48q58 -51 67 -142l-81 -8q-15 127 -128 127q-58 0 -99 -42q-46 -47 -46 -128q0 -32 10 -95h142z" />
    <glyph glyph-name="glyph302" horiz-adv-x="713" 
d="M662 -100h-641v18l327 406l-327 399v18h624l13 -165h-19q-15 125 -122 125h-361l274 -335l-307 -380h400q121 0 151 121l19 -4z" />
    <glyph glyph-name="glyph303" 
d="M-8 -199l192 915h88l-54 -260q74 74 152 74q72 0 119 -53q50 -58 50 -156q0 -138 -79 -237q-77 -95 -177 -95q-92 0 -144 94l-59 -282h-88zM280 60q74 0 125 89q45 79 45 171q0 139 -107 139q-78 0 -129 -85q-48 -80 -48 -186q0 -128 114 -128z" />
    <glyph glyph-name="glyph304" horiz-adv-x="834" 
d="M218 518l11 53h15q83 0 83 55q0 46 -62 46q-53 0 -72 -50l-72 9q27 94 146 94q132 0 132 -97q0 -66 -80 -85q30 -13 44 -28q20 -21 20 -54q0 -47 -41 -79q-42 -34 -107 -34q-124 0 -152 106l70 8q22 -53 80 -53q74 0 74 60q0 49 -70 49h-19zM99 -30l681 758h86l-688 -758
h-79zM665 -17l16 74h-189l12 59l250 234h57l-48 -237h48l-12 -56h-49l-15 -74h-70zM693 113l31 130l-139 -130h108z" />
    <glyph glyph-name="glyph305" horiz-adv-x="333" 
d="M217 518l11 53h15q83 0 83 55q0 46 -62 46q-53 0 -72 -50l-72 9q27 94 146 94q132 0 132 -97q0 -66 -80 -85q30 -13 44 -28q20 -21 20 -54q0 -47 -41 -79q-42 -34 -107 -34q-124 0 -152 106l70 8q22 -53 80 -53q74 0 74 60q0 49 -70 49h-19z" />
    <glyph glyph-name="glyph306" horiz-adv-x="333" 
d="M155 597h-61q27 109 99 109q18 0 39 -6l70 -29q17 -6 28 -6q24 0 35 38h59q-10 -106 -93 -106q-15 0 -36 6l-41 16q-1 1 -3 1q-1 1 -2 1q-5 3 -9 4l-17 7q-17 6 -28 6q-32 0 -40 -41z" />
    <glyph glyph-name="glyph307" horiz-adv-x="333" 
d="M74 358q17 57 61 101q38 38 114 83l28 16q16 9 25 16q26 21 26 46q0 45 -63 45t-81 -55l-75 7q31 109 156 109q135 0 135 -104q0 -37 -25 -67q-20 -24 -60 -49l-69 -42q-39 -25 -56 -47h185l-12 -59h-289z" />
    <glyph glyph-name="glyph308" 
d="M389 94q-56 -63 -117 -89q-55 -23 -105 -14q-103 19 -103 117q0 23 5 54q3 19 11 57l63 299h88l-75 -364q-3 -19 -3 -31q0 -62 71 -62q85 0 144 81q24 33 38 77q5 16 10 38l55 261h88l-108 -518h-82zM245 581l129 135h98l61 -135h-78l-39 87l-80 -87h-91z" />
    <glyph glyph-name="glyph309" 
d="M389 94q-56 -63 -117 -89q-55 -23 -105 -14q-103 19 -103 117q0 23 5 54q3 19 11 57l63 299h88l-75 -364q-3 -19 -3 -31q0 -62 71 -62q85 0 144 81q24 33 38 77q5 16 10 38l55 261h88l-108 -518h-82zM386 581l-95 135h107l57 -135h-69z" />
    <glyph glyph-name="glyph310" 
d="M389 94q-56 -63 -117 -89q-55 -23 -105 -14q-103 19 -103 117q0 23 5 54q3 19 11 57l63 299h88l-75 -364q-3 -19 -3 -31q0 -62 71 -62q85 0 144 81q24 33 38 77q5 16 10 38l55 261h88l-108 -518h-82zM243 600l14 68h304l-15 -68h-303z" />
    <glyph glyph-name="glyph311" 
d="M424 0q-22 -54 -22 -85q0 -58 55 -58q36 0 87 21l-13 -58q-56 -27 -102 -27q-89 0 -89 88q0 55 29 119l20 94q-56 -63 -117 -89q-55 -23 -105 -14q-103 19 -103 117q0 23 5 54q3 19 11 57l63 299h88l-75 -364q-3 -19 -3 -31q0 -62 71 -62q85 0 144 81q24 33 38 77
q5 16 10 38l55 261h88l-108 -518h-27z" />
    <glyph glyph-name="glyph312" horiz-adv-x="500" 
d="M231 -69q-19 -34 -33 -54q-19 -27 -37 -45q-43 -41 -102 -41q-35 0 -59 9l5 83q32 -8 50 -8q33 0 56 21q16 14 38 52l28 50l-86 520h87l39 -261q13 -78 20 -156l232 417h92zM322 599h-92l21 100h92zM502 599h-92l21 100h92z" />
    <glyph glyph-name="glyph313" 
d="M205 0l33 160h-200l14 68h200l15 71h-200l14 68h168l-134 349h89l93 -251q19 -52 29 -88q11 25 28 53q13 21 35 52l170 234h109l-263 -349h163l-14 -68h-199l-15 -71h199l-14 -68h-199l-33 -160h-88z" />
    </font>
</defs>
</svg>
