<svg width="14" height="21" viewBox="0 0 14 21" fill="none" xmlns="http://www.w3.org/2000/svg">
<path fill-rule="evenodd" clip-rule="evenodd" d="M3.60557 0.0130179C3.59914 0.0199735 3.59388 0.738333 3.59388 1.60937V3.19305L3.12492 3.19438C2.86698 3.1951 2.05838 3.19455 1.32798 3.19313L0 3.19056V4.22287V5.25518L0.731924 5.25539C1.36246 5.25556 1.48206 5.26014 1.59533 5.28842C1.94269 5.37515 2.18033 5.60583 2.28578 5.95868C2.31188 6.046 2.31395 6.4358 2.30983 10.5007L2.30534 14.9472L2.25485 15.0656C2.19645 15.2027 2.07184 15.3396 1.95395 15.3961C1.82648 15.4572 1.59344 15.4736 0.951483 15.4667L0.351481 15.4603L0.342488 15.5078C0.326429 15.5927 0 17.7295 0 17.7497C0 17.763 0.523181 17.7693 1.63646 17.7693C2.53652 17.7693 3.34514 17.7748 3.4334 17.7816L3.59388 17.794V19.397V21H4.48796H5.38205V19.4143C5.38205 18.5421 5.38796 17.8259 5.3952 17.8227C5.40242 17.8194 5.72589 17.8192 6.11397 17.8222L6.8196 17.8276V19.4138V21H7.71369H8.60777V19.3958V17.7915L8.73487 17.7802C9.25931 17.7335 9.52775 17.7055 9.75118 17.6742C11.0159 17.4966 11.9449 17.1527 12.6184 16.6126C12.8239 16.4478 13.1652 16.0713 13.31 15.8497C13.7138 15.2315 13.9351 14.453 13.9903 13.4562C14.0847 11.7519 13.4915 10.5978 12.2192 10.0105C12.0284 9.92237 11.6659 9.79021 11.5035 9.74945L11.4102 9.72604L11.5426 9.64422C11.9724 9.37862 12.2913 9.06471 12.5263 8.67577C12.8256 8.18033 12.9573 7.6461 12.9573 6.92768C12.9573 5.88234 12.6892 5.12008 12.1063 4.50788C11.4384 3.80656 10.3458 3.3758 8.81387 3.20981L8.60796 3.1875L8.60349 1.59867L8.59901 0.00984421L7.7093 0.00492214L6.8196 0V1.54599V3.09197L6.4383 3.10445C6.22859 3.11133 5.90512 3.11696 5.71952 3.117L5.38205 3.11703V1.55869V0.000342105H4.49966C4.01432 0.000342105 3.61199 0.00604337 3.60557 0.0130179ZM7.27541 5.41609C8.45769 5.5372 9.17043 5.91883 9.45908 6.5853C9.55759 6.81275 9.58957 6.95786 9.6015 7.23145C9.61742 7.59678 9.55684 7.8919 9.41031 8.16265C9.32437 8.32147 9.09994 8.57005 8.94086 8.68261C8.53812 8.9676 7.9759 9.14388 7.20528 9.22683C6.88795 9.26098 5.85353 9.28624 5.60557 9.26589L5.43464 9.25184V7.32519V5.39853L5.70199 5.39138C6.14255 5.37958 7.05972 5.39399 7.27541 5.41609ZM7.6085 11.2309C8.5552 11.3209 9.21884 11.5178 9.68427 11.8467C9.96186 12.0428 10.1884 12.3164 10.3002 12.5906C10.4089 12.857 10.4601 13.2189 10.4313 13.5171C10.4071 13.7667 10.3734 13.8931 10.2706 14.1199C10.1914 14.2946 10.1597 14.3413 10.012 14.5019C9.77184 14.7629 9.54349 14.9171 9.1587 15.0781C8.45103 15.3742 7.24555 15.5217 5.88253 15.4791L5.43464 15.4651V13.3395V11.2138L5.71076 11.2068C6.20047 11.1944 7.38286 11.2094 7.6085 11.2309Z" fill="black"/>
</svg>
