<svg width="22" height="25" viewBox="0 0 22 25" fill="none" xmlns="http://www.w3.org/2000/svg">
<path d="M20.793 16.3923V7.59541C20.7926 7.20975 20.6908 6.83097 20.4978 6.49708C20.3048 6.16319 20.0274 5.88592 19.6934 5.69308L11.9961 1.29464C11.6618 1.10162 11.2825 1 10.8965 1C10.5105 1 10.1312 1.10162 9.79689 1.29464L2.09961 5.69308C1.76562 5.88592 1.48821 6.16319 1.2952 6.49708C1.1022 6.83097 1.0004 7.20975 1 7.59541V16.3923C1.0004 16.778 1.1022 17.1567 1.2952 17.4906C1.48821 17.8245 1.76562 18.1018 2.09961 18.2946L9.79689 22.6931C10.1312 22.8861 10.5105 22.9877 10.8965 22.9877C11.2825 22.9877 11.6618 22.8861 11.9961 22.6931L19.6934 18.2946C20.0274 18.1018 20.3048 17.8245 20.4978 17.4906C20.6908 17.1567 20.7926 16.778 20.793 16.3923Z" stroke="black" stroke-width="2" stroke-linecap="round" stroke-linejoin="round"/>
<path d="M1.29688 6.4519L10.8965 12.0049L20.4961 6.4519" stroke="black" stroke-width="2" stroke-linecap="round" stroke-linejoin="round"/>
<path d="M10.8965 23.078V11.9939" stroke="black" stroke-width="2" stroke-linecap="round" stroke-linejoin="round"/>
</svg>
