<svg width="13" height="23" viewBox="0 0 13 23" fill="none" xmlns="http://www.w3.org/2000/svg">
<path fill-rule="evenodd" clip-rule="evenodd" d="M6.4705 0.0157531C6.45893 0.0367117 6.15213 0.586966 5.78874 1.2385C5.42534 1.89004 5.02044 2.6179 4.88897 2.85596C4.75745 3.09402 4.21043 4.07816 3.67326 5.04294C3.13614 6.00772 2.64571 6.88935 2.58341 7.00211C2.40385 7.3272 0.57011 10.6216 0.285364 11.1306C0.14362 11.3841 0.0166328 11.6225 0.00321721 11.6605C-0.0135942 11.7082 0.0350369 11.7646 0.15955 11.8419C0.341541 11.9549 1.07504 12.4236 2.5832 13.3905C3.03284 13.6788 4.09279 14.3583 4.93869 14.9007C5.78454 15.443 6.4889 15.8867 6.50391 15.8867C6.51892 15.8867 6.90219 15.6482 7.35564 15.3567C7.80904 15.0652 8.50074 14.6215 8.89273 14.3707C9.28472 14.1199 9.85069 13.7572 10.1504 13.5645C10.4502 13.3719 11.2048 12.8893 11.8274 12.4922C12.45 12.095 12.9761 11.7544 12.9967 11.7352C13.0173 11.716 12.9398 11.5303 12.8243 11.3218C12.709 11.1136 12.2321 10.2564 11.7645 9.41691C11.2969 8.57742 10.8632 7.79831 10.8007 7.68554C10.7382 7.57278 10.1966 6.59889 9.59717 5.52134C8.99775 4.4438 8.0688 2.77281 7.53285 1.80803C6.99694 0.843253 6.54336 0.0367117 6.525 0.0157531C6.50664 -0.00525103 6.48211 -0.00525103 6.4705 0.0157531ZM0.0258557 13.1272C0.0258557 13.1429 0.324353 13.6113 0.689173 14.1681C1.58869 15.5411 2.5474 17.0073 3.42168 18.3471C4.73951 20.3666 5.48617 21.5092 5.68443 21.8098C5.79188 21.9727 6.01869 22.3185 6.18844 22.5783C6.47448 23.016 6.50136 23.0444 6.55602 22.9655C6.66159 22.8133 8.80901 19.5327 11.4282 15.5222C11.9437 14.7329 12.5039 13.8768 12.6729 13.6198C12.842 13.3628 12.9803 13.1407 12.9803 13.1261C12.9803 13.09 12.6848 13.2764 9.43774 15.3611C7.85268 16.3787 7.0013 16.9238 6.75239 17.0805L6.49867 17.2402L5.4318 16.5561C4.84503 16.1799 4.05368 15.6735 3.67322 15.4307C3.29276 15.1879 2.40608 14.6209 1.70281 14.1705C0.999535 13.7202 0.33454 13.2948 0.224994 13.2253C0.115447 13.1557 0.0258557 13.1116 0.0258557 13.1272Z" fill="black"/>
</svg>
