<svg width="27" height="26" viewBox="0 0 27 26" fill="none" xmlns="http://www.w3.org/2000/svg">
<path d="M17.6813 8.27566L21.8022 4.15478M24.157 1.79999L21.8022 4.15478L24.157 1.79999ZM12.8422 13.1147C13.4502 13.7146 13.9335 14.4288 14.2642 15.2162C14.595 16.0035 14.7668 16.8486 14.7697 17.7026C14.7725 18.5567 14.6064 19.4028 14.2809 20.1924C13.9554 20.982 13.4769 21.6994 12.873 22.3033C12.2691 22.9072 11.5517 23.3857 10.7621 23.7112C9.97256 24.0367 9.12638 24.2028 8.27234 24.2C7.4183 24.1971 6.57326 24.0253 5.78587 23.6945C4.99848 23.3637 4.28431 22.8805 3.68447 22.2725C2.50487 21.0512 1.85216 19.4154 1.86691 17.7175C1.88167 16.0196 2.56271 14.3955 3.76335 13.1948C4.96399 11.9942 6.58817 11.3131 8.28607 11.2984C9.98397 11.2836 11.6197 11.9363 12.8411 13.1159L12.8422 13.1147ZM12.8422 13.1147L17.6813 8.27566L12.8422 13.1147ZM17.6813 8.27566L21.2135 11.8078L25.3344 7.68696L21.8022 4.15478L17.6813 8.27566Z" stroke="#FE4D17" stroke-width="2.5" stroke-linecap="round" stroke-linejoin="round"/>
</svg>
