<svg width="27" height="28" viewBox="0 0 27 28" fill="none" xmlns="http://www.w3.org/2000/svg">
<path d="M7.85413 25.8165H4.26165C3.62646 25.8165 3.01729 25.5642 2.56814 25.115C2.119 24.6659 1.86667 24.0567 1.86667 23.4215V15.0391C1.86667 14.4039 2.119 13.7947 2.56814 13.3456C3.01729 12.8964 3.62646 12.6441 4.26165 12.6441H7.85413M16.2366 10.2491V5.45915C16.2366 4.50636 15.8581 3.5926 15.1844 2.91888C14.5106 2.24516 13.5969 1.86667 12.6441 1.86667L7.85413 12.6441V25.8165H21.3618C21.9394 25.823 22.4999 25.6206 22.94 25.2465C23.3801 24.8724 23.6702 24.3519 23.7568 23.7808L25.4094 13.0033C25.4615 12.6601 25.4383 12.3096 25.3415 11.9762C25.2447 11.6428 25.0766 11.3344 24.8488 11.0724C24.621 10.8104 24.3389 10.6011 24.0222 10.4589C23.7054 10.3168 23.3615 10.2452 23.0144 10.2491H16.2366Z" stroke="#4854AF" stroke-width="2.5" stroke-linecap="round" stroke-linejoin="round"/>
</svg>
