<svg width="25" height="28" viewBox="0 0 25 28" fill="none" xmlns="http://www.w3.org/2000/svg">
<path d="M19.7624 9.05159C19.7624 7.14602 19.0054 5.3185 17.658 3.97106C16.3105 2.62362 14.483 1.86664 12.5774 1.86664C10.6719 1.86664 8.84433 2.62362 7.49689 3.97106C6.14945 5.3185 5.39247 7.14602 5.39247 9.05159C5.39247 17.434 1.79999 19.829 1.79999 19.829H23.3549C23.3549 19.829 19.7624 17.434 19.7624 9.05159Z" stroke="#4854AF" stroke-width="2.5" stroke-linecap="round" stroke-linejoin="round"/>
<path d="M14.6491 24.6189C14.4386 24.9818 14.1364 25.2831 13.7728 25.4925C13.4092 25.7019 12.997 25.8121 12.5774 25.8121C12.1579 25.8121 11.7456 25.7019 11.3821 25.4925C11.0185 25.2831 10.7163 24.9818 10.5058 24.6189" stroke="#4854AF" stroke-width="2.5" stroke-linecap="round" stroke-linejoin="round"/>
</svg>
