<svg width="95" height="157" viewBox="0 0 95 157" fill="none" xmlns="http://www.w3.org/2000/svg">
<path d="M14.9152 103.177L28.0428 95.3009L28.2104 111.557L15.0828 119.433L14.9152 103.177Z" fill="#FFE27A"/>
<path d="M13.1276 118.427L26.2551 110.551L28.2103 111.556L15.0827 119.433L13.1276 118.427Z" fill="#FFE27A"/>
<path d="M3.12823 96.9773L16.3117 89.1007L26.1434 94.2959L12.9599 102.172L3.12823 96.9773Z" fill="black"/>
<path d="M12.96 102.172L26.1434 94.2955L28.0428 95.3011L14.9152 103.178L12.96 102.172Z" fill="#FFE27A"/>
<path d="M23.4621 111.167L36.5897 103.291L36.7014 116.083L23.518 123.904L23.4621 111.167Z" fill="#FFE27A"/>
<path d="M36.7012 130.884L49.8288 123.007L49.9405 136.638L36.8129 144.514L36.7012 130.884Z" fill="#FFE27A"/>
<path d="M23.4621 111.167L36.5897 103.291L49.7173 110.218L36.5897 118.094L23.4621 111.167Z" fill="#FFE27A"/>
<path d="M36.5897 118.092L49.7172 110.215L49.8289 123.008L36.7013 130.884L36.5897 118.092Z" fill="#FFE27A"/>
<path d="M46.5331 123.287L59.6607 115.467L59.7724 128.203L46.6449 136.08L46.5331 123.287Z" fill="#FFE27A"/>
<path d="M59.7723 142.673L72.8999 134.796L73.0116 148.818L59.884 156.694L59.7723 142.673Z" fill="#FFE27A"/>
<path d="M29.4393 85.3575L42.6228 77.481L42.7904 103.233L29.6627 111.11L29.4393 85.3575Z" fill="#FFE27A"/>
<path d="M46.5331 123.287L59.6607 115.467L72.8441 122.393L59.6607 130.27L46.5331 123.287Z" fill="#FFE27A"/>
<path d="M29.6627 111.11L42.7903 103.234L67.5931 116.306L54.4655 124.182L29.6627 111.11Z" fill="black"/>
<path d="M59.6608 130.271L72.8442 122.394L72.9001 134.796L59.7725 142.672L59.6608 130.271Z" fill="#FFE27A"/>
<path d="M75.1903 116.808L62.0627 124.684C61.0715 125.28 59.9199 125.553 58.7669 125.466C57.2542 125.37 55.7833 124.93 54.4655 124.181L67.5931 116.305C68.911 117.054 70.3818 117.493 71.8944 117.59C73.0475 117.676 74.1991 117.403 75.1903 116.808Z" fill="black"/>
<path d="M14.3006 21.6738L27.4282 13.7972L27.5399 29.9972L14.4123 37.8738L14.3006 21.6738Z" fill="#FFE27A"/>
<path d="M12.4571 36.8137L25.5847 28.9371L27.5398 29.9985L14.4123 37.8751L12.4571 36.8137Z" fill="#FFE27A"/>
<path d="M0 14.0764L13.1276 6.19983L27.4283 13.7412L14.2448 21.6178L0 14.0764Z" fill="black"/>
<path d="M14.2449 21.6196L27.4283 13.743V13.7989L14.3007 21.6754L14.2449 21.6196Z" fill="#FFE27A"/>
<path d="M29.1599 45.6952L42.2874 37.8186L42.5109 62.4538L29.3275 70.3303L29.1599 45.6952Z" fill="#FFE27A"/>
<path d="M29.3275 70.33L42.511 62.4535L64.744 74.1845L51.6165 82.0611L29.3275 70.33Z" fill="black"/>
<path d="M22.7358 26.1425L35.8635 18.266L35.9752 27.2039L22.8476 35.0805L22.7358 26.1425Z" fill="#FFE27A"/>
<path d="M14.3006 21.6738L27.4282 13.7972L35.8634 18.2662L22.7357 26.1428L14.3006 21.6738Z" fill="black"/>
<path d="M51.6166 82.0601L65.0234 74.1836C66.0633 74.8947 67.2738 75.3161 68.5304 75.4044C69.7871 75.4928 71.0446 75.2449 72.1738 74.6864L59.0462 82.5629C57.8828 83.1759 56.5721 83.4535 55.2601 83.3647C53.9482 83.2759 52.6867 82.8242 51.6166 82.0601Z" fill="black"/>
<path d="M22.8477 35.0804L35.9753 27.2039L49.1028 34.1308L35.9753 42.0073L22.8477 35.0804Z" fill="#FFE27A"/>
<path d="M89.547 135.185L76.1959 143.117C77.6677 142.219 78.8955 140.972 79.7711 139.486C81.3287 136.494 82.0432 133.134 81.838 129.766C81.8116 123.399 80.3006 117.125 77.4249 111.443L90.5525 103.567C93.4282 109.248 94.9393 115.522 94.9656 121.89C95.1708 125.257 94.4564 128.617 92.8987 131.61C92.079 133.049 90.9305 134.274 89.547 135.185Z" fill="#FFE27A"/>
<path d="M65.9172 96.3061L79.0448 88.4296C83.9208 92.6036 87.9098 97.7134 90.7758 103.456L77.6482 111.333C74.7822 105.59 70.7932 100.48 65.9172 96.3061Z" fill="#FFE27A"/>
<path d="M35.9192 33.0702L49.0468 25.1936L49.1026 34.1315L35.9751 42.0081L35.9192 33.0702Z" fill="#FFE27A"/>
<path d="M35.9192 33.0702L49.0468 25.1936L58.9903 30.4447L45.8627 38.3212L35.9192 33.0702Z" fill="black"/>
<path d="M45.8628 38.3214L58.9903 30.4448L59.0462 39.3827L45.9186 47.2593L45.8628 38.3214Z" fill="#FFE27A"/>
<path d="M45.9186 47.2594L59.0461 39.3828L72.2296 46.3097L59.0461 54.1863L45.9186 47.2594Z" fill="#FFE27A"/>
<path d="M35.7516 14.8047L48.8792 6.9281L49.0468 25.195L35.9192 33.0716L35.7516 14.8047Z" fill="#FFE27A"/>
<path d="M22.6241 7.87655L35.7517 0L48.8793 6.92688L35.7517 14.8034L22.6241 7.87655Z" fill="black"/>
<path d="M58.9902 45.2491L72.1179 37.3726L72.2295 46.3105L59.0461 54.1871L58.9902 45.2491Z" fill="#FFE27A"/>
<path d="M85.0779 87.2572L71.9504 95.1338C73.2051 94.3742 74.2739 93.3435 75.0786 92.1172C77.2831 88.5945 78.3554 84.4809 78.151 80.3303C78.0922 77.0225 77.6039 73.7364 76.6986 70.5544C75.7327 67.0647 74.3838 63.6924 72.6765 60.4993C70.9711 57.2848 68.8896 54.2844 66.4758 51.5613C64.3515 49.1364 61.8411 47.079 59.0461 45.4724L72.1738 37.5958C74.9687 39.2025 77.4791 41.2599 79.6034 43.6848C82.0172 46.4079 84.0987 49.4082 85.8041 52.6227C87.5115 55.8159 88.8604 59.1881 89.8262 62.6779C90.7315 65.8599 91.2197 69.146 91.2786 72.4537C91.483 76.6044 90.4107 80.7179 88.2062 84.2406C87.4015 85.4669 86.3326 86.4976 85.0779 87.2572Z" fill="#FFE27A"/>
<path d="M45.6951 20.0555L58.8227 12.179L72.0061 19.1058L58.8785 26.9824L45.6951 20.0555Z" fill="black"/>
<path d="M14.9151 103.178L15.0827 119.434L13.1276 118.429L0.782043 111.893L3.12824 96.9778L12.9599 102.173L14.9151 103.178Z" fill="#FFC700"/>
<path d="M36.5897 118.094L36.7014 130.887L36.8131 144.517L23.6297 137.59L23.518 123.904L23.4621 111.167L36.5897 118.094Z" fill="#FFC700"/>
<path d="M59.6607 130.269L59.7724 142.67L59.8842 156.692L46.7566 149.765L46.6449 136.079L46.5331 123.286L59.6607 130.269Z" fill="#FFC700"/>
<path d="M14.2448 21.6178L14.3007 21.6736L14.4124 37.8736L12.4572 36.8123L2.51378 31.6171L0 14.0764L14.2448 21.6178Z" fill="#FFC700"/>
<path d="M35.7517 14.8035L35.9193 33.0704L35.9752 42.0083L22.8476 35.0814L22.7358 26.1435L22.6241 7.87659L35.7517 14.8035Z" fill="#FFC700"/>
<path d="M77.6481 111.389C80.5238 117.07 82.035 123.344 82.0613 129.711C82.2665 133.079 81.552 136.439 79.9943 139.431C78.6921 141.694 76.5735 143.373 74.073 144.124C71.1949 144.852 68.1807 144.852 65.3027 144.124C63.3985 143.741 61.5299 143.199 59.7164 142.504V130.102L46.5888 123.175V135.968L36.6454 130.717V117.924L23.5178 110.997V123.79L13.0716 118.204L15.0268 119.209V102.953L13.0716 101.948L12.4571 36.9803L14.4123 37.9858V21.7858L22.9034 26.2547V35.1927L36.0309 42.1196V33.0699L45.9743 38.321V47.2589L59.102 54.1858V45.2478C61.8969 46.8545 64.4073 48.9119 66.5316 51.3368C68.9454 54.0599 71.0269 57.0603 72.7323 60.2747C74.4397 63.4679 75.7886 66.8401 76.7544 70.3299C77.6597 73.5119 78.1479 76.798 78.2068 80.1058C78.4112 84.2564 77.3389 88.37 75.1343 91.8927C74.1617 93.3905 72.8015 94.5968 71.1983 95.3837C69.5951 96.1706 67.8087 96.5085 66.0288 96.3616C70.8645 100.546 74.815 105.655 77.6481 111.389ZM64.4088 121.779C65.0088 120.348 65.2946 118.805 65.2467 117.254C65.2258 115.362 64.9439 113.482 64.4088 111.668C63.8929 109.73 63.1621 107.857 62.2302 106.082C61.3565 104.467 60.287 102.966 59.046 101.613C57.897 100.344 56.5361 99.2859 55.0241 98.4844L29.3833 84.9658V110.718L54.1861 123.79C55.504 124.539 56.9748 124.978 58.4875 125.075C59.7025 125.181 60.9188 124.887 61.9509 124.237C62.9579 123.526 63.7348 122.535 64.1854 121.388L64.4088 121.779ZM28.8806 45.3037V69.9389L51.2254 81.6699C52.2653 82.381 53.4757 82.8024 54.7324 82.8907C55.989 82.9791 57.2466 82.7313 58.3757 82.1727C59.4777 81.28 60.326 80.1136 60.8358 78.7901C61.3456 77.4667 61.499 76.0326 61.2806 74.6313C61.2858 70.9817 60.3219 67.3961 58.4875 64.241C56.9427 61.3478 54.5956 58.9619 51.7281 57.3699L28.7688 45.2478" fill="#FFC700"/>
<path d="M58.8785 26.9824L58.9903 45.2493L59.0461 54.1873L45.9186 47.2604L45.8627 38.3224L45.6951 20.0555L58.8785 26.9824Z" fill="#FFC700"/>
<path d="M58.8785 26.9809L72.0062 19.1044L72.1179 37.3713L58.9903 45.2478L58.8785 26.9809Z" fill="#FFE27A"/>
</svg>
