<svg width="203" height="245" viewBox="0 0 203 245" fill="none" xmlns="http://www.w3.org/2000/svg">
<rect width="117.724" height="121.856" transform="matrix(0.855652 0.517551 -1.87921e-07 1 0.74231 61.4155)" fill="#FE4D17"/>
<rect width="117.724" height="117.724" transform="matrix(0.855652 0.517551 -0.855652 0.517551 101.473 0.864746)" fill="#FA673A"/>
<rect width="117.724" height="121.856" transform="matrix(0.855652 -0.517551 -1.45864e-07 1 101.409 122.343)" fill="#D53C0D"/>
<path fill-rule="evenodd" clip-rule="evenodd" d="M41.0783 108.533C41.0593 108.545 41.0439 110.957 41.0439 113.893L41.0439 119.231L39.6636 118.401C38.9044 117.944 36.5245 116.503 34.3747 115.198L30.4661 112.825L30.4661 116.304L30.4661 119.784L32.6203 121.088C34.4762 122.211 34.8282 122.439 35.1616 122.736C36.184 123.647 36.8834 124.847 37.1937 126.225C37.2706 126.565 37.2767 127.883 37.2645 141.577L37.2513 156.556L37.1027 156.866C36.9308 157.224 36.5641 157.463 36.2171 157.444C35.8419 157.423 35.156 157.064 33.2665 155.898L31.5006 154.808L31.4741 154.952C31.4268 155.209 30.4661 161.831 30.4661 161.899C30.4661 161.944 32.0059 162.896 35.2826 164.878C37.9318 166.48 40.3118 167.939 40.5715 168.119L41.0439 168.446L41.0439 173.849L41.0439 179.253L43.6754 180.844L46.307 182.436L46.307 177.091C46.307 174.151 46.3243 171.748 46.3456 171.75C46.3669 171.752 47.319 172.327 48.4612 173.028L50.5381 174.302L50.5381 179.649L50.5381 184.995L53.1696 186.587L55.8012 188.179L55.8012 182.771L55.8012 177.364L56.1753 177.552C57.7188 178.328 58.5089 178.712 59.1666 179.004C62.8891 180.657 65.6233 181.152 67.6055 180.53C68.2104 180.341 69.2149 179.679 69.641 179.19C70.8296 177.825 71.4809 175.595 71.6434 172.333C71.9213 166.757 70.1753 161.811 66.4306 157.566C65.8689 156.929 64.8022 155.839 64.3241 155.412L64.0494 155.167L64.4391 155.127C65.7044 154.997 66.6428 154.507 67.3345 153.614C68.2154 152.477 68.6031 150.911 68.6031 148.489C68.6031 144.966 67.8141 141.919 66.0982 138.818C64.1326 135.265 60.9168 131.868 56.4078 128.581L55.8017 128.139L55.7886 122.776L55.7754 117.412L53.1567 115.812L50.5381 114.211L50.5381 119.422L50.5381 124.633L49.4158 123.997C48.7986 123.646 47.8465 123.09 47.3002 122.759L46.307 122.159L46.307 116.906L46.307 111.653L43.7098 110.082C42.2814 109.218 41.0972 108.521 41.0783 108.533ZM51.8796 133.279C55.3594 135.792 57.4572 138.347 58.3068 141.107C58.5967 142.049 58.6909 142.595 58.726 143.539C58.7729 144.798 58.5945 145.685 58.1633 146.337C57.9103 146.719 57.2498 147.158 56.7815 147.254C55.5962 147.498 53.9414 147.091 51.6732 145.998C50.7393 145.549 47.6947 143.792 46.9648 143.282L46.4617 142.931L46.4617 136.436L46.4617 129.942L47.2486 130.394C48.5453 131.139 51.2448 132.82 51.8796 133.279ZM52.86 153.471C55.6464 155.46 57.5997 157.305 58.9696 159.242C59.7866 160.398 60.4533 161.723 60.7825 162.846C61.1025 163.938 61.2532 165.249 61.1682 166.203C61.0971 167.001 60.998 167.367 60.6952 167.948C60.4622 168.396 60.3691 168.497 59.9343 168.776C59.2273 169.228 58.5553 169.341 57.4227 169.199C55.3398 168.937 51.7918 167.288 47.78 164.718L46.4617 163.873L46.4617 156.709L46.4617 149.544L47.2744 150.012C48.7158 150.842 52.1959 152.997 52.86 153.471Z" fill="white"/>
<rect width="117.368" height="14.0232" transform="matrix(0.855652 0.517551 -0.855652 0.517551 58.9783 26.8147)" fill="#B0B0B0"/>
</svg>
