<svg width="158" height="182" viewBox="0 0 158 182" fill="none" xmlns="http://www.w3.org/2000/svg">
<rect width="90.7098" height="90.7098" transform="matrix(0.866025 0.5 -1.96876e-07 1 0.139038 45.7058)" fill="#CCCEDA"/>
<rect width="90.7098" height="90.7098" transform="matrix(0.866025 0.5 -0.866026 0.5 78.696 0.631836)" fill="#DADDEB"/>
<rect width="90.7098" height="90.7098" transform="matrix(0.866026 -0.5 -1.52815e-07 1 78.6458 91.0603)" fill="#B3B7CA"/>
<path fill-rule="evenodd" clip-rule="evenodd" d="M31.596 80.7801C31.5812 80.7891 31.5691 82.5845 31.5691 84.7701L31.5691 88.7437L30.4927 88.1256C29.9006 87.7856 28.0446 86.7126 26.368 85.7411L23.3198 83.9747L23.3198 86.5649L23.3198 89.1551L24.9999 90.1256C26.4472 90.9616 26.7217 91.1316 26.9817 91.3527C27.779 92.0307 28.3245 92.9244 28.5665 93.9495C28.6265 94.2032 28.6312 95.1839 28.6218 105.378L28.6115 116.529L28.4956 116.759C28.3615 117.025 28.0755 117.204 27.8049 117.189C27.5123 117.174 26.9774 116.906 25.5038 116.038L24.1266 115.227L24.106 115.334C24.0691 115.526 23.3198 120.455 23.3198 120.505C23.3198 120.539 24.5207 121.248 27.0761 122.723C29.1421 123.916 30.9982 125.002 31.2008 125.136L31.5691 125.379L31.5691 129.401L31.5691 133.423L33.6214 134.608L35.6737 135.793L35.6737 131.814C35.6737 129.626 35.6872 127.837 35.7039 127.838C35.7204 127.84 36.4629 128.268 37.3537 128.79L38.9734 129.738L38.9734 133.718L38.9734 137.698L41.0257 138.883L43.0779 140.068L43.0779 136.043L43.0779 132.018L43.3697 132.158C44.5735 132.736 45.1896 133.021 45.7025 133.238C48.6056 134.469 50.738 134.837 52.2838 134.375C52.7555 134.233 53.5389 133.741 53.8713 133.377C54.7982 132.361 55.3061 130.701 55.4328 128.273C55.6495 124.122 54.2879 120.44 51.3675 117.28C50.9295 116.806 50.0976 115.994 49.7247 115.677L49.5105 115.494L49.8144 115.464C50.8011 115.368 51.533 115.003 52.0724 114.338C52.7594 113.492 53.0618 112.326 53.0618 110.523C53.0618 107.9 52.4465 105.632 51.1083 103.324C49.5754 100.679 47.0675 98.1502 43.551 95.7035L43.0784 95.3747L43.0681 91.3822L43.0578 87.3897L41.0156 86.1983L38.9734 85.0068L38.9734 88.8859L38.9734 92.7649L38.0982 92.291C37.6168 92.0303 36.8743 91.6158 36.4483 91.3699L35.6737 90.9227L35.6737 87.0127L35.6737 83.1026L33.6482 81.9332C32.5342 81.29 31.6107 80.7711 31.596 80.7801ZM40.0197 99.2005C42.7334 101.071 44.3695 102.973 45.032 105.028C45.2581 105.729 45.3315 106.136 45.3589 106.838C45.3955 107.776 45.2564 108.436 44.9201 108.921C44.7228 109.206 44.2076 109.532 43.8425 109.604C42.9181 109.785 41.6275 109.482 39.8587 108.669C39.1303 108.334 36.7559 107.027 36.1867 106.647L35.7944 106.385L35.7944 101.551L35.7944 96.717L36.4081 97.0533C37.4193 97.6076 39.5246 98.8592 40.0197 99.2005ZM40.7842 114.232C42.9573 115.712 44.4806 117.086 45.5489 118.528C46.1861 119.388 46.706 120.375 46.9628 121.211C47.2123 122.023 47.3298 122.999 47.2636 123.709C47.2081 124.303 47.1308 124.576 46.8947 125.009C46.7129 125.342 46.6403 125.417 46.3012 125.624C45.7499 125.961 45.2258 126.045 44.3425 125.939C42.7181 125.745 39.9511 124.517 36.8225 122.604L35.7944 121.975L35.7944 116.642L35.7944 111.308L36.4282 111.657C37.5523 112.274 40.2663 113.879 40.7842 114.232Z" fill="black"/>
<rect width="90.4358" height="10.8053" transform="matrix(0.866025 0.5 -0.866025 0.5 45.5555 19.949)" fill="#D43C0D"/>
</svg>
