<svg width="36" height="42" viewBox="0 0 36 42" fill="none" xmlns="http://www.w3.org/2000/svg">
<rect width="20.7085" height="20.7085" transform="matrix(-0.866025 -0.5 2.84299e-07 -1 35.8682 31.063)" fill="#E6E6E6"/>
<rect width="20.7085" height="20.7085" transform="matrix(-0.866025 -0.5 0.866026 -0.5 17.9336 41.353)" fill="#D2D2D2"/>
<rect width="20.7085" height="20.7085" transform="matrix(-0.866026 0.5 2.40238e-07 -1 17.9453 20.7087)" fill="#B0B0B0"/>
<ellipse cx="18.2088" cy="32.4013" rx="12.119" ry="3.46256" fill="url(#paint0_radial)"/>
<circle cx="17.9331" cy="20.1391" r="9.84907" fill="white"/>
<path fill-rule="evenodd" clip-rule="evenodd" d="M17.843 14.1202C17.8366 14.1311 17.6666 14.4159 17.4652 14.7532C17.2639 15.0905 17.0395 15.4673 16.9667 15.5906C16.8938 15.7138 16.5907 16.2233 16.2931 16.7228C15.9955 17.2223 15.7238 17.6787 15.6892 17.737C15.5897 17.9053 14.5737 19.6108 14.4159 19.8744C14.3374 20.0056 14.267 20.129 14.2596 20.1487C14.2503 20.1734 14.2772 20.2026 14.3462 20.2426C14.4471 20.3011 14.8535 20.5437 15.6891 21.0443C15.9382 21.1936 16.5256 21.5454 16.9942 21.8261C17.4629 22.1069 17.8532 22.3366 17.8615 22.3366C17.8698 22.3366 18.0822 22.2131 18.3334 22.0622C18.5847 21.9113 18.9679 21.6816 19.1851 21.5518C19.4023 21.4219 19.7159 21.2341 19.882 21.1344C20.0481 21.0347 20.4662 20.7849 20.8111 20.5792C21.1561 20.3736 21.4476 20.1973 21.459 20.1874C21.4704 20.1774 21.4275 20.0813 21.3635 19.9734C21.2996 19.8656 21.0354 19.4218 20.7763 18.9872C20.5172 18.5526 20.2769 18.1492 20.2423 18.0909C20.2076 18.0325 19.9075 17.5283 19.5754 16.9705C19.2433 16.4126 18.7286 15.5475 18.4316 15.0481C18.1347 14.5486 17.8834 14.1311 17.8732 14.1202C17.863 14.1093 17.8494 14.1093 17.843 14.1202ZM14.2721 20.908C14.2721 20.9161 14.4375 21.1586 14.6397 21.4469C15.1381 22.1577 15.6693 22.9167 16.1537 23.6103C16.8839 24.6558 17.2976 25.2473 17.4074 25.403C17.467 25.4873 17.5927 25.6663 17.6867 25.8008C17.8452 26.0274 17.8601 26.0421 17.8904 26.0013C17.9489 25.9225 19.1387 24.2241 20.59 22.1479C20.8756 21.7393 21.186 21.296 21.2796 21.163C21.3733 21.03 21.4499 20.915 21.4499 20.9074C21.4499 20.8888 21.2862 20.9853 19.4871 22.0645C18.6088 22.5913 18.1371 22.8735 17.9992 22.9546L17.8586 23.0373L17.2675 22.6832C16.9424 22.4884 16.5039 22.2262 16.2931 22.1005C16.0823 21.9748 15.591 21.6813 15.2013 21.4481C14.8116 21.215 14.4432 20.9948 14.3825 20.9588C14.3218 20.9227 14.2721 20.8999 14.2721 20.908Z" fill="black"/>
<defs>
<radialGradient id="paint0_radial" cx="0" cy="0" r="1" gradientUnits="userSpaceOnUse" gradientTransform="translate(18.1354 33.4327) rotate(90) scale(2.43116 8.50906)">
<stop offset="0.145833" stop-color="#B3B3B3"/>
<stop offset="1" stop-color="#C4C4C4" stop-opacity="0"/>
</radialGradient>
</defs>
</svg>
