<svg width="36" height="42" viewBox="0 0 36 42" fill="none" xmlns="http://www.w3.org/2000/svg">
<rect width="20.5388" height="20.5388" transform="matrix(-0.866025 -0.5 2.84299e-07 -1 35.5742 30.8081)" fill="#FA673A"/>
<rect width="20.5388" height="20.5388" transform="matrix(-0.866025 -0.5 0.866026 -0.5 17.7871 41.0139)" fill="#FE4D17"/>
<rect width="20.5388" height="20.5388" transform="matrix(-0.866026 0.5 2.40238e-07 -1 17.7988 20.6846)" fill="#D43C0D"/>
<ellipse cx="17.659" cy="31.8559" rx="12.119" ry="3.46256" fill="url(#paint0_radial)"/>
<circle cx="17.6417" cy="20.1197" r="9.91413" fill="white"/>
<path fill-rule="evenodd" clip-rule="evenodd" d="M15.7732 14.078C15.7693 14.0819 15.7662 14.49 15.7662 14.9849V15.8846L15.4847 15.8854C15.3299 15.8858 14.8447 15.8855 14.4063 15.8846L13.6094 15.8832V16.4697V17.0561L14.0486 17.0563C14.427 17.0564 14.4988 17.059 14.5668 17.075C14.7752 17.1243 14.9179 17.2553 14.9811 17.4558C14.9968 17.5054 14.998 17.7269 14.9956 20.0362L14.9929 22.5624L14.9626 22.6297C14.9275 22.7076 14.8527 22.7853 14.782 22.8174C14.7055 22.8521 14.5656 22.8615 14.1804 22.8575L13.8203 22.8539L13.8149 22.8809C13.8053 22.9291 13.6094 24.143 13.6094 24.1545C13.6094 24.1621 13.9234 24.1657 14.5915 24.1657C15.1316 24.1657 15.6169 24.1688 15.6699 24.1727L15.7662 24.1797V25.0904V26.0011H16.3027H16.8393V25.1002C16.8393 24.6047 16.8428 24.1978 16.8472 24.196C16.8515 24.1942 17.0456 24.194 17.2785 24.1957L17.702 24.1988V25.0999V26.0011H18.2386H18.7751V25.0897V24.1783L18.8514 24.1719C19.1662 24.1454 19.3273 24.1294 19.4613 24.1116C20.2204 24.0108 20.7779 23.8154 21.182 23.5085C21.3054 23.4149 21.5102 23.201 21.5971 23.0751C21.8394 22.7239 21.9722 22.2816 22.0053 21.7153C22.062 20.7471 21.706 20.0914 20.9425 19.7577C20.8279 19.7077 20.6104 19.6326 20.513 19.6094L20.4569 19.5961L20.5364 19.5497C20.7944 19.3988 20.9857 19.2204 21.1268 18.9995C21.3064 18.718 21.3854 18.4145 21.3854 18.0063C21.3854 17.4124 21.2246 16.9794 20.8747 16.6316C20.4739 16.2331 19.8182 15.9884 18.8988 15.8941L18.7753 15.8814L18.7726 14.9788L18.7699 14.0761L18.236 14.0734L17.702 14.0706V14.9489V15.8272L17.4732 15.8343C17.3473 15.8382 17.1532 15.8414 17.0418 15.8414L16.8393 15.8414V14.9561V14.0708H16.3097C16.0185 14.0708 15.777 14.074 15.7732 14.078ZM17.9756 17.1476C18.6851 17.2164 19.1128 17.4332 19.286 17.8118C19.3452 17.941 19.3644 18.0235 19.3715 18.1789C19.3811 18.3865 19.3447 18.5541 19.2568 18.7079C19.2052 18.7982 19.0705 18.9394 18.975 19.0033C18.7333 19.1652 18.3959 19.2654 17.9335 19.3125C17.743 19.3319 17.1222 19.3463 16.9734 19.3347L16.8709 19.3267V18.2322V17.1376L17.0313 17.1335C17.2957 17.1268 17.8461 17.135 17.9756 17.1476ZM18.1755 20.4511C18.7436 20.5022 19.1419 20.6141 19.4212 20.8009C19.5878 20.9123 19.7237 21.0678 19.7908 21.2235C19.8561 21.3749 19.8868 21.5805 19.8695 21.7499C19.855 21.8917 19.8348 21.9635 19.773 22.0924C19.7255 22.1916 19.7065 22.2182 19.6179 22.3094C19.4737 22.4577 19.3367 22.5453 19.1058 22.6368C18.6811 22.805 17.9576 22.8888 17.1396 22.8646L16.8709 22.8566V21.649V20.4414L17.0366 20.4374C17.3305 20.4303 18.04 20.4389 18.1755 20.4511Z" fill="black"/>
<defs>
<radialGradient id="paint0_radial" cx="0" cy="0" r="1" gradientUnits="userSpaceOnUse" gradientTransform="translate(17.5856 32.8873) rotate(90) scale(2.43116 8.50906)">
<stop offset="0.145833" stop-color="#5F0000" stop-opacity="0.39"/>
<stop offset="1" stop-color="#4B0000" stop-opacity="0"/>
</radialGradient>
</defs>
</svg>
