<svg width="244" height="282" viewBox="0 0 244 282" fill="none" xmlns="http://www.w3.org/2000/svg">
<rect width="140.873" height="140.873" transform="matrix(0.866025 0.5 -1.96876e-07 1 0 70.0005)" fill="#DEDFE4"/>
<rect width="140.873" height="140.873" transform="matrix(0.866025 0.5 -0.866026 0.5 122 0)" fill="#EDEFF5"/>
<rect width="140.873" height="140.873" transform="matrix(0.866026 -0.5 -1.52815e-07 1 121.922 140.437)" fill="#CCCEDA"/>
<rect width="140.448" height="16.7808" transform="matrix(0.866025 0.5 -0.866025 0.5 70.5325 30)" fill="#B0B0B0"/>
<path d="M31.3149 134.085L43.6355 141.198L43.6355 144.866L35.9225 140.413L35.9225 143.144L43.0773 147.275L43.0773 150.778L35.9225 146.648L35.9225 150.034L43.8588 154.616L43.8588 158.507L31.3149 151.265L31.3149 134.085ZM55.4994 162.392L50.2626 159.368L49.5421 161.788L44.8432 159.075L50.4352 145.124L55.4486 148.019L61.0406 168.427L56.2301 165.65L55.4994 162.392ZM54.5353 158.12L52.8912 150.995L51.2572 156.228L54.5353 158.12ZM61.7206 163.136L66.0947 165.345C66.1894 166.22 66.3822 166.956 66.6731 167.554C67.1467 168.523 67.8233 169.261 68.7029 169.769C69.3592 170.148 69.8632 170.263 70.2151 170.114C70.5736 169.962 70.7529 169.651 70.7529 169.183C70.7529 168.737 70.5838 168.241 70.2455 167.694C69.9072 167.148 69.1224 166.362 67.891 165.339C65.8748 163.651 64.437 162.126 63.5778 160.763C62.7118 159.396 62.2787 158.04 62.2787 156.696C62.2787 155.814 62.4986 155.108 62.9384 154.581C63.385 154.05 64.0514 153.817 64.9377 153.884C65.8308 153.946 67.052 154.425 68.6014 155.319C70.5026 156.417 71.9505 157.663 72.9451 159.058C73.9464 160.448 74.5418 162.089 74.7312 163.98L70.3977 161.771C70.2827 160.931 70.0391 160.228 69.667 159.661C69.3017 159.099 68.7942 158.63 68.1447 158.255C67.6102 157.946 67.2076 157.847 66.937 157.956C66.6664 158.058 66.5311 158.296 66.5311 158.671C66.5311 158.944 66.6427 159.255 66.866 159.603C67.0825 159.954 67.5967 160.462 68.4086 161.126C70.418 162.786 71.8558 164.124 72.7218 165.14C73.5946 166.151 74.2272 167.15 74.6196 168.134C75.0188 169.122 75.2184 170.085 75.2184 171.023C75.2184 172.124 74.9545 172.987 74.4268 173.612C73.899 174.237 73.1616 174.519 72.2144 174.456C71.2671 174.386 70.073 173.935 68.6318 173.103C66.1014 171.642 64.3491 170.067 63.3748 168.38C62.4005 166.692 61.8491 164.944 61.7206 163.136ZM76.0404 159.907L81.1452 162.855L84.1493 170.39L87.1533 166.323L92.2277 169.253L86.4429 175.898L86.4429 183.093L81.8354 180.433L81.8354 173.237L76.0404 159.907ZM38.2364 172.081L46.8425 177.05C48.2769 177.878 49.3763 178.923 50.1409 180.185C50.9122 181.45 51.2978 182.689 51.2978 183.9C51.2978 184.915 51.0238 185.628 50.4758 186.038C50.1104 186.312 49.5759 186.386 48.8723 186.261C49.9413 187.175 50.7261 188.14 51.2268 189.155C51.7342 190.167 51.9879 191.22 51.9879 192.314C51.9879 193.204 51.8086 193.901 51.45 194.405C51.0914 194.909 50.6009 195.189 49.9785 195.243C49.5928 195.278 49.011 195.13 48.2329 194.798C47.1977 194.357 46.511 194.038 46.1727 193.843L38.2364 189.261L38.2364 172.081ZM42.8744 181.497L44.8737 182.651C45.5908 183.066 46.0881 183.212 46.3655 183.091C46.6497 182.966 46.7918 182.634 46.7918 182.095C46.7918 181.595 46.6497 181.122 46.3655 180.677C46.0881 180.235 45.601 179.814 44.9041 179.411L42.8744 178.239L42.8744 181.497ZM42.8744 188.247L45.2187 189.601C46.0103 190.058 46.5685 190.22 46.8933 190.087C47.218 189.946 47.3804 189.603 47.3804 189.056C47.3804 188.548 47.218 188.048 46.8933 187.556C46.5753 187.06 46.0137 186.579 45.2086 186.114L42.8744 184.767L42.8744 188.247ZM53.8248 189.683C53.8248 186.878 54.5014 185.085 55.8546 184.304C57.2078 183.523 59.092 183.829 61.5074 185.224C63.9837 186.653 65.8917 188.525 67.2313 190.837C68.571 193.142 69.2408 195.677 69.2408 198.442C69.2408 200.45 68.9465 201.929 68.3578 202.878C67.776 203.823 66.9302 204.335 65.8206 204.413C64.7178 204.487 63.341 204.048 61.6901 203.095C60.0122 202.126 58.6218 201.015 57.519 199.761C56.4229 198.511 55.5332 197.021 54.8499 195.29C54.1665 193.56 53.8248 191.691 53.8248 189.683ZM58.4222 192.36C58.4222 194.095 58.6996 195.501 59.2544 196.579C59.816 197.661 60.5771 198.48 61.5379 199.034C62.5257 199.605 63.2902 199.675 63.8315 199.245C64.3728 198.816 64.6434 197.64 64.6434 195.718C64.6434 194.101 64.3592 192.757 63.7909 191.687C63.2293 190.612 62.4648 189.796 61.4973 189.237C60.5704 188.702 59.8261 188.651 59.2646 189.085C58.703 189.519 58.4222 190.61 58.4222 192.36ZM69.6163 190.198L74.6805 193.122L77.3192 199.931L79.8766 196.122L84.8901 199.017L80.2623 204.665L85.3265 216.448L80.1608 213.466L77.2278 206.253L74.2847 210.073L69.1494 207.108L74.2847 201.12L69.6163 190.198Z" fill="black"/>
</svg>
