<svg width="244" height="282" viewBox="0 0 244 282" fill="none" xmlns="http://www.w3.org/2000/svg">
<rect width="140.873" height="140.873" transform="matrix(0.866025 0.5 -1.96876e-07 1 0 70.0005)" fill="#FE4D17"/>
<rect width="140.873" height="140.873" transform="matrix(0.866025 0.5 -0.866026 0.5 122 0)" fill="#FA673A"/>
<rect width="140.873" height="140.873" transform="matrix(0.866026 -0.5 -1.52815e-07 1 121.922 140.437)" fill="#D53C0D"/>
<rect width="140.448" height="16.7808" transform="matrix(0.866025 0.5 -0.866025 0.5 70.5325 30)" fill="#D43C0D"/>
<path d="M152.62 168.578L157.217 165.924L157.217 171.936L162.241 169.035L162.241 163.024L166.859 160.358L166.859 177.537L162.241 180.203L162.241 173.254L157.217 176.155L157.217 183.104L152.62 185.758L152.62 168.578ZM179.068 167.653L173.831 170.676L173.11 173.928L168.412 176.641L174.003 156.233L179.017 153.338L184.609 167.289L179.798 170.067L179.068 167.653ZM178.104 164.494L176.459 159.268L174.826 166.387L178.104 164.494ZM186.152 166.399L186.152 149.219L193.814 144.795C195.235 143.975 196.321 143.489 197.072 143.336C197.823 143.184 198.428 143.358 198.888 143.858C199.348 144.35 199.578 145.143 199.578 146.237C199.578 147.19 199.402 148.116 199.051 149.014C198.699 149.905 198.215 150.743 197.599 151.528C197.207 152.028 196.669 152.565 195.986 153.139C196.534 153.034 196.933 153.014 197.183 153.08C197.352 153.123 197.596 153.284 197.914 153.561C198.239 153.834 198.455 154.065 198.563 154.252L200.786 157.95L195.59 160.95L193.134 157.118C192.823 156.618 192.545 156.336 192.302 156.274C191.97 156.2 191.595 156.284 191.175 156.526L190.769 156.76L190.769 163.733L186.152 166.399ZM190.769 153.514L192.708 152.395C192.917 152.274 193.323 151.961 193.925 151.457C194.23 151.211 194.477 150.889 194.666 150.491C194.863 150.088 194.961 149.7 194.961 149.325C194.961 148.77 194.808 148.432 194.504 148.311C194.199 148.19 193.628 148.371 192.789 148.856L190.769 150.022L190.769 153.514ZM202.329 139.879L209.159 135.936C210.505 135.159 211.591 134.743 212.416 134.688C213.249 134.629 213.935 134.838 214.477 135.315C215.018 135.791 215.41 136.483 215.654 137.389C215.897 138.295 216.019 139.334 216.019 140.506C216.019 142.342 215.837 143.873 215.471 145.1C215.113 146.315 214.612 147.452 213.969 148.51C213.326 149.561 212.636 150.412 211.899 151.065C210.891 151.959 209.977 152.643 209.159 153.116L202.329 157.059L202.329 139.879ZM206.926 141.116L206.926 150.502L208.053 149.852C209.013 149.297 209.697 148.782 210.103 148.305C210.508 147.821 210.826 147.207 211.057 146.465C211.287 145.715 211.402 144.653 211.402 143.278C211.402 141.457 211.144 140.36 210.63 139.985C210.116 139.61 209.264 139.766 208.073 140.453L206.926 141.116ZM161.236 197.604L169.843 192.635C171.277 191.807 172.376 191.582 173.141 191.961C173.912 192.336 174.298 193.129 174.298 194.34C174.298 195.356 174.024 196.385 173.476 197.428C173.11 198.123 172.576 198.815 171.872 199.502C172.941 199.182 173.726 199.241 174.227 199.678C174.734 200.104 174.988 200.864 174.988 201.957C174.988 202.848 174.809 203.752 174.45 204.67C174.091 205.588 173.601 206.434 172.978 207.207C172.593 207.688 172.011 208.211 171.233 208.778C170.198 209.532 169.511 210.006 169.173 210.202L161.236 214.784L161.236 197.604ZM165.874 201.664L167.874 200.51C168.591 200.096 169.088 199.668 169.366 199.227C169.65 198.774 169.792 198.278 169.792 197.739C169.792 197.239 169.65 196.93 169.366 196.813C169.088 196.692 168.601 196.832 167.904 197.235L165.874 198.407L165.874 201.664ZM165.874 208.414L168.219 207.061C169.01 206.604 169.569 206.121 169.893 205.614C170.218 205.098 170.38 204.567 170.38 204.02C170.38 203.512 170.218 203.2 169.893 203.082C169.575 202.953 169.014 203.121 168.209 203.586L165.874 204.934L165.874 208.414ZM176.825 197.205C176.825 194.401 177.501 191.827 178.855 189.483C180.208 187.139 182.092 185.27 184.507 183.875C186.984 182.446 188.892 182.114 190.231 182.879C191.571 183.637 192.241 185.399 192.241 188.164C192.241 190.172 191.946 191.991 191.358 193.619C190.776 195.237 189.93 196.725 188.821 198.084C187.718 199.432 186.341 200.582 184.69 201.535C183.012 202.504 181.622 202.998 180.519 203.018C179.423 203.034 178.533 202.571 177.85 201.629C177.167 200.688 176.825 199.213 176.825 197.205ZM181.422 194.575C181.422 196.309 181.7 197.395 182.254 197.832C182.816 198.266 183.577 198.205 184.538 197.651C185.526 197.08 186.29 196.268 186.832 195.213C187.373 194.159 187.643 192.67 187.643 190.748C187.643 189.131 187.359 188.116 186.791 187.702C186.229 187.276 185.465 187.342 184.497 187.901C183.57 188.436 182.826 189.244 182.265 190.327C181.703 191.409 181.422 192.825 181.422 194.575ZM192.616 179.487L197.68 176.563L200.319 180.325L202.877 173.563L207.89 170.668L203.262 181.66L208.327 187.596L203.161 190.578L200.228 186.752L197.285 193.971L192.149 196.936L197.285 185.018L192.616 179.487Z" fill="white"/>
</svg>
