<svg width="244" height="282" viewBox="0 0 244 282" fill="none" xmlns="http://www.w3.org/2000/svg">
<rect width="140.873" height="140.873" transform="matrix(0.866025 0.5 -1.96876e-07 1 0.00012207 70.0005)" fill="#4854AF"/>
<rect width="140.873" height="140.873" transform="matrix(0.866025 0.5 -0.866026 0.5 122 0)" fill="#5D69BE"/>
<rect width="140.873" height="140.873" transform="matrix(0.866026 -0.5 -1.52815e-07 1 121.922 140.437)" fill="#323E95"/>
<rect width="140.448" height="16.7808" transform="matrix(0.866025 0.5 -0.866025 0.5 69.5325 30)" fill="#323E95"/>
<path d="M165.392 180.258C165.967 180.387 166.343 180.459 166.519 180.475C166.782 180.494 167.138 180.488 167.584 180.457L166.305 184.172C165.663 184.184 165.027 184.121 164.397 183.984C163.768 183.856 163.328 183.738 163.078 183.633C162.063 184.727 160.791 185.715 159.262 186.598C157.002 187.902 155.22 188.252 153.914 187.647C152.371 186.928 151.6 185.111 151.6 182.197C151.6 179.369 152.273 176.785 153.62 174.445C154.973 172.094 156.86 170.219 159.283 168.82C161.752 167.395 163.657 167.061 164.996 167.818C166.343 168.572 167.016 170.375 167.016 173.227C167.016 175.766 166.475 178.109 165.392 180.258ZM161.87 179.572C162.236 178.604 162.418 177.365 162.418 175.857C162.418 174.123 162.138 173.047 161.576 172.629C161.021 172.207 160.253 172.279 159.272 172.846C158.359 173.373 157.618 174.18 157.05 175.266C156.481 176.352 156.197 177.699 156.197 179.309C156.197 181.184 156.475 182.34 157.03 182.777C157.584 183.215 158.345 183.154 159.313 182.596C159.624 182.416 159.919 182.211 160.196 181.981C159.81 181.774 159.201 181.719 158.369 181.816L159.09 179.49C159.496 179.342 159.81 179.266 160.034 179.262C160.264 179.254 160.707 179.326 161.363 179.479C161.519 179.514 161.688 179.545 161.87 179.572ZM179.174 157.629L183.761 154.981L183.761 165.223C183.761 166.238 183.623 167.279 183.345 168.346C183.075 169.4 182.645 170.438 182.056 171.457C181.474 172.465 180.862 173.291 180.219 173.936C179.326 174.834 178.254 175.645 177.002 176.367C176.278 176.785 175.487 177.184 174.627 177.563C173.775 177.938 173.061 178.119 172.486 178.107C171.911 178.088 171.383 177.897 170.903 177.533C170.429 177.166 170.104 176.693 169.929 176.115C169.644 175.186 169.502 174.299 169.502 173.455L169.502 163.213L174.09 160.565L174.09 171.053C174.09 171.99 174.313 172.596 174.759 172.869C175.213 173.131 175.838 173.031 176.637 172.57C177.428 172.113 178.048 171.498 178.494 170.725C178.947 169.94 179.174 169.07 179.174 168.117L179.174 157.629ZM186.796 153.229L199.116 146.115L199.116 149.783L191.403 154.236L191.403 156.967L198.558 152.836L198.558 156.34L191.403 160.471L191.403 163.857L199.34 159.275L199.34 163.166L186.796 170.408L186.796 153.229ZM201.024 156.51L205.398 153.668C205.493 154.434 205.686 154.947 205.977 155.209C206.45 155.631 207.127 155.588 208.007 155.08C208.663 154.701 209.167 154.234 209.519 153.68C209.877 153.113 210.057 152.596 210.057 152.127C210.057 151.682 209.888 151.381 209.549 151.225C209.211 151.068 208.426 151.19 207.195 151.588C205.178 152.229 203.741 152.363 202.881 151.992C202.015 151.625 201.582 150.77 201.582 149.426C201.582 148.543 201.802 147.584 202.242 146.549C202.689 145.502 203.355 144.5 204.241 143.543C205.135 142.574 206.356 141.643 207.905 140.748C209.806 139.65 211.254 139.225 212.249 139.471C213.25 139.705 213.846 140.658 214.035 142.33L209.701 145.125C209.586 144.418 209.343 143.996 208.971 143.859C208.605 143.719 208.098 143.836 207.448 144.211C206.914 144.52 206.511 144.885 206.241 145.307C205.97 145.721 205.835 146.115 205.835 146.49C205.835 146.764 205.946 146.945 206.17 147.035C206.386 147.137 206.9 147.051 207.712 146.777C209.722 146.117 211.159 145.795 212.026 145.811C212.898 145.815 213.531 146.082 213.923 146.613C214.323 147.141 214.522 147.873 214.522 148.811C214.522 149.912 214.258 151.08 213.73 152.315C213.203 153.549 212.465 154.682 211.518 155.713C210.571 156.736 209.377 157.664 207.936 158.496C205.405 159.957 203.653 160.406 202.679 159.844C201.704 159.281 201.153 158.17 201.024 156.51ZM215.801 136.482L229.776 128.414L229.776 132.656L225.087 135.363L225.087 148.301L220.49 150.955L220.49 138.018L215.801 140.725L215.801 136.482ZM167.736 198.232L176.343 193.264C177.777 192.436 178.876 192.211 179.641 192.59C180.412 192.965 180.798 193.758 180.798 194.969C180.798 195.984 180.524 197.014 179.976 198.057C179.61 198.752 179.076 199.443 178.372 200.131C179.441 199.811 180.226 199.869 180.727 200.307C181.234 200.732 181.488 201.492 181.488 202.586C181.488 203.477 181.309 204.381 180.95 205.299C180.591 206.217 180.101 207.063 179.479 207.836C179.093 208.316 178.511 208.84 177.733 209.406C176.698 210.16 176.011 210.635 175.673 210.83L167.736 215.412L167.736 198.232ZM172.374 202.293L174.374 201.139C175.091 200.725 175.588 200.297 175.866 199.856C176.15 199.402 176.292 198.906 176.292 198.367C176.292 197.867 176.15 197.559 175.866 197.441C175.588 197.32 175.101 197.461 174.404 197.863L172.374 199.035L172.374 202.293ZM172.374 209.043L174.719 207.69C175.51 207.232 176.069 206.75 176.393 206.242C176.718 205.727 176.88 205.195 176.88 204.649C176.88 204.141 176.718 203.828 176.393 203.711C176.075 203.582 175.514 203.75 174.709 204.215L172.374 205.563L172.374 209.043ZM183.325 197.834C183.325 195.029 184.001 192.455 185.355 190.111C186.708 187.768 188.592 185.899 191.007 184.504C193.484 183.074 195.392 182.742 196.731 183.508C198.071 184.266 198.741 186.027 198.741 188.793C198.741 190.801 198.446 192.619 197.858 194.248C197.276 195.865 196.43 197.354 195.321 198.713C194.218 200.061 192.841 201.211 191.19 202.164C189.512 203.133 188.122 203.627 187.019 203.647C185.923 203.662 185.033 203.199 184.35 202.258C183.667 201.316 183.325 199.842 183.325 197.834ZM187.922 195.203C187.922 196.938 188.2 198.024 188.754 198.461C189.316 198.895 190.077 198.834 191.038 198.279C192.026 197.709 192.79 196.897 193.332 195.842C193.873 194.787 194.143 193.299 194.143 191.377C194.143 189.76 193.859 188.744 193.291 188.33C192.729 187.904 191.965 187.971 190.997 188.529C190.07 189.065 189.326 189.873 188.765 190.955C188.203 192.037 187.922 193.453 187.922 195.203ZM199.116 180.115L204.181 177.191L206.819 180.953L209.377 174.191L214.39 171.297L209.762 182.289L214.827 188.225L209.661 191.207L206.728 187.381L203.785 194.6L198.649 197.565L203.785 185.647L199.116 180.115Z" fill="white"/>
</svg>
